M48
; DRILL file {KiCad 9.0.6} date 2025-12-30T13:00:52-0700
; FORMAT={-:-/ absolute / metric / decimal}
; #@! TF.CreationDate,2025-12-30T13:00:52-07:00
; #@! TF.GenerationSoftware,Kicad,Pcbnew,9.0.6
; #@! TF.FileFunction,Plated,1,2,PTH
FMAT,2
METRIC
; #@! TA.AperFunction,Plated,PTH,ComponentDrill
T1C0.800
; #@! TA.AperFunction,Plated,PTH,ComponentDrill
T2C0.900
; #@! TA.AperFunction,Plated,PTH,ComponentDrill
T3C1.000
; #@! TA.AperFunction,Plated,PTH,ComponentDrill
T4C1.118
; #@! TA.AperFunction,Plated,PTH,ComponentDrill
T5C1.150
%
G90
G05
T1
X120.393Y-101.664
X120.393Y-111.824
X126.274Y-91.507
X126.274Y-101.667
X126.343Y-107.314
X126.343Y-112.314
X130.183Y-120.503
X130.183Y-124.503
X131.343Y-101.0
X136.343Y-101.0
X140.343Y-120.503
X140.343Y-124.503
X140.843Y-94.5
X140.843Y-104.66
X177.446Y-103.427
X177.446Y-113.587
X180.223Y-118.681
X180.223Y-121.221
X180.223Y-123.761
X180.223Y-126.301
X180.223Y-128.841
X180.843Y-103.42
X180.843Y-113.58
X182.647Y-83.411
X182.647Y-91.011
X185.29Y-96.339
X185.29Y-106.499
X187.843Y-118.681
X187.843Y-121.221
X187.843Y-123.761
X187.843Y-126.301
X187.843Y-128.841
T2
X120.343Y-83.46
X120.343Y-86.0
X120.343Y-91.5
X120.343Y-94.04
X176.558Y-98.048
X179.098Y-98.048
X181.638Y-98.048
T3
X146.593Y-83.0
X146.593Y-85.54
X146.593Y-88.08
X146.593Y-90.62
X146.593Y-93.16
X146.593Y-95.7
X146.593Y-98.24
X146.593Y-100.78
X146.593Y-103.32
X146.593Y-105.86
X146.593Y-108.4
X146.593Y-110.94
X146.593Y-113.48
X146.593Y-116.02
X146.593Y-118.56
X146.593Y-121.1
X146.593Y-123.64
X146.593Y-126.18
X146.593Y-128.72
X171.59Y-83.145
X171.59Y-85.685
X171.59Y-88.225
X171.59Y-90.765
X171.59Y-93.305
X171.59Y-95.845
X171.59Y-98.385
X171.59Y-100.925
X171.59Y-103.465
X171.59Y-106.005
X171.59Y-108.545
X171.59Y-111.085
X171.59Y-113.625
X171.59Y-116.165
X171.59Y-118.705
X171.59Y-121.245
X171.59Y-123.785
X171.59Y-126.325
X171.59Y-128.865
T4
X130.033Y-104.69
X130.033Y-107.23
X130.033Y-109.77
X130.033Y-112.31
X137.653Y-104.69
X137.653Y-107.23
X137.653Y-109.77
X137.653Y-112.31
T5
X129.4Y-83.0
X134.0Y-83.0
X138.6Y-83.0
M30
