%TF.GenerationSoftware,KiCad,Pcbnew,9.0.6*%
%TF.CreationDate,2025-12-31T00:29:03-07:00*%
%TF.ProjectId,MainBoard,4d61696e-426f-4617-9264-2e6b69636164,rev?*%
%TF.SameCoordinates,Original*%
%TF.FileFunction,Copper,L1,Top*%
%TF.FilePolarity,Positive*%
%FSLAX46Y46*%
G04 Gerber Fmt 4.6, Leading zero omitted, Abs format (unit mm)*
G04 Created by KiCad (PCBNEW 9.0.6) date 2025-12-31 00:29:03*
%MOMM*%
%LPD*%
G01*
G04 APERTURE LIST*
G04 Aperture macros list*
%AMRoundRect*
0 Rectangle with rounded corners*
0 $1 Rounding radius*
0 $2 $3 $4 $5 $6 $7 $8 $9 X,Y pos of 4 corners*
0 Add a 4 corners polygon primitive as box body*
4,1,4,$2,$3,$4,$5,$6,$7,$8,$9,$2,$3,0*
0 Add four circle primitives for the rounded corners*
1,1,$1+$1,$2,$3*
1,1,$1+$1,$4,$5*
1,1,$1+$1,$6,$7*
1,1,$1+$1,$8,$9*
0 Add four rect primitives between the rounded corners*
20,1,$1+$1,$2,$3,$4,$5,0*
20,1,$1+$1,$4,$5,$6,$7,0*
20,1,$1+$1,$6,$7,$8,$9,0*
20,1,$1+$1,$8,$9,$2,$3,0*%
G04 Aperture macros list end*
%ADD10C,0.300000*%
%TA.AperFunction,NonConductor*%
%ADD11C,0.300000*%
%TD*%
%TA.AperFunction,NonConductor*%
%ADD12C,0.200000*%
%TD*%
%TA.AperFunction,ComponentPad*%
%ADD13C,1.600000*%
%TD*%
%TA.AperFunction,ComponentPad*%
%ADD14R,1.676400X1.676400*%
%TD*%
%TA.AperFunction,ComponentPad*%
%ADD15C,1.676400*%
%TD*%
%TA.AperFunction,ComponentPad*%
%ADD16R,1.350000X1.350000*%
%TD*%
%TA.AperFunction,ComponentPad*%
%ADD17C,1.350000*%
%TD*%
%TA.AperFunction,ComponentPad*%
%ADD18R,1.800000X1.800000*%
%TD*%
%TA.AperFunction,ComponentPad*%
%ADD19C,1.800000*%
%TD*%
%TA.AperFunction,ComponentPad*%
%ADD20RoundRect,0.250000X-0.550000X-0.550000X0.550000X-0.550000X0.550000X0.550000X-0.550000X0.550000X0*%
%TD*%
%TA.AperFunction,ComponentPad*%
%ADD21RoundRect,0.250000X-0.825000X-0.825000X0.825000X-0.825000X0.825000X0.825000X-0.825000X0.825000X0*%
%TD*%
%TA.AperFunction,ComponentPad*%
%ADD22C,2.150000*%
%TD*%
%TA.AperFunction,ComponentPad*%
%ADD23R,1.700000X1.700000*%
%TD*%
%TA.AperFunction,ComponentPad*%
%ADD24C,1.700000*%
%TD*%
%TA.AperFunction,ComponentPad*%
%ADD25C,2.000000*%
%TD*%
G04 APERTURE END LIST*
D10*
D11*
X192721088Y-108178570D02*
X192721088Y-108892856D01*
X192721088Y-108892856D02*
X193435374Y-108964284D01*
X193435374Y-108964284D02*
X193363945Y-108892856D01*
X193363945Y-108892856D02*
X193292517Y-108749999D01*
X193292517Y-108749999D02*
X193292517Y-108392856D01*
X193292517Y-108392856D02*
X193363945Y-108249999D01*
X193363945Y-108249999D02*
X193435374Y-108178570D01*
X193435374Y-108178570D02*
X193578231Y-108107141D01*
X193578231Y-108107141D02*
X193935374Y-108107141D01*
X193935374Y-108107141D02*
X194078231Y-108178570D01*
X194078231Y-108178570D02*
X194149660Y-108249999D01*
X194149660Y-108249999D02*
X194221088Y-108392856D01*
X194221088Y-108392856D02*
X194221088Y-108749999D01*
X194221088Y-108749999D02*
X194149660Y-108892856D01*
X194149660Y-108892856D02*
X194078231Y-108964284D01*
X193221088Y-106821428D02*
X194221088Y-106821428D01*
X192649660Y-107178570D02*
X193721088Y-107535713D01*
X193721088Y-107535713D02*
X193721088Y-106607142D01*
X194078231Y-106035714D02*
X194149660Y-105964285D01*
X194149660Y-105964285D02*
X194221088Y-106035714D01*
X194221088Y-106035714D02*
X194149660Y-106107142D01*
X194149660Y-106107142D02*
X194078231Y-106035714D01*
X194078231Y-106035714D02*
X194221088Y-106035714D01*
X192721088Y-104607142D02*
X192721088Y-105321428D01*
X192721088Y-105321428D02*
X193435374Y-105392856D01*
X193435374Y-105392856D02*
X193363945Y-105321428D01*
X193363945Y-105321428D02*
X193292517Y-105178571D01*
X193292517Y-105178571D02*
X193292517Y-104821428D01*
X193292517Y-104821428D02*
X193363945Y-104678571D01*
X193363945Y-104678571D02*
X193435374Y-104607142D01*
X193435374Y-104607142D02*
X193578231Y-104535713D01*
X193578231Y-104535713D02*
X193935374Y-104535713D01*
X193935374Y-104535713D02*
X194078231Y-104607142D01*
X194078231Y-104607142D02*
X194149660Y-104678571D01*
X194149660Y-104678571D02*
X194221088Y-104821428D01*
X194221088Y-104821428D02*
X194221088Y-105178571D01*
X194221088Y-105178571D02*
X194149660Y-105321428D01*
X194149660Y-105321428D02*
X194078231Y-105392856D01*
D12*
X190842760Y-79500000D02*
X195929180Y-79500000D01*
X195929180Y-134000000D02*
X190842760Y-134000000D01*
X195342760Y-79500000D02*
X195342760Y-134000000D01*
X195342760Y-79500000D02*
X195929181Y-80626504D01*
X195342760Y-79500000D02*
X194756339Y-80626504D01*
X195342760Y-134000000D02*
X194756339Y-132873496D01*
X195342760Y-134000000D02*
X195929181Y-132873496D01*
D10*
D11*
X148985617Y-73021185D02*
X148842760Y-72949757D01*
X148842760Y-72949757D02*
X148771331Y-72878328D01*
X148771331Y-72878328D02*
X148699903Y-72735471D01*
X148699903Y-72735471D02*
X148699903Y-72664042D01*
X148699903Y-72664042D02*
X148771331Y-72521185D01*
X148771331Y-72521185D02*
X148842760Y-72449757D01*
X148842760Y-72449757D02*
X148985617Y-72378328D01*
X148985617Y-72378328D02*
X149271331Y-72378328D01*
X149271331Y-72378328D02*
X149414189Y-72449757D01*
X149414189Y-72449757D02*
X149485617Y-72521185D01*
X149485617Y-72521185D02*
X149557046Y-72664042D01*
X149557046Y-72664042D02*
X149557046Y-72735471D01*
X149557046Y-72735471D02*
X149485617Y-72878328D01*
X149485617Y-72878328D02*
X149414189Y-72949757D01*
X149414189Y-72949757D02*
X149271331Y-73021185D01*
X149271331Y-73021185D02*
X148985617Y-73021185D01*
X148985617Y-73021185D02*
X148842760Y-73092614D01*
X148842760Y-73092614D02*
X148771331Y-73164042D01*
X148771331Y-73164042D02*
X148699903Y-73306900D01*
X148699903Y-73306900D02*
X148699903Y-73592614D01*
X148699903Y-73592614D02*
X148771331Y-73735471D01*
X148771331Y-73735471D02*
X148842760Y-73806900D01*
X148842760Y-73806900D02*
X148985617Y-73878328D01*
X148985617Y-73878328D02*
X149271331Y-73878328D01*
X149271331Y-73878328D02*
X149414189Y-73806900D01*
X149414189Y-73806900D02*
X149485617Y-73735471D01*
X149485617Y-73735471D02*
X149557046Y-73592614D01*
X149557046Y-73592614D02*
X149557046Y-73306900D01*
X149557046Y-73306900D02*
X149485617Y-73164042D01*
X149485617Y-73164042D02*
X149414189Y-73092614D01*
X149414189Y-73092614D02*
X149271331Y-73021185D01*
X150985617Y-73878328D02*
X150128474Y-73878328D01*
X150557045Y-73878328D02*
X150557045Y-72378328D01*
X150557045Y-72378328D02*
X150414188Y-72592614D01*
X150414188Y-72592614D02*
X150271331Y-72735471D01*
X150271331Y-72735471D02*
X150128474Y-72806900D01*
D12*
X109342760Y-79000000D02*
X109342760Y-74413580D01*
X190342760Y-74413580D02*
X190342760Y-79000000D01*
X109342760Y-75000000D02*
X190342760Y-75000000D01*
X109342760Y-75000000D02*
X110469264Y-74413579D01*
X109342760Y-75000000D02*
X110469264Y-75586421D01*
X190342760Y-75000000D02*
X189216256Y-75586421D01*
X190342760Y-75000000D02*
X189216256Y-74413579D01*
D13*
%TO.P,R4,1*%
%TO.N,Net-(R4-Pad1)*%
X126273515Y-101667319D03*
%TO.P,R4,2*%
%TO.N,Net-(Q1-C)*%
X126273515Y-91507319D03*
%TD*%
D14*
%TO.P,U1,1*%
%TO.N,Net-(R4-Pad1)*%
X130032760Y-104690000D03*
D15*
%TO.P,U1,2*%
%TO.N,Net-(U1A--)*%
X130032760Y-107230000D03*
%TO.P,U1,3*%
%TO.N,Net-(Q1-C)*%
X130032760Y-109770000D03*
%TO.P,U1,4*%
%TO.N,GND*%
X130032760Y-112310000D03*
%TO.P,U1,5*%
%TO.N,N/C*%
X137652760Y-112310000D03*
%TO.P,U1,6*%
X137652760Y-109770000D03*
%TO.P,U1,7*%
X137652760Y-107230000D03*
%TO.P,U1,8*%
%TO.N,+3V3*%
X137652760Y-104690000D03*
%TD*%
D13*
%TO.P,R5,1*%
%TO.N,Net-(R4-Pad1)*%
X120393437Y-101663827D03*
%TO.P,R5,2*%
%TO.N,+3V3*%
X120393437Y-111823827D03*
%TD*%
D16*
%TO.P,Q2,1,C*%
%TO.N,Net-(Q2-C)*%
X176557714Y-98048091D03*
D17*
%TO.P,Q2,2,B*%
%TO.N,Net-(Q2-B)*%
X179097714Y-98048091D03*
%TO.P,Q2,3,E*%
%TO.N,GND*%
X181637714Y-98048091D03*
%TD*%
D18*
%TO.P,LD1,1,K*%
%TO.N,+5V In PCB*%
X120342760Y-83460000D03*
D19*
%TO.P,LD1,2,A*%
%TO.N,GND*%
X120342760Y-86000000D03*
%TD*%
D20*
%TO.P,SW2,1*%
%TO.N,Net-(SW2-Pad1)*%
X180222760Y-118681305D03*
D13*
%TO.P,SW2,2*%
%TO.N,Net-(SW2-Pad2)*%
X180222760Y-121221305D03*
%TO.P,SW2,3*%
%TO.N,Net-(SW2-Pad3)*%
X180222760Y-123761305D03*
%TO.P,SW2,4*%
%TO.N,Net-(SW2-Pad4)*%
X180222760Y-126301305D03*
%TO.P,SW2,5*%
%TO.N,Net-(SW2-Pad5)*%
X180222760Y-128841305D03*
%TO.P,SW2,6*%
%TO.N,+3V3*%
X187842760Y-128841305D03*
%TO.P,SW2,7*%
X187842760Y-126301305D03*
%TO.P,SW2,8*%
X187842760Y-123761305D03*
%TO.P,SW2,9*%
X187842760Y-121221305D03*
%TO.P,SW2,10*%
X187842760Y-118681305D03*
%TD*%
%TO.P,C2,1*%
%TO.N,Net-(Q1-C)*%
X126342760Y-107314499D03*
%TO.P,C2,2*%
%TO.N,GND*%
X126342760Y-112314499D03*
%TD*%
D21*
%TO.P,TP4056 w/ Step Up,1*%
%TO.N,Net-(R7-Pad1)*%
X129400000Y-83000000D03*
D22*
%TO.P,TP4056 w/ Step Up,2*%
%TO.N,+5V In PCB*%
X134000000Y-83000000D03*
%TO.P,TP4056 w/ Step Up,3*%
%TO.N,GND*%
X138600000Y-83000000D03*
%TD*%
D13*
%TO.P,C1,1*%
%TO.N,+3V3*%
X136342760Y-101000000D03*
%TO.P,C1,2*%
%TO.N,GND*%
X131342760Y-101000000D03*
%TD*%
%TO.P,R1,1*%
%TO.N,Net-(U1A--)*%
X140342760Y-120503094D03*
%TO.P,R1,2*%
%TO.N,GND*%
X130182760Y-120503094D03*
%TD*%
D23*
%TO.P, ,1*%
%TO.N,+5V In PCB*%
X171590000Y-83145000D03*
D24*
%TO.P, ,2*%
%TO.N,N/C*%
X171590000Y-85685000D03*
%TO.P, ,3*%
X171590000Y-88225000D03*
%TO.P, ,4*%
X171590000Y-90765000D03*
%TO.P, ,5*%
X171590000Y-93305000D03*
%TO.P, ,6*%
%TO.N,GND*%
X171590000Y-95845000D03*
%TO.P, ,7*%
%TO.N,N/C*%
X171590000Y-98385000D03*
%TO.P, ,8*%
X171590000Y-100925000D03*
%TO.P, ,9*%
%TO.N,Net-(SW2-Pad5)*%
X171590000Y-103465000D03*
%TO.P, ,10*%
%TO.N,Net-(SW2-Pad4)*%
X171590000Y-106005000D03*
%TO.P, ,11*%
%TO.N,Net-(SW2-Pad3)*%
X171590000Y-108545000D03*
%TO.P, ,12*%
%TO.N,N/C*%
X171590000Y-111085000D03*
%TO.P, ,13*%
X171590000Y-113625000D03*
%TO.P, ,14*%
%TO.N,Net-(R7-Pad2)*%
X171590000Y-116165000D03*
%TO.P, ,15*%
%TO.N,N/C*%
X171590000Y-118705000D03*
%TO.P, ,16*%
X171590000Y-121245000D03*
%TO.P, ,17*%
X171590000Y-123785000D03*
%TO.P, ,18*%
X171590000Y-126325000D03*
%TO.P, ,19*%
%TO.N,+3V3*%
X171590000Y-128865000D03*
%TD*%
D25*
%TO.P,LS1,N*%
%TO.N,Net-(Q2-C)*%
X182646828Y-91011089D03*
%TO.P,LS1,P*%
%TO.N,+5V In PCB*%
X182646828Y-83411089D03*
%TD*%
D13*
%TO.P,R7,1*%
%TO.N,Net-(R7-Pad1)*%
X177445867Y-103426864D03*
%TO.P,R7,2*%
%TO.N,Net-(R7-Pad2)*%
X177445867Y-113586864D03*
%TD*%
%TO.P,R8,1*%
%TO.N,Net-(R7-Pad2)*%
X180842760Y-113580000D03*
%TO.P,R8,2*%
%TO.N,GND*%
X180842760Y-103420000D03*
%TD*%
%TO.P,R6,1*%
%TO.N,Net-(Q2-B)*%
X185289530Y-96339067D03*
%TO.P,R6,2*%
%TO.N,Net-(R6-Pad2)*%
X185289530Y-106499067D03*
%TD*%
D18*
%TO.P,Q1,1,C*%
%TO.N,Net-(Q1-C)*%
X120342760Y-91500000D03*
D19*
%TO.P,Q1,2,E*%
%TO.N,GND*%
X120342760Y-94040000D03*
%TD*%
D13*
%TO.P,R3,1*%
%TO.N,Net-(Q1-C)*%
X140842760Y-94500000D03*
%TO.P,R3,2*%
%TO.N,+3V3*%
X140842760Y-104660000D03*
%TD*%
D23*
%TO.P, ,1*%
%TO.N,N/C*%
X146592760Y-83000000D03*
D24*
%TO.P, ,2*%
X146592760Y-85540000D03*
%TO.P, ,3*%
X146592760Y-88080000D03*
%TO.P, ,4*%
X146592760Y-90620000D03*
%TO.P, ,5*%
X146592760Y-93160000D03*
%TO.P, ,6*%
X146592760Y-95700000D03*
%TO.P, ,7*%
X146592760Y-98240000D03*
%TO.P, ,8*%
X146592760Y-100780000D03*
%TO.P, ,9*%
X146592760Y-103320000D03*
%TO.P, ,10*%
X146592760Y-105860000D03*
%TO.P, ,11*%
X146592760Y-108400000D03*
%TO.P, ,12*%
%TO.N,Net-(R6-Pad2)*%
X146592760Y-110940000D03*
%TO.P, ,13*%
%TO.N,GND*%
X146592760Y-113480000D03*
%TO.P, ,14*%
%TO.N,Net-(R4-Pad1)*%
X146592760Y-116020000D03*
%TO.P, ,15*%
%TO.N,N/C*%
X146592760Y-118560000D03*
%TO.P, ,16*%
X146592760Y-121100000D03*
%TO.P, ,17*%
%TO.N,Net-(SW2-Pad1)*%
X146592760Y-123640000D03*
%TO.P, ,18*%
%TO.N,Net-(SW2-Pad2)*%
X146592760Y-126180000D03*
%TO.P, ,19*%
%TO.N,GND*%
X146592760Y-128720000D03*
%TD*%
D13*
%TO.P,R2,1*%
%TO.N,Net-(U1A--)*%
X140342760Y-124503094D03*
%TO.P,R2,2*%
%TO.N,+3V3*%
X130182760Y-124503094D03*
%TD*%
%TA.AperFunction,Conductor*%
%TO.N,GND*%
G36*
X189785299Y-80020185D02*
G01*
X189831054Y-80072989D01*
X189842260Y-80124500D01*
X189842260Y-133375500D01*
X189822575Y-133442539D01*
X189769771Y-133488294D01*
X189718260Y-133499500D01*
X109967260Y-133499500D01*
X109900221Y-133479815D01*
X109854466Y-133427011D01*
X109843260Y-133375500D01*
X109843260Y-124400742D01*
X128882260Y-124400742D01*
X128882260Y-124605445D01*
X128914282Y-124807628D01*
X128977541Y-125002317D01*
X129024163Y-125093816D01*
X129052737Y-125149896D01*
X129070475Y-125184707D01*
X129190788Y-125350307D01*
X129335546Y-125495065D01*
X129490509Y-125607650D01*
X129501150Y-125615381D01*
X129617367Y-125674597D01*
X129683536Y-125708312D01*
X129683538Y-125708312D01*
X129683541Y-125708314D01*
X129787897Y-125742221D01*
X129878225Y-125771571D01*
X129979317Y-125787582D01*
X130080408Y-125803594D01*
X130080409Y-125803594D01*
X130285111Y-125803594D01*
X130285112Y-125803594D01*
X130487294Y-125771571D01*
X130681979Y-125708314D01*
X130864370Y-125615381D01*
X130957350Y-125547826D01*
X131029973Y-125495065D01*
X131029975Y-125495062D01*
X131029979Y-125495060D01*
X131174726Y-125350313D01*
X131174728Y-125350309D01*
X131174731Y-125350307D01*
X131227492Y-125277684D01*
X131295047Y-125184704D01*
X131387980Y-125002313D01*
X131451237Y-124807628D01*
X131483260Y-124605446D01*
X131483260Y-124400742D01*
X139042260Y-124400742D01*
X139042260Y-124605445D01*
X139074282Y-124807628D01*
X139137541Y-125002317D01*
X139184163Y-125093816D01*
X139212737Y-125149896D01*
X139230475Y-125184707D01*
X139350788Y-125350307D01*
X139495546Y-125495065D01*
X139650509Y-125607650D01*
X139661150Y-125615381D01*
X139777367Y-125674597D01*
X139843536Y-125708312D01*
X139843538Y-125708312D01*
X139843541Y-125708314D01*
X139947897Y-125742221D01*
X140038225Y-125771571D01*
X140139317Y-125787582D01*
X140240408Y-125803594D01*
X140240409Y-125803594D01*
X140445111Y-125803594D01*
X140445112Y-125803594D01*
X140647294Y-125771571D01*
X140841979Y-125708314D01*
X141024370Y-125615381D01*
X141117350Y-125547826D01*
X141189973Y-125495065D01*
X141189975Y-125495062D01*
X141189979Y-125495060D01*
X141334726Y-125350313D01*
X141334728Y-125350309D01*
X141334731Y-125350307D01*
X141387492Y-125277684D01*
X141455047Y-125184704D01*
X141547980Y-125002313D01*
X141611237Y-124807628D01*
X141643260Y-124605446D01*
X141643260Y-124400742D01*
X141611237Y-124198560D01*
X141547980Y-124003875D01*
X141547978Y-124003872D01*
X141547978Y-124003870D01*
X141476535Y-123863657D01*
X141455047Y-123821484D01*
X141400413Y-123746286D01*
X141334731Y-123655880D01*
X141189973Y-123511122D01*
X141024373Y-123390809D01*
X141024372Y-123390808D01*
X141024370Y-123390807D01*
X140967413Y-123361785D01*
X140841983Y-123297875D01*
X140647294Y-123234616D01*
X140472755Y-123206972D01*
X140445112Y-123202594D01*
X140240408Y-123202594D01*
X140216089Y-123206445D01*
X140038225Y-123234616D01*
X139843536Y-123297875D01*
X139661146Y-123390809D01*
X139495546Y-123511122D01*
X139350788Y-123655880D01*
X139230475Y-123821480D01*
X139137541Y-124003870D01*
X139074282Y-124198559D01*
X139042260Y-124400742D01*
X131483260Y-124400742D01*
X131451237Y-124198560D01*
X131387980Y-124003875D01*
X131387978Y-124003872D01*
X131387978Y-124003870D01*
X131316535Y-123863657D01*
X131295047Y-123821484D01*
X131240413Y-123746286D01*
X131174731Y-123655880D01*
X131029973Y-123511122D01*
X130864373Y-123390809D01*
X130864372Y-123390808D01*
X130864370Y-123390807D01*
X130807413Y-123361785D01*
X130681983Y-123297875D01*
X130487294Y-123234616D01*
X130312755Y-123206972D01*
X130285112Y-123202594D01*
X130080408Y-123202594D01*
X130056089Y-123206445D01*
X129878225Y-123234616D01*
X129683536Y-123297875D01*
X129501146Y-123390809D01*
X129335546Y-123511122D01*
X129190788Y-123655880D01*
X129070475Y-123821480D01*
X128977541Y-124003870D01*
X128914282Y-124198559D01*
X128882260Y-124400742D01*
X109843260Y-124400742D01*
X109843260Y-120400776D01*
X128882760Y-120400776D01*
X128882760Y-120605411D01*
X128914769Y-120807511D01*
X128978004Y-121002125D01*
X129070901Y-121184444D01*
X129070907Y-121184453D01*
X129103283Y-121229015D01*
X129103284Y-121229016D01*
X129782760Y-120549540D01*
X129782760Y-120555755D01*
X129810019Y-120657488D01*
X129862680Y-120748700D01*
X129937154Y-120823174D01*
X130028366Y-120875835D01*
X130130099Y-120903094D01*
X130136313Y-120903094D01*
X129456836Y-121582568D01*
X129501410Y-121614953D01*
X129683728Y-121707849D01*
X129878342Y-121771084D01*
X130080443Y-121803094D01*
X130285077Y-121803094D01*
X130487177Y-121771084D01*
X130681791Y-121707849D01*
X130864109Y-121614953D01*
X130908681Y-121582568D01*
X130229207Y-120903094D01*
X130235421Y-120903094D01*
X130337154Y-120875835D01*
X130428366Y-120823174D01*
X130502840Y-120748700D01*
X130555501Y-120657488D01*
X130582760Y-120555755D01*
X130582760Y-120549541D01*
X131262234Y-121229015D01*
X131294619Y-121184443D01*
X131387515Y-121002125D01*
X131450750Y-120807511D01*
X131482760Y-120605411D01*
X131482760Y-120400776D01*
X131482755Y-120400742D01*
X139042260Y-120400742D01*
X139042260Y-120605445D01*
X139074282Y-120807628D01*
X139137541Y-121002317D01*
X139196971Y-121118953D01*
X139230345Y-121184453D01*
X139230475Y-121184707D01*
X139350788Y-121350307D01*
X139495546Y-121495065D01*
X139615986Y-121582568D01*
X139661150Y-121615381D01*
X139777367Y-121674597D01*
X139843536Y-121708312D01*
X139843538Y-121708312D01*
X139843541Y-121708314D01*
X139947897Y-121742221D01*
X140038225Y-121771571D01*
X140139317Y-121787582D01*
X140240408Y-121803594D01*
X140240409Y-121803594D01*
X140445111Y-121803594D01*
X140445112Y-121803594D01*
X140647294Y-121771571D01*
X140841979Y-121708314D01*
X141024370Y-121615381D01*
X141147615Y-121525839D01*
X141189973Y-121495065D01*
X141189975Y-121495062D01*
X141189979Y-121495060D01*
X141334726Y-121350313D01*
X141334728Y-121350309D01*
X141334731Y-121350307D01*
X141387492Y-121277684D01*
X141455047Y-121184704D01*
X141547980Y-121002313D01*
X141611237Y-120807628D01*
X141643260Y-120605446D01*
X141643260Y-120400742D01*
X141635017Y-120348700D01*
X141611237Y-120198559D01*
X141574496Y-120085484D01*
X141547980Y-120003875D01*
X141547978Y-120003872D01*
X141547978Y-120003870D01*
X141495790Y-119901447D01*
X141455047Y-119821484D01*
X141447316Y-119810843D01*
X141334731Y-119655880D01*
X141189973Y-119511122D01*
X141024373Y-119390809D01*
X141024372Y-119390808D01*
X141024370Y-119390807D01*
X140967413Y-119361785D01*
X140841983Y-119297875D01*
X140647294Y-119234616D01*
X140472755Y-119206972D01*
X140445112Y-119202594D01*
X140240408Y-119202594D01*
X140216089Y-119206445D01*
X140038225Y-119234616D01*
X139843536Y-119297875D01*
X139661146Y-119390809D01*
X139495546Y-119511122D01*
X139350788Y-119655880D01*
X139230475Y-119821480D01*
X139137541Y-120003870D01*
X139074282Y-120198559D01*
X139042260Y-120400742D01*
X131482755Y-120400742D01*
X131450750Y-120198676D01*
X131387515Y-120004062D01*
X131294619Y-119821744D01*
X131262234Y-119777171D01*
X131262234Y-119777170D01*
X130582760Y-120456645D01*
X130582760Y-120450433D01*
X130555501Y-120348700D01*
X130502840Y-120257488D01*
X130428366Y-120183014D01*
X130337154Y-120130353D01*
X130235421Y-120103094D01*
X130229206Y-120103094D01*
X130908682Y-119423618D01*
X130908681Y-119423617D01*
X130864119Y-119391241D01*
X130864110Y-119391235D01*
X130681791Y-119298338D01*
X130487177Y-119235103D01*
X130285077Y-119203094D01*
X130080443Y-119203094D01*
X129878342Y-119235103D01*
X129683728Y-119298338D01*
X129501404Y-119391237D01*
X129456837Y-119423617D01*
X129456837Y-119423618D01*
X130136314Y-120103094D01*
X130130099Y-120103094D01*
X130028366Y-120130353D01*
X129937154Y-120183014D01*
X129862680Y-120257488D01*
X129810019Y-120348700D01*
X129782760Y-120450433D01*
X129782760Y-120456647D01*
X129103284Y-119777171D01*
X129103283Y-119777171D01*
X129070903Y-119821738D01*
X128978004Y-120004062D01*
X128914769Y-120198676D01*
X128882760Y-120400776D01*
X109843260Y-120400776D01*
X109843260Y-116393713D01*
X111992260Y-116393713D01*
X111992260Y-116606286D01*
X112025513Y-116816239D01*
X112091204Y-117018414D01*
X112187711Y-117207820D01*
X112312650Y-117379786D01*
X112462973Y-117530109D01*
X112634939Y-117655048D01*
X112634941Y-117655049D01*
X112634944Y-117655051D01*
X112824348Y-117751557D01*
X113026517Y-117817246D01*
X113236473Y-117850500D01*
X113236474Y-117850500D01*
X113449046Y-117850500D01*
X113449047Y-117850500D01*
X113659003Y-117817246D01*
X113861172Y-117751557D01*
X114050576Y-117655051D01*
X114072549Y-117639086D01*
X114222546Y-117530109D01*
X114222548Y-117530106D01*
X114222552Y-117530104D01*
X114372864Y-117379792D01*
X114372866Y-117379788D01*
X114372869Y-117379786D01*
X114497808Y-117207820D01*
X114497807Y-117207820D01*
X114497811Y-117207816D01*
X114594317Y-117018412D01*
X114660006Y-116816243D01*
X114693260Y-116606287D01*
X114693260Y-116393713D01*
X114660006Y-116183757D01*
X114594317Y-115981588D01*
X114497811Y-115792184D01*
X114497809Y-115792181D01*
X114497808Y-115792179D01*
X114372869Y-115620213D01*
X114222546Y-115469890D01*
X114050580Y-115344951D01*
X113861174Y-115248444D01*
X113861173Y-115248443D01*
X113861172Y-115248443D01*
X113659003Y-115182754D01*
X113659001Y-115182753D01*
X113659000Y-115182753D01*
X113497717Y-115157208D01*
X113449047Y-115149500D01*
X113236473Y-115149500D01*
X113187802Y-115157208D01*
X113026520Y-115182753D01*
X112824345Y-115248444D01*
X112634939Y-115344951D01*
X112462973Y-115469890D01*
X112312650Y-115620213D01*
X112187711Y-115792179D01*
X112091204Y-115981585D01*
X112025513Y-116183760D01*
X111992260Y-116393713D01*
X109843260Y-116393713D01*
X109843260Y-111721475D01*
X119092937Y-111721475D01*
X119092937Y-111926178D01*
X119124959Y-112128361D01*
X119188218Y-112323050D01*
X119281152Y-112505440D01*
X119401465Y-112671040D01*
X119546223Y-112815798D01*
X119685765Y-112917179D01*
X119711827Y-112936114D01*
X119797958Y-112980000D01*
X119894213Y-113029045D01*
X119894215Y-113029045D01*
X119894218Y-113029047D01*
X119929224Y-113040421D01*
X120088902Y-113092304D01*
X120179068Y-113106585D01*
X120291085Y-113124327D01*
X120291086Y-113124327D01*
X120495788Y-113124327D01*
X120495789Y-113124327D01*
X120697971Y-113092304D01*
X120892656Y-113029047D01*
X121075047Y-112936114D01*
X121168027Y-112868559D01*
X121240650Y-112815798D01*
X121240652Y-112815795D01*
X121240656Y-112815793D01*
X121385403Y-112671046D01*
X121385405Y-112671042D01*
X121385408Y-112671040D01*
X121445719Y-112588028D01*
X121505724Y-112505437D01*
X121598657Y-112323046D01*
X121634679Y-112212181D01*
X125042760Y-112212181D01*
X125042760Y-112416816D01*
X125074769Y-112618916D01*
X125138004Y-112813530D01*
X125230901Y-112995849D01*
X125230907Y-112995858D01*
X125263283Y-113040420D01*
X125263284Y-113040421D01*
X125942760Y-112360945D01*
X125942760Y-112367160D01*
X125970019Y-112468893D01*
X126022680Y-112560105D01*
X126097154Y-112634579D01*
X126188366Y-112687240D01*
X126290099Y-112714499D01*
X126296313Y-112714499D01*
X125616836Y-113393973D01*
X125661410Y-113426358D01*
X125843728Y-113519254D01*
X126038342Y-113582489D01*
X126240443Y-113614499D01*
X126445077Y-113614499D01*
X126647177Y-113582489D01*
X126841791Y-113519254D01*
X127024109Y-113426358D01*
X127068682Y-113393973D01*
X126389207Y-112714499D01*
X126395421Y-112714499D01*
X126497154Y-112687240D01*
X126588366Y-112634579D01*
X126662840Y-112560105D01*
X126715501Y-112468893D01*
X126742760Y-112367160D01*
X126742760Y-112360946D01*
X127422234Y-113040420D01*
X127454619Y-112995848D01*
X127547515Y-112813530D01*
X127610750Y-112618916D01*
X127642760Y-112416816D01*
X127642760Y-112212184D01*
X127642759Y-112212178D01*
X127610750Y-112010081D01*
X127547515Y-111815467D01*
X127454619Y-111633149D01*
X127422234Y-111588576D01*
X127422234Y-111588575D01*
X126742760Y-112268050D01*
X126742760Y-112261838D01*
X126715501Y-112160105D01*
X126662840Y-112068893D01*
X126588366Y-111994419D01*
X126497154Y-111941758D01*
X126395421Y-111914499D01*
X126389206Y-111914499D01*
X127068682Y-111235023D01*
X127068681Y-111235022D01*
X127024119Y-111202646D01*
X127024110Y-111202640D01*
X126841791Y-111109743D01*
X126647177Y-111046508D01*
X126445077Y-111014499D01*
X126240443Y-111014499D01*
X126038342Y-111046508D01*
X125843728Y-111109743D01*
X125661404Y-111202642D01*
X125616837Y-111235022D01*
X125616837Y-111235023D01*
X126296314Y-111914499D01*
X126290099Y-111914499D01*
X126188366Y-111941758D01*
X126097154Y-111994419D01*
X126022680Y-112068893D01*
X125970019Y-112160105D01*
X125942760Y-112261838D01*
X125942760Y-112268052D01*
X125263284Y-111588576D01*
X125263283Y-111588576D01*
X125230903Y-111633143D01*
X125138004Y-111815467D01*
X125074769Y-112010081D01*
X125042760Y-112212181D01*
X121634679Y-112212181D01*
X121661914Y-112128361D01*
X121693937Y-111926179D01*
X121693937Y-111721475D01*
X121667844Y-111556730D01*
X121661914Y-111519292D01*
X121642133Y-111458414D01*
X121598657Y-111324608D01*
X121505724Y-111142217D01*
X121497993Y-111131576D01*
X121385408Y-110976613D01*
X121240650Y-110831855D01*
X121075050Y-110711542D01*
X121075049Y-110711541D01*
X121075047Y-110711540D01*
X121018090Y-110682518D01*
X120892660Y-110618608D01*
X120697971Y-110555349D01*
X120523432Y-110527705D01*
X120495789Y-110523327D01*
X120291085Y-110523327D01*
X120266766Y-110527178D01*
X120088902Y-110555349D01*
X119894213Y-110618608D01*
X119711823Y-110711542D01*
X119546223Y-110831855D01*
X119401465Y-110976613D01*
X119281152Y-111142213D01*
X119188218Y-111324603D01*
X119124959Y-111519292D01*
X119092937Y-111721475D01*
X109843260Y-111721475D01*
X109843260Y-107212147D01*
X125042260Y-107212147D01*
X125042260Y-107416850D01*
X125074282Y-107619033D01*
X125137541Y-107813722D01*
X125230475Y-107996112D01*
X125350788Y-108161712D01*
X125495546Y-108306470D01*
X125650509Y-108419055D01*
X125661150Y-108426786D01*
X125747183Y-108470622D01*
X125843536Y-108519717D01*
X125843538Y-108519717D01*
X125843541Y-108519719D01*
X125947897Y-108553626D01*
X126038225Y-108582976D01*
X126139317Y-108598987D01*
X126240408Y-108614999D01*
X126240409Y-108614999D01*
X126445111Y-108614999D01*
X126445112Y-108614999D01*
X126647294Y-108582976D01*
X126841979Y-108519719D01*
X127024370Y-108426786D01*
X127117350Y-108359231D01*
X127189973Y-108306470D01*
X127189975Y-108306467D01*
X127189979Y-108306465D01*
X127334726Y-108161718D01*
X127334728Y-108161714D01*
X127334731Y-108161712D01*
X127391365Y-108083760D01*
X127455047Y-107996109D01*
X127547980Y-107813718D01*
X127611237Y-107619033D01*
X127643260Y-107416851D01*
X127643260Y-107212147D01*
X127618933Y-107058556D01*
X127611237Y-107009964D01*
X127547978Y-106815275D01*
X127495772Y-106712816D01*
X127455047Y-106632889D01*
X127407772Y-106567820D01*
X127334731Y-106467285D01*
X127189973Y-106322527D01*
X127024373Y-106202214D01*
X127024372Y-106202213D01*
X127024370Y-106202212D01*
X126957072Y-106167922D01*
X126841983Y-106109280D01*
X126647294Y-106046021D01*
X126472755Y-106018377D01*
X126445112Y-106013999D01*
X126240408Y-106013999D01*
X126216089Y-106017850D01*
X126038225Y-106046021D01*
X125843536Y-106109280D01*
X125661146Y-106202214D01*
X125495546Y-106322527D01*
X125350788Y-106467285D01*
X125230475Y-106632885D01*
X125137541Y-106815275D01*
X125074282Y-107009964D01*
X125042260Y-107212147D01*
X109843260Y-107212147D01*
X109843260Y-103803935D01*
X128694060Y-103803935D01*
X128694060Y-105576070D01*
X128694061Y-105576076D01*
X128700468Y-105635683D01*
X128750762Y-105770528D01*
X128750766Y-105770535D01*
X128837012Y-105885744D01*
X128837015Y-105885747D01*
X128952224Y-105971993D01*
X128952231Y-105971997D01*
X129094345Y-106025002D01*
X129093293Y-106027821D01*
X129141809Y-106055413D01*
X129174228Y-106117307D01*
X129168038Y-106186902D01*
X129140306Y-106229245D01*
X129011649Y-106357902D01*
X128887803Y-106528364D01*
X128792139Y-106716112D01*
X128727022Y-106916519D01*
X128694060Y-107124636D01*
X128694060Y-107335363D01*
X128727022Y-107543480D01*
X128792139Y-107743887D01*
X128887803Y-107931635D01*
X129011650Y-108102099D01*
X129160660Y-108251109D01*
X129331126Y-108374958D01*
X129359696Y-108389516D01*
X129410492Y-108437491D01*
X129427286Y-108505312D01*
X129404748Y-108571447D01*
X129359696Y-108610484D01*
X129331126Y-108625041D01*
X129160660Y-108748890D01*
X129011650Y-108897900D01*
X128887803Y-109068364D01*
X128792139Y-109256112D01*
X128727022Y-109456519D01*
X128694060Y-109664636D01*
X128694060Y-109875363D01*
X128727022Y-110083480D01*
X128792139Y-110283887D01*
X128887803Y-110471635D01*
X129011650Y-110642099D01*
X129160660Y-110791109D01*
X129331126Y-110914958D01*
X129360245Y-110929795D01*
X129411042Y-110977769D01*
X129427837Y-111045590D01*
X129405300Y-111111725D01*
X129360249Y-111150763D01*
X129331397Y-111165464D01*
X129331396Y-111165465D01*
X129279490Y-111203176D01*
X129855340Y-111779026D01*
X129817071Y-111789281D01*
X129689649Y-111862849D01*
X129585609Y-111966889D01*
X129512041Y-112094311D01*
X129501786Y-112132580D01*
X128925936Y-111556730D01*
X128888227Y-111608633D01*
X128792599Y-111796311D01*
X128727511Y-111996635D01*
X128694560Y-112204681D01*
X128694560Y-112415318D01*
X128727511Y-112623364D01*
X128792599Y-112823688D01*
X128888229Y-113011370D01*
X128925936Y-113063268D01*
X128925937Y-113063269D01*
X129501786Y-112487419D01*
X129512041Y-112525689D01*
X129585609Y-112653111D01*
X129689649Y-112757151D01*
X129817071Y-112830719D01*
X129855340Y-112840973D01*
X129279489Y-113416822D01*
X129279490Y-113416823D01*
X129331384Y-113454526D01*
X129331397Y-113454534D01*
X129519071Y-113550160D01*
X129719395Y-113615248D01*
X129927442Y-113648200D01*
X130138078Y-113648200D01*
X130346124Y-113615248D01*
X130546448Y-113550160D01*
X130734130Y-113454530D01*
X130786028Y-113416823D01*
X130786028Y-113416822D01*
X130210179Y-112840973D01*
X130248449Y-112830719D01*
X130375871Y-112757151D01*
X130479911Y-112653111D01*
X130553479Y-112525689D01*
X130563733Y-112487419D01*
X131139582Y-113063268D01*
X131139583Y-113063268D01*
X131177290Y-113011370D01*
X131272920Y-112823688D01*
X131338008Y-112623364D01*
X131370960Y-112415318D01*
X131370960Y-112204681D01*
X131338008Y-111996635D01*
X131272920Y-111796311D01*
X131177294Y-111608637D01*
X131177286Y-111608624D01*
X131139583Y-111556730D01*
X131139582Y-111556729D01*
X130563732Y-112132579D01*
X130553479Y-112094311D01*
X130479911Y-111966889D01*
X130375871Y-111862849D01*
X130248449Y-111789281D01*
X130210179Y-111779026D01*
X130786029Y-111203177D01*
X130786028Y-111203176D01*
X130734130Y-111165469D01*
X130705271Y-111150764D01*
X130654476Y-111102788D01*
X130637682Y-111034967D01*
X130660221Y-110968833D01*
X130705272Y-110929796D01*
X130734392Y-110914959D01*
X130756173Y-110899134D01*
X130904859Y-110791109D01*
X130904861Y-110791106D01*
X130904865Y-110791104D01*
X131053864Y-110642105D01*
X131053866Y-110642101D01*
X131053869Y-110642099D01*
X131116895Y-110555349D01*
X131177719Y-110471632D01*
X131273382Y-110283883D01*
X131338497Y-110083480D01*
X131343025Y-110054890D01*
X131371460Y-109875363D01*
X131371460Y-109664636D01*
X131338497Y-109456519D01*
X131281074Y-109279792D01*
X131273382Y-109256117D01*
X131273380Y-109256114D01*
X131273380Y-109256112D01*
X131238674Y-109188000D01*
X131177719Y-109068368D01*
X131169761Y-109057415D01*
X131053869Y-108897900D01*
X130904859Y-108748890D01*
X130734396Y-108625043D01*
X130705824Y-108610485D01*
X130655028Y-108562510D01*
X130638233Y-108494689D01*
X130660770Y-108428554D01*
X130705824Y-108389515D01*
X130734392Y-108374959D01*
X130828667Y-108306465D01*
X130904859Y-108251109D01*
X130904861Y-108251106D01*
X130904865Y-108251104D01*
X131053864Y-108102105D01*
X131053866Y-108102101D01*
X131053869Y-108102099D01*
X131130874Y-107996109D01*
X131177719Y-107931632D01*
X131273382Y-107743883D01*
X131338497Y-107543480D01*
X131358553Y-107416851D01*
X131371460Y-107335363D01*
X131371460Y-107124636D01*
X131338497Y-106916519D01*
X131281074Y-106739792D01*
X131273382Y-106716117D01*
X131273380Y-106716114D01*
X131273380Y-106716112D01*
X131214940Y-106601418D01*
X131177719Y-106528368D01*
X131133340Y-106467285D01*
X131053869Y-106357900D01*
X130925214Y-106229245D01*
X130891729Y-106167922D01*
X130896713Y-106098230D01*
X130938585Y-106042297D01*
X130971833Y-106026766D01*
X130971175Y-106025002D01*
X131113288Y-105971997D01*
X131113287Y-105971997D01*
X131113291Y-105971996D01*
X131228506Y-105885746D01*
X131314756Y-105770531D01*
X131365051Y-105635683D01*
X131371460Y-105576073D01*
X131371459Y-104584636D01*
X136314060Y-104584636D01*
X136314060Y-104795363D01*
X136347022Y-105003480D01*
X136412139Y-105203887D01*
X136459677Y-105297184D01*
X136482313Y-105341610D01*
X136507803Y-105391635D01*
X136631650Y-105562099D01*
X136780660Y-105711109D01*
X136951126Y-105834958D01*
X136979696Y-105849516D01*
X137030492Y-105897491D01*
X137047286Y-105965312D01*
X137024748Y-106031447D01*
X136979696Y-106070484D01*
X136951126Y-106085041D01*
X136780660Y-106208890D01*
X136631650Y-106357900D01*
X136507803Y-106528364D01*
X136412139Y-106716112D01*
X136347022Y-106916519D01*
X136314060Y-107124636D01*
X136314060Y-107335363D01*
X136347022Y-107543480D01*
X136412139Y-107743887D01*
X136507803Y-107931635D01*
X136631650Y-108102099D01*
X136780660Y-108251109D01*
X136951126Y-108374958D01*
X136979696Y-108389516D01*
X137030492Y-108437491D01*
X137047286Y-108505312D01*
X137024748Y-108571447D01*
X136979696Y-108610484D01*
X136951126Y-108625041D01*
X136780660Y-108748890D01*
X136631650Y-108897900D01*
X136507803Y-109068364D01*
X136412139Y-109256112D01*
X136347022Y-109456519D01*
X136314060Y-109664636D01*
X136314060Y-109875363D01*
X136347022Y-110083480D01*
X136412139Y-110283887D01*
X136507803Y-110471635D01*
X136631650Y-110642099D01*
X136780660Y-110791109D01*
X136951126Y-110914958D01*
X136979696Y-110929516D01*
X137030492Y-110977491D01*
X137047286Y-111045312D01*
X137024748Y-111111447D01*
X136979696Y-111150484D01*
X136951126Y-111165041D01*
X136780660Y-111288890D01*
X136631650Y-111437900D01*
X136507803Y-111608364D01*
X136412139Y-111796112D01*
X136347022Y-111996519D01*
X136314060Y-112204636D01*
X136314060Y-112415363D01*
X136347022Y-112623480D01*
X136412139Y-112823887D01*
X136507803Y-113011635D01*
X136631650Y-113182099D01*
X136780660Y-113331109D01*
X136940175Y-113447001D01*
X136951128Y-113454959D01*
X137037634Y-113499036D01*
X137138872Y-113550620D01*
X137138874Y-113550620D01*
X137138877Y-113550622D01*
X137236953Y-113582489D01*
X137339279Y-113615737D01*
X137547397Y-113648700D01*
X137547402Y-113648700D01*
X137758123Y-113648700D01*
X137966240Y-113615737D01*
X137970050Y-113614499D01*
X138166643Y-113550622D01*
X138354392Y-113454959D01*
X138466163Y-113373753D01*
X138524859Y-113331109D01*
X138524861Y-113331106D01*
X138524865Y-113331104D01*
X138673864Y-113182105D01*
X138673866Y-113182101D01*
X138673869Y-113182099D01*
X138742496Y-113087640D01*
X138797719Y-113011632D01*
X138893382Y-112823883D01*
X138958497Y-112623480D01*
X138968535Y-112560105D01*
X138991460Y-112415363D01*
X138991460Y-112204636D01*
X138958497Y-111996519D01*
X138928285Y-111903538D01*
X138893382Y-111796117D01*
X138893380Y-111796114D01*
X138893380Y-111796112D01*
X138855350Y-111721475D01*
X138797719Y-111608368D01*
X138760202Y-111556730D01*
X138673869Y-111437900D01*
X138524859Y-111288890D01*
X138354396Y-111165043D01*
X138325824Y-111150485D01*
X138275028Y-111102510D01*
X138258233Y-111034689D01*
X138280770Y-110968554D01*
X138325824Y-110929515D01*
X138354392Y-110914959D01*
X138376173Y-110899134D01*
X138524859Y-110791109D01*
X138524861Y-110791106D01*
X138524865Y-110791104D01*
X138673864Y-110642105D01*
X138673866Y-110642101D01*
X138673869Y-110642099D01*
X138736895Y-110555349D01*
X138797719Y-110471632D01*
X138893382Y-110283883D01*
X138958497Y-110083480D01*
X138963025Y-110054890D01*
X138991460Y-109875363D01*
X138991460Y-109664636D01*
X138958497Y-109456519D01*
X138901074Y-109279792D01*
X138893382Y-109256117D01*
X138893380Y-109256114D01*
X138893380Y-109256112D01*
X138858674Y-109188000D01*
X138797719Y-109068368D01*
X138789761Y-109057415D01*
X138673869Y-108897900D01*
X138524859Y-108748890D01*
X138354396Y-108625043D01*
X138325824Y-108610485D01*
X138275028Y-108562510D01*
X138258233Y-108494689D01*
X138280770Y-108428554D01*
X138325824Y-108389515D01*
X138354392Y-108374959D01*
X138448667Y-108306465D01*
X138524859Y-108251109D01*
X138524861Y-108251106D01*
X138524865Y-108251104D01*
X138673864Y-108102105D01*
X138673866Y-108102101D01*
X138673869Y-108102099D01*
X138750874Y-107996109D01*
X138797719Y-107931632D01*
X138893382Y-107743883D01*
X138958497Y-107543480D01*
X138978553Y-107416851D01*
X138991460Y-107335363D01*
X138991460Y-107124636D01*
X138958497Y-106916519D01*
X138901074Y-106739792D01*
X138893382Y-106716117D01*
X138893380Y-106716114D01*
X138893380Y-106716112D01*
X138834940Y-106601418D01*
X138797719Y-106528368D01*
X138753340Y-106467285D01*
X138673869Y-106357900D01*
X138524859Y-106208890D01*
X138354396Y-106085043D01*
X138325824Y-106070485D01*
X138275028Y-106022510D01*
X138258233Y-105954689D01*
X138280770Y-105888554D01*
X138325824Y-105849515D01*
X138354392Y-105834959D01*
X138378487Y-105817453D01*
X138524859Y-105711109D01*
X138524861Y-105711106D01*
X138524865Y-105711104D01*
X138673864Y-105562105D01*
X138673866Y-105562101D01*
X138673869Y-105562099D01*
X138728732Y-105486585D01*
X138797719Y-105391632D01*
X138893382Y-105203883D01*
X138958497Y-105003480D01*
X138963025Y-104974890D01*
X138991460Y-104795363D01*
X138991460Y-104584637D01*
X138989486Y-104572175D01*
X138989486Y-104572174D01*
X138987185Y-104557648D01*
X139542260Y-104557648D01*
X139542260Y-104762351D01*
X139574282Y-104964534D01*
X139637541Y-105159223D01*
X139673905Y-105230590D01*
X139730460Y-105341585D01*
X139730475Y-105341613D01*
X139850788Y-105507213D01*
X139995546Y-105651971D01*
X140135585Y-105753713D01*
X140161150Y-105772287D01*
X140249801Y-105817457D01*
X140343536Y-105865218D01*
X140343538Y-105865218D01*
X140343541Y-105865220D01*
X140406714Y-105885746D01*
X140538225Y-105928477D01*
X140639317Y-105944488D01*
X140740408Y-105960500D01*
X140740409Y-105960500D01*
X140945111Y-105960500D01*
X140945112Y-105960500D01*
X141147294Y-105928477D01*
X141341979Y-105865220D01*
X141524370Y-105772287D01*
X141639340Y-105688757D01*
X141689973Y-105651971D01*
X141689975Y-105651968D01*
X141689979Y-105651966D01*
X141834726Y-105507219D01*
X141834728Y-105507215D01*
X141834731Y-105507213D01*
X141918704Y-105391632D01*
X141955047Y-105341610D01*
X142047980Y-105159219D01*
X142111237Y-104964534D01*
X142143260Y-104762352D01*
X142143260Y-104557648D01*
X142111237Y-104355466D01*
X142109496Y-104350109D01*
X142052961Y-104176112D01*
X142047980Y-104160781D01*
X142047978Y-104160778D01*
X142047978Y-104160776D01*
X142014263Y-104094607D01*
X141955047Y-103978390D01*
X141882465Y-103878488D01*
X141834731Y-103812786D01*
X141689973Y-103668028D01*
X141524373Y-103547715D01*
X141524372Y-103547714D01*
X141524370Y-103547713D01*
X141467413Y-103518691D01*
X141341983Y-103454781D01*
X141147294Y-103391522D01*
X140972755Y-103363878D01*
X140945112Y-103359500D01*
X140740408Y-103359500D01*
X140716089Y-103363351D01*
X140538225Y-103391522D01*
X140343536Y-103454781D01*
X140161146Y-103547715D01*
X139995546Y-103668028D01*
X139850788Y-103812786D01*
X139730475Y-103978386D01*
X139637541Y-104160776D01*
X139574282Y-104355465D01*
X139542260Y-104557648D01*
X138987185Y-104557648D01*
X138958497Y-104376519D01*
X138901074Y-104199792D01*
X138893382Y-104176117D01*
X138893380Y-104176114D01*
X138893380Y-104176112D01*
X138855286Y-104101349D01*
X138797719Y-103988368D01*
X138752467Y-103926083D01*
X138673869Y-103817900D01*
X138524859Y-103668890D01*
X138354395Y-103545043D01*
X138354394Y-103545042D01*
X138354392Y-103545041D01*
X138295761Y-103515167D01*
X138166647Y-103449379D01*
X137966240Y-103384262D01*
X137758123Y-103351300D01*
X137758118Y-103351300D01*
X137547402Y-103351300D01*
X137547397Y-103351300D01*
X137339279Y-103384262D01*
X137138872Y-103449379D01*
X136951124Y-103545043D01*
X136780660Y-103668890D01*
X136631650Y-103817900D01*
X136507803Y-103988364D01*
X136412139Y-104176112D01*
X136347022Y-104376519D01*
X136314060Y-104584636D01*
X131371459Y-104584636D01*
X131371459Y-103803928D01*
X131365051Y-103744317D01*
X131336599Y-103668034D01*
X131314757Y-103609471D01*
X131314753Y-103609464D01*
X131228507Y-103494255D01*
X131228504Y-103494252D01*
X131113295Y-103408006D01*
X131113288Y-103408002D01*
X130978442Y-103357708D01*
X130978443Y-103357708D01*
X130918843Y-103351301D01*
X130918841Y-103351300D01*
X130918833Y-103351300D01*
X130918824Y-103351300D01*
X129146689Y-103351300D01*
X129146683Y-103351301D01*
X129087076Y-103357708D01*
X128952231Y-103408002D01*
X128952224Y-103408006D01*
X128837015Y-103494252D01*
X128837012Y-103494255D01*
X128750766Y-103609464D01*
X128750762Y-103609471D01*
X128700468Y-103744317D01*
X128694061Y-103803916D01*
X128694061Y-103803923D01*
X128694060Y-103803935D01*
X109843260Y-103803935D01*
X109843260Y-100893713D01*
X111992260Y-100893713D01*
X111992260Y-101106287D01*
X112025514Y-101316243D01*
X112091161Y-101518284D01*
X112091204Y-101518414D01*
X112187711Y-101707820D01*
X112312650Y-101879786D01*
X112462973Y-102030109D01*
X112634939Y-102155048D01*
X112634941Y-102155049D01*
X112634944Y-102155051D01*
X112824348Y-102251557D01*
X113026517Y-102317246D01*
X113236473Y-102350500D01*
X113236474Y-102350500D01*
X113449046Y-102350500D01*
X113449047Y-102350500D01*
X113659003Y-102317246D01*
X113861172Y-102251557D01*
X114050576Y-102155051D01*
X114090061Y-102126364D01*
X114222546Y-102030109D01*
X114222548Y-102030106D01*
X114222552Y-102030104D01*
X114372864Y-101879792D01*
X114372866Y-101879788D01*
X114372869Y-101879786D01*
X114497808Y-101707820D01*
X114497807Y-101707820D01*
X114497811Y-101707816D01*
X114572375Y-101561475D01*
X119092937Y-101561475D01*
X119092937Y-101766178D01*
X119124959Y-101968361D01*
X119188218Y-102163050D01*
X119241689Y-102267990D01*
X119278646Y-102340523D01*
X119281152Y-102345440D01*
X119401465Y-102511040D01*
X119546223Y-102655798D01*
X119685765Y-102757179D01*
X119711827Y-102776114D01*
X119828044Y-102835330D01*
X119894213Y-102869045D01*
X119894215Y-102869045D01*
X119894218Y-102869047D01*
X119998574Y-102902954D01*
X120088902Y-102932304D01*
X120179068Y-102946585D01*
X120291085Y-102964327D01*
X120291086Y-102964327D01*
X120495788Y-102964327D01*
X120495789Y-102964327D01*
X120697971Y-102932304D01*
X120892656Y-102869047D01*
X121075047Y-102776114D01*
X121187964Y-102694076D01*
X121240650Y-102655798D01*
X121240652Y-102655795D01*
X121240656Y-102655793D01*
X121385403Y-102511046D01*
X121385405Y-102511042D01*
X121385408Y-102511040D01*
X121440733Y-102434890D01*
X121505724Y-102345437D01*
X121598657Y-102163046D01*
X121661914Y-101968361D01*
X121693937Y-101766179D01*
X121693937Y-101564967D01*
X124973015Y-101564967D01*
X124973015Y-101769670D01*
X125005037Y-101971853D01*
X125068296Y-102166542D01*
X125131146Y-102289890D01*
X125159450Y-102345440D01*
X125161230Y-102348932D01*
X125281543Y-102514532D01*
X125426301Y-102659290D01*
X125581264Y-102771875D01*
X125591905Y-102779606D01*
X125708122Y-102838822D01*
X125774291Y-102872537D01*
X125774293Y-102872537D01*
X125774296Y-102872539D01*
X125878652Y-102906446D01*
X125968980Y-102935796D01*
X126037099Y-102946585D01*
X126171163Y-102967819D01*
X126171164Y-102967819D01*
X126375866Y-102967819D01*
X126375867Y-102967819D01*
X126578049Y-102935796D01*
X126772734Y-102872539D01*
X126955125Y-102779606D01*
X127072848Y-102694076D01*
X127120728Y-102659290D01*
X127120730Y-102659287D01*
X127120734Y-102659285D01*
X127265481Y-102514538D01*
X127265483Y-102514534D01*
X127265486Y-102514532D01*
X127323348Y-102434890D01*
X127385802Y-102348929D01*
X127478735Y-102166538D01*
X127541992Y-101971853D01*
X127574015Y-101769671D01*
X127574015Y-101564967D01*
X127554762Y-101443412D01*
X127541992Y-101362784D01*
X127503918Y-101245606D01*
X127478735Y-101168100D01*
X127478733Y-101168097D01*
X127478733Y-101168095D01*
X127442120Y-101096239D01*
X127385802Y-100985709D01*
X127321847Y-100897682D01*
X130042760Y-100897682D01*
X130042760Y-101102317D01*
X130074769Y-101304417D01*
X130138004Y-101499031D01*
X130230901Y-101681350D01*
X130230907Y-101681359D01*
X130263283Y-101725921D01*
X130263284Y-101725922D01*
X130942760Y-101046446D01*
X130942760Y-101052661D01*
X130970019Y-101154394D01*
X131022680Y-101245606D01*
X131097154Y-101320080D01*
X131188366Y-101372741D01*
X131290099Y-101400000D01*
X131296313Y-101400000D01*
X130616836Y-102079474D01*
X130661410Y-102111859D01*
X130843728Y-102204755D01*
X131038342Y-102267990D01*
X131240443Y-102300000D01*
X131445077Y-102300000D01*
X131647177Y-102267990D01*
X131841791Y-102204755D01*
X132024109Y-102111859D01*
X132068681Y-102079474D01*
X131389207Y-101400000D01*
X131395421Y-101400000D01*
X131497154Y-101372741D01*
X131588366Y-101320080D01*
X131662840Y-101245606D01*
X131715501Y-101154394D01*
X131742760Y-101052661D01*
X131742760Y-101046447D01*
X132422234Y-101725921D01*
X132454619Y-101681349D01*
X132547515Y-101499031D01*
X132610750Y-101304417D01*
X132642760Y-101102317D01*
X132642760Y-100897682D01*
X132642755Y-100897648D01*
X135042260Y-100897648D01*
X135042260Y-101102351D01*
X135074282Y-101304534D01*
X135137541Y-101499223D01*
X135169261Y-101561475D01*
X135230345Y-101681359D01*
X135230475Y-101681613D01*
X135350788Y-101847213D01*
X135495546Y-101991971D01*
X135622923Y-102084514D01*
X135661150Y-102112287D01*
X135767631Y-102166542D01*
X135843536Y-102205218D01*
X135843538Y-102205218D01*
X135843541Y-102205220D01*
X135947897Y-102239127D01*
X136038225Y-102268477D01*
X136139317Y-102284488D01*
X136240408Y-102300500D01*
X136240409Y-102300500D01*
X136445111Y-102300500D01*
X136445112Y-102300500D01*
X136647294Y-102268477D01*
X136841979Y-102205220D01*
X137024370Y-102112287D01*
X137187323Y-101993896D01*
X137189973Y-101991971D01*
X137189975Y-101991968D01*
X137189979Y-101991966D01*
X137334726Y-101847219D01*
X137334728Y-101847215D01*
X137334731Y-101847213D01*
X137391068Y-101769670D01*
X137455047Y-101681610D01*
X137547980Y-101499219D01*
X137611237Y-101304534D01*
X137643260Y-101102352D01*
X137643260Y-100897648D01*
X137630424Y-100816608D01*
X137611237Y-100695465D01*
X137564473Y-100551542D01*
X137547980Y-100500781D01*
X137547978Y-100500778D01*
X137547978Y-100500776D01*
X137499986Y-100406588D01*
X137455047Y-100318390D01*
X137447316Y-100307749D01*
X137334731Y-100152786D01*
X137189973Y-100008028D01*
X137024373Y-99887715D01*
X137024372Y-99887714D01*
X137024370Y-99887713D01*
X136940441Y-99844949D01*
X136841983Y-99794781D01*
X136647294Y-99731522D01*
X136472755Y-99703878D01*
X136445112Y-99699500D01*
X136240408Y-99699500D01*
X136216089Y-99703351D01*
X136038225Y-99731522D01*
X135843536Y-99794781D01*
X135661146Y-99887715D01*
X135495546Y-100008028D01*
X135350788Y-100152786D01*
X135230475Y-100318386D01*
X135137541Y-100500776D01*
X135074282Y-100695465D01*
X135042260Y-100897648D01*
X132642755Y-100897648D01*
X132610750Y-100695582D01*
X132547515Y-100500968D01*
X132454619Y-100318650D01*
X132422234Y-100274077D01*
X132422234Y-100274076D01*
X131742760Y-100953551D01*
X131742760Y-100947339D01*
X131715501Y-100845606D01*
X131662840Y-100754394D01*
X131588366Y-100679920D01*
X131497154Y-100627259D01*
X131395421Y-100600000D01*
X131389206Y-100600000D01*
X132068682Y-99920524D01*
X132068681Y-99920523D01*
X132024119Y-99888147D01*
X132024110Y-99888141D01*
X131841791Y-99795244D01*
X131647177Y-99732009D01*
X131445077Y-99700000D01*
X131240443Y-99700000D01*
X131038342Y-99732009D01*
X130843728Y-99795244D01*
X130661404Y-99888143D01*
X130616837Y-99920523D01*
X130616837Y-99920524D01*
X131296314Y-100600000D01*
X131290099Y-100600000D01*
X131188366Y-100627259D01*
X131097154Y-100679920D01*
X131022680Y-100754394D01*
X130970019Y-100845606D01*
X130942760Y-100947339D01*
X130942760Y-100953553D01*
X130263284Y-100274077D01*
X130263283Y-100274077D01*
X130230903Y-100318644D01*
X130138004Y-100500968D01*
X130074769Y-100695582D01*
X130042760Y-100897682D01*
X127321847Y-100897682D01*
X127265481Y-100820100D01*
X127120734Y-100675353D01*
X127120728Y-100675347D01*
X126955128Y-100555034D01*
X126955127Y-100555033D01*
X126955125Y-100555032D01*
X126848652Y-100500781D01*
X126772738Y-100462100D01*
X126578049Y-100398841D01*
X126403510Y-100371197D01*
X126375867Y-100366819D01*
X126171163Y-100366819D01*
X126146844Y-100370670D01*
X125968980Y-100398841D01*
X125774291Y-100462100D01*
X125591901Y-100555034D01*
X125426301Y-100675347D01*
X125281543Y-100820105D01*
X125161230Y-100985705D01*
X125068296Y-101168095D01*
X125005037Y-101362784D01*
X124973015Y-101564967D01*
X121693937Y-101564967D01*
X121693937Y-101561475D01*
X121684077Y-101499223D01*
X121661914Y-101359292D01*
X121623556Y-101241239D01*
X121598657Y-101164608D01*
X121598655Y-101164605D01*
X121598655Y-101164603D01*
X121530726Y-101031287D01*
X121505724Y-100982217D01*
X121480384Y-100947339D01*
X121385408Y-100816613D01*
X121240650Y-100671855D01*
X121075050Y-100551542D01*
X121075049Y-100551541D01*
X121075047Y-100551540D01*
X121018090Y-100522518D01*
X120892660Y-100458608D01*
X120697971Y-100395349D01*
X120517836Y-100366819D01*
X120495789Y-100363327D01*
X120291085Y-100363327D01*
X120269038Y-100366819D01*
X120088902Y-100395349D01*
X119894213Y-100458608D01*
X119711823Y-100551542D01*
X119546223Y-100671855D01*
X119401465Y-100816613D01*
X119281152Y-100982213D01*
X119188218Y-101164603D01*
X119124959Y-101359292D01*
X119092937Y-101561475D01*
X114572375Y-101561475D01*
X114594317Y-101518412D01*
X114660006Y-101316243D01*
X114693260Y-101106287D01*
X114693260Y-100893713D01*
X114660006Y-100683757D01*
X114594317Y-100481588D01*
X114497811Y-100292184D01*
X114497809Y-100292181D01*
X114497808Y-100292179D01*
X114372869Y-100120213D01*
X114222546Y-99969890D01*
X114050580Y-99844951D01*
X113861174Y-99748444D01*
X113861173Y-99748443D01*
X113861172Y-99748443D01*
X113659003Y-99682754D01*
X113659001Y-99682753D01*
X113659000Y-99682753D01*
X113483772Y-99655000D01*
X113449047Y-99649500D01*
X113236473Y-99649500D01*
X113201748Y-99655000D01*
X113026520Y-99682753D01*
X112824345Y-99748444D01*
X112634939Y-99844951D01*
X112462973Y-99969890D01*
X112312650Y-100120213D01*
X112187711Y-100292179D01*
X112091204Y-100481585D01*
X112025513Y-100683760D01*
X112004139Y-100818713D01*
X111992260Y-100893713D01*
X109843260Y-100893713D01*
X109843260Y-90552135D01*
X118942260Y-90552135D01*
X118942260Y-92447870D01*
X118942261Y-92447876D01*
X118948668Y-92507483D01*
X118998962Y-92642328D01*
X118998966Y-92642335D01*
X119085212Y-92757544D01*
X119085215Y-92757547D01*
X119200424Y-92843793D01*
X119200431Y-92843797D01*
X119245378Y-92860561D01*
X119335277Y-92894091D01*
X119394887Y-92900500D01*
X119505453Y-92900499D01*
X119572490Y-92920183D01*
X119593132Y-92936818D01*
X120254175Y-93597861D01*
X120169066Y-93620667D01*
X120066454Y-93679910D01*
X119982670Y-93763694D01*
X119923427Y-93866306D01*
X119900621Y-93951414D01*
X119191692Y-93242485D01*
X119191691Y-93242485D01*
X119145376Y-93306233D01*
X119045327Y-93502589D01*
X118977233Y-93712164D01*
X118942760Y-93929818D01*
X118942760Y-94150181D01*
X118977233Y-94367835D01*
X119045327Y-94577410D01*
X119145371Y-94773756D01*
X119191692Y-94837513D01*
X119900621Y-94128584D01*
X119923427Y-94213694D01*
X119982670Y-94316306D01*
X120066454Y-94400090D01*
X120169066Y-94459333D01*
X120254174Y-94482137D01*
X119545245Y-95191065D01*
X119545245Y-95191066D01*
X119609003Y-95237388D01*
X119805349Y-95337432D01*
X120014924Y-95405526D01*
X120232579Y-95440000D01*
X120452941Y-95440000D01*
X120670595Y-95405526D01*
X120880170Y-95337432D01*
X121076520Y-95237386D01*
X121140273Y-95191066D01*
X121140274Y-95191066D01*
X120431345Y-94482138D01*
X120516454Y-94459333D01*
X120619066Y-94400090D01*
X120702850Y-94316306D01*
X120762093Y-94213694D01*
X120784897Y-94128585D01*
X121493826Y-94837514D01*
X121493826Y-94837513D01*
X121540146Y-94773760D01*
X121640192Y-94577410D01*
X121698599Y-94397648D01*
X139542260Y-94397648D01*
X139542260Y-94602351D01*
X139574282Y-94804534D01*
X139637541Y-94999223D01*
X139673905Y-95070590D01*
X139730460Y-95181585D01*
X139730475Y-95181613D01*
X139850788Y-95347213D01*
X139995546Y-95491971D01*
X140135585Y-95593713D01*
X140161150Y-95612287D01*
X140249801Y-95657457D01*
X140343536Y-95705218D01*
X140343538Y-95705218D01*
X140343541Y-95705220D01*
X140446745Y-95738753D01*
X140538225Y-95768477D01*
X140605763Y-95779174D01*
X140740408Y-95800500D01*
X140740409Y-95800500D01*
X140945111Y-95800500D01*
X140945112Y-95800500D01*
X141147294Y-95768477D01*
X141341979Y-95705220D01*
X141524370Y-95612287D01*
X141639186Y-95528869D01*
X141689973Y-95491971D01*
X141689975Y-95491968D01*
X141689979Y-95491966D01*
X141834726Y-95347219D01*
X141834728Y-95347215D01*
X141834731Y-95347213D01*
X141914522Y-95237388D01*
X141955047Y-95181610D01*
X142047980Y-94999219D01*
X142111237Y-94804534D01*
X142143260Y-94602352D01*
X142143260Y-94397648D01*
X142130885Y-94319514D01*
X142111237Y-94195465D01*
X142060723Y-94040000D01*
X142047980Y-94000781D01*
X142047978Y-94000778D01*
X142047978Y-94000776D01*
X142011822Y-93929818D01*
X141955047Y-93818390D01*
X141947316Y-93807749D01*
X141834731Y-93652786D01*
X141689973Y-93508028D01*
X141524373Y-93387715D01*
X141524372Y-93387714D01*
X141524370Y-93387713D01*
X141467413Y-93358691D01*
X141341983Y-93294781D01*
X141147294Y-93231522D01*
X140972755Y-93203878D01*
X140945112Y-93199500D01*
X140740408Y-93199500D01*
X140716089Y-93203351D01*
X140538225Y-93231522D01*
X140343536Y-93294781D01*
X140161146Y-93387715D01*
X139995546Y-93508028D01*
X139850788Y-93652786D01*
X139730475Y-93818386D01*
X139637541Y-94000776D01*
X139574282Y-94195465D01*
X139542260Y-94397648D01*
X121698599Y-94397648D01*
X121708286Y-94367835D01*
X121742760Y-94150181D01*
X121742760Y-93929818D01*
X121708286Y-93712164D01*
X121640192Y-93502589D01*
X121540148Y-93306243D01*
X121493826Y-93242485D01*
X121493825Y-93242485D01*
X120784897Y-93951413D01*
X120762093Y-93866306D01*
X120702850Y-93763694D01*
X120619066Y-93679910D01*
X120516454Y-93620667D01*
X120431344Y-93597861D01*
X121092388Y-92936818D01*
X121153711Y-92903333D01*
X121180068Y-92900499D01*
X121290632Y-92900499D01*
X121350243Y-92894091D01*
X121485091Y-92843796D01*
X121600306Y-92757546D01*
X121686556Y-92642331D01*
X121736851Y-92507483D01*
X121743260Y-92447873D01*
X121743259Y-91404967D01*
X124973015Y-91404967D01*
X124973015Y-91609670D01*
X125005037Y-91811853D01*
X125068296Y-92006542D01*
X125161230Y-92188932D01*
X125281543Y-92354532D01*
X125426301Y-92499290D01*
X125581264Y-92611875D01*
X125591905Y-92619606D01*
X125708122Y-92678822D01*
X125774291Y-92712537D01*
X125774293Y-92712537D01*
X125774296Y-92712539D01*
X125878652Y-92746446D01*
X125968980Y-92775796D01*
X126037099Y-92786585D01*
X126171163Y-92807819D01*
X126171164Y-92807819D01*
X126375866Y-92807819D01*
X126375867Y-92807819D01*
X126578049Y-92775796D01*
X126772734Y-92712539D01*
X126955125Y-92619606D01*
X127048105Y-92552051D01*
X127120728Y-92499290D01*
X127120730Y-92499287D01*
X127120734Y-92499285D01*
X127265481Y-92354538D01*
X127265483Y-92354534D01*
X127265486Y-92354532D01*
X127323348Y-92274890D01*
X127385802Y-92188929D01*
X127478735Y-92006538D01*
X127541992Y-91811853D01*
X127574015Y-91609671D01*
X127574015Y-91404967D01*
X127541992Y-91202785D01*
X127478735Y-91008100D01*
X127478733Y-91008097D01*
X127478733Y-91008095D01*
X127409025Y-90871287D01*
X127385802Y-90825709D01*
X127378071Y-90815068D01*
X127265486Y-90660105D01*
X127120728Y-90515347D01*
X126955128Y-90395034D01*
X126955127Y-90395033D01*
X126955125Y-90395032D01*
X126881796Y-90357669D01*
X126772738Y-90302100D01*
X126578049Y-90238841D01*
X126403510Y-90211197D01*
X126375867Y-90206819D01*
X126171163Y-90206819D01*
X126146844Y-90210670D01*
X125968980Y-90238841D01*
X125774291Y-90302100D01*
X125591901Y-90395034D01*
X125426301Y-90515347D01*
X125281543Y-90660105D01*
X125161230Y-90825705D01*
X125068296Y-91008095D01*
X125005037Y-91202784D01*
X124973015Y-91404967D01*
X121743259Y-91404967D01*
X121743259Y-90552128D01*
X121736851Y-90492517D01*
X121700492Y-90395034D01*
X121686557Y-90357671D01*
X121686553Y-90357664D01*
X121600307Y-90242455D01*
X121600304Y-90242452D01*
X121485095Y-90156206D01*
X121485088Y-90156202D01*
X121350242Y-90105908D01*
X121350243Y-90105908D01*
X121290643Y-90099501D01*
X121290641Y-90099500D01*
X121290633Y-90099500D01*
X121290624Y-90099500D01*
X119394889Y-90099500D01*
X119394883Y-90099501D01*
X119335276Y-90105908D01*
X119200431Y-90156202D01*
X119200424Y-90156206D01*
X119085215Y-90242452D01*
X119085212Y-90242455D01*
X118998966Y-90357664D01*
X118998962Y-90357671D01*
X118948668Y-90492517D01*
X118942261Y-90552116D01*
X118942261Y-90552123D01*
X118942260Y-90552135D01*
X109843260Y-90552135D01*
X109843260Y-82512135D01*
X118942260Y-82512135D01*
X118942260Y-84407870D01*
X118942261Y-84407876D01*
X118948668Y-84467483D01*
X118998962Y-84602328D01*
X118998966Y-84602335D01*
X119085212Y-84717544D01*
X119085215Y-84717547D01*
X119200424Y-84803793D01*
X119200431Y-84803797D01*
X119245378Y-84820561D01*
X119335277Y-84854091D01*
X119394887Y-84860500D01*
X119505453Y-84860499D01*
X119572490Y-84880183D01*
X119593132Y-84896818D01*
X120254175Y-85557861D01*
X120169066Y-85580667D01*
X120066454Y-85639910D01*
X119982670Y-85723694D01*
X119923427Y-85826306D01*
X119900621Y-85911414D01*
X119191692Y-85202485D01*
X119191691Y-85202485D01*
X119145376Y-85266233D01*
X119045327Y-85462589D01*
X118977233Y-85672164D01*
X118942760Y-85889818D01*
X118942760Y-86110181D01*
X118977233Y-86327835D01*
X119045327Y-86537410D01*
X119145371Y-86733756D01*
X119191692Y-86797513D01*
X119900621Y-86088584D01*
X119923427Y-86173694D01*
X119982670Y-86276306D01*
X120066454Y-86360090D01*
X120169066Y-86419333D01*
X120254174Y-86442137D01*
X119545245Y-87151065D01*
X119545245Y-87151066D01*
X119609003Y-87197388D01*
X119805349Y-87297432D01*
X120014924Y-87365526D01*
X120232579Y-87400000D01*
X120452941Y-87400000D01*
X120670595Y-87365526D01*
X120880170Y-87297432D01*
X121076520Y-87197386D01*
X121140273Y-87151066D01*
X121140274Y-87151066D01*
X120431345Y-86442138D01*
X120516454Y-86419333D01*
X120619066Y-86360090D01*
X120702850Y-86276306D01*
X120762093Y-86173694D01*
X120784897Y-86088585D01*
X121493826Y-86797514D01*
X121493826Y-86797513D01*
X121540146Y-86733760D01*
X121640192Y-86537410D01*
X121708286Y-86327835D01*
X121742760Y-86110181D01*
X121742760Y-85889818D01*
X121708286Y-85672164D01*
X121640192Y-85462589D01*
X121540148Y-85266243D01*
X121493826Y-85202485D01*
X121493825Y-85202485D01*
X120784897Y-85911413D01*
X120762093Y-85826306D01*
X120702850Y-85723694D01*
X120619066Y-85639910D01*
X120516454Y-85580667D01*
X120431344Y-85557861D01*
X121092388Y-84896818D01*
X121153711Y-84863333D01*
X121180068Y-84860499D01*
X121290632Y-84860499D01*
X121350243Y-84854091D01*
X121485091Y-84803796D01*
X121600306Y-84717546D01*
X121686556Y-84602331D01*
X121736851Y-84467483D01*
X121743260Y-84407873D01*
X121743259Y-82512128D01*
X121736851Y-82452517D01*
X121729786Y-82433576D01*
X121686557Y-82317671D01*
X121686555Y-82317668D01*
X121648306Y-82266574D01*
X121600306Y-82202454D01*
X121600304Y-82202452D01*
X121600303Y-82202451D01*
X121496820Y-82124983D01*
X127824500Y-82124983D01*
X127824500Y-83875001D01*
X127824501Y-83875018D01*
X127835000Y-83977796D01*
X127835001Y-83977799D01*
X127876318Y-84102483D01*
X127890186Y-84144334D01*
X127982288Y-84293656D01*
X128106344Y-84417712D01*
X128255666Y-84509814D01*
X128422203Y-84564999D01*
X128524991Y-84575500D01*
X130275008Y-84575499D01*
X130377797Y-84564999D01*
X130544334Y-84509814D01*
X130693656Y-84417712D01*
X130817712Y-84293656D01*
X130909814Y-84144334D01*
X130964999Y-83977797D01*
X130975500Y-83875009D01*
X130975499Y-82875999D01*
X132424500Y-82875999D01*
X132424500Y-83124000D01*
X132463275Y-83368814D01*
X132463294Y-83368931D01*
X132539927Y-83604782D01*
X132652511Y-83825742D01*
X132798276Y-84026370D01*
X132973630Y-84201724D01*
X133174258Y-84347489D01*
X133395218Y-84460073D01*
X133631069Y-84536706D01*
X133722920Y-84551253D01*
X133876000Y-84575500D01*
X133876005Y-84575500D01*
X134124000Y-84575500D01*
X134260070Y-84553947D01*
X134368931Y-84536706D01*
X134604782Y-84460073D01*
X134825742Y-84347489D01*
X135026370Y-84201724D01*
X135201724Y-84026370D01*
X135347489Y-83825742D01*
X135460073Y-83604782D01*
X135536706Y-83368931D01*
X135559987Y-83221942D01*
X135575500Y-83124000D01*
X135575500Y-82876045D01*
X137025000Y-82876045D01*
X137025000Y-83123954D01*
X137063782Y-83368814D01*
X137140388Y-83604587D01*
X137140389Y-83604590D01*
X137252939Y-83825480D01*
X137323646Y-83922798D01*
X137323647Y-83922799D01*
X138055799Y-83190646D01*
X138064185Y-83221942D01*
X138139885Y-83353058D01*
X138246942Y-83460115D01*
X138378058Y-83535815D01*
X138409353Y-83544200D01*
X137677199Y-84276352D01*
X137774521Y-84347060D01*
X137774527Y-84347064D01*
X137995409Y-84459610D01*
X137995412Y-84459611D01*
X138231185Y-84536217D01*
X138476046Y-84575000D01*
X138723954Y-84575000D01*
X138968814Y-84536217D01*
X139204587Y-84459611D01*
X139204590Y-84459610D01*
X139425480Y-84347060D01*
X139522798Y-84276352D01*
X138790646Y-83544200D01*
X138821942Y-83535815D01*
X138953058Y-83460115D01*
X139060115Y-83353058D01*
X139135815Y-83221942D01*
X139144200Y-83190647D01*
X139876352Y-83922799D01*
X139876352Y-83922798D01*
X139947060Y-83825480D01*
X140059610Y-83604590D01*
X140059611Y-83604587D01*
X140136217Y-83368814D01*
X140175000Y-83123954D01*
X140175000Y-82876045D01*
X140136217Y-82631185D01*
X140059611Y-82395412D01*
X140059610Y-82395409D01*
X139947064Y-82174527D01*
X139947058Y-82174517D01*
X139945007Y-82171694D01*
X139945006Y-82171692D01*
X139945005Y-82171691D01*
X139894469Y-82102135D01*
X145242260Y-82102135D01*
X145242260Y-83897870D01*
X145242261Y-83897876D01*
X145248668Y-83957483D01*
X145298962Y-84092328D01*
X145298966Y-84092335D01*
X145385212Y-84207544D01*
X145385215Y-84207547D01*
X145500424Y-84293793D01*
X145500431Y-84293797D01*
X145631842Y-84342810D01*
X145687776Y-84384681D01*
X145712193Y-84450145D01*
X145697342Y-84518418D01*
X145676191Y-84546673D01*
X145562649Y-84660215D01*
X145437711Y-84832179D01*
X145341204Y-85021585D01*
X145275513Y-85223760D01*
X145242260Y-85433713D01*
X145242260Y-85646287D01*
X145275514Y-85856243D01*
X145322626Y-86001239D01*
X145341204Y-86058414D01*
X145437711Y-86247820D01*
X145562650Y-86419786D01*
X145712973Y-86570109D01*
X145884942Y-86695050D01*
X145893706Y-86699516D01*
X145944502Y-86747491D01*
X145961296Y-86815312D01*
X145938758Y-86881447D01*
X145893706Y-86920484D01*
X145884942Y-86924949D01*
X145712973Y-87049890D01*
X145562650Y-87200213D01*
X145437711Y-87372179D01*
X145341204Y-87561585D01*
X145275513Y-87763760D01*
X145242260Y-87973713D01*
X145242260Y-88186287D01*
X145275514Y-88396243D01*
X145322626Y-88541239D01*
X145341204Y-88598414D01*
X145437711Y-88787820D01*
X145562650Y-88959786D01*
X145712973Y-89110109D01*
X145884942Y-89235050D01*
X145893706Y-89239516D01*
X145944502Y-89287491D01*
X145961296Y-89355312D01*
X145938758Y-89421447D01*
X145893706Y-89460484D01*
X145884942Y-89464949D01*
X145712973Y-89589890D01*
X145562650Y-89740213D01*
X145437711Y-89912179D01*
X145341204Y-90101585D01*
X145275513Y-90303760D01*
X145242260Y-90513713D01*
X145242260Y-90726286D01*
X145268663Y-90892991D01*
X145275514Y-90936243D01*
X145338205Y-91129186D01*
X145341204Y-91138414D01*
X145437711Y-91327820D01*
X145562650Y-91499786D01*
X145712973Y-91650109D01*
X145884942Y-91775050D01*
X145893706Y-91779516D01*
X145944502Y-91827491D01*
X145961296Y-91895312D01*
X145938758Y-91961447D01*
X145893706Y-92000484D01*
X145884942Y-92004949D01*
X145712973Y-92129890D01*
X145562650Y-92280213D01*
X145437711Y-92452179D01*
X145341204Y-92641585D01*
X145275513Y-92843760D01*
X145242260Y-93053713D01*
X145242260Y-93266287D01*
X145275514Y-93476243D01*
X145322626Y-93621239D01*
X145341204Y-93678414D01*
X145437711Y-93867820D01*
X145562650Y-94039786D01*
X145712973Y-94190109D01*
X145884942Y-94315050D01*
X145893706Y-94319516D01*
X145944502Y-94367491D01*
X145961296Y-94435312D01*
X145938758Y-94501447D01*
X145893706Y-94540484D01*
X145884942Y-94544949D01*
X145712973Y-94669890D01*
X145562650Y-94820213D01*
X145437711Y-94992179D01*
X145341204Y-95181585D01*
X145275513Y-95383760D01*
X145258394Y-95491848D01*
X145242260Y-95593713D01*
X145242260Y-95806287D01*
X145275514Y-96016243D01*
X145333116Y-96193524D01*
X145341204Y-96218414D01*
X145437711Y-96407820D01*
X145562650Y-96579786D01*
X145712973Y-96730109D01*
X145884942Y-96855050D01*
X145893706Y-96859516D01*
X145944502Y-96907491D01*
X145961296Y-96975312D01*
X145938758Y-97041447D01*
X145893706Y-97080484D01*
X145884942Y-97084949D01*
X145712973Y-97209890D01*
X145562650Y-97360213D01*
X145437711Y-97532179D01*
X145341204Y-97721585D01*
X145275513Y-97923760D01*
X145242260Y-98133713D01*
X145242260Y-98346286D01*
X145266498Y-98499323D01*
X145275514Y-98556243D01*
X145322626Y-98701239D01*
X145341204Y-98758414D01*
X145437711Y-98947820D01*
X145562650Y-99119786D01*
X145712973Y-99270109D01*
X145884942Y-99395050D01*
X145893706Y-99399516D01*
X145944502Y-99447491D01*
X145961296Y-99515312D01*
X145938758Y-99581447D01*
X145893706Y-99620484D01*
X145884942Y-99624949D01*
X145712973Y-99749890D01*
X145562650Y-99900213D01*
X145437711Y-100072179D01*
X145341204Y-100261585D01*
X145275513Y-100463760D01*
X145249618Y-100627259D01*
X145242260Y-100673713D01*
X145242260Y-100886287D01*
X145244065Y-100897682D01*
X145254838Y-100965704D01*
X145275514Y-101096243D01*
X145324045Y-101245606D01*
X145341204Y-101298414D01*
X145437711Y-101487820D01*
X145562650Y-101659786D01*
X145712973Y-101810109D01*
X145884942Y-101935050D01*
X145893706Y-101939516D01*
X145944502Y-101987491D01*
X145961296Y-102055312D01*
X145938758Y-102121447D01*
X145893706Y-102160484D01*
X145884942Y-102164949D01*
X145712973Y-102289890D01*
X145562650Y-102440213D01*
X145437711Y-102612179D01*
X145341204Y-102801585D01*
X145275513Y-103003760D01*
X145242260Y-103213713D01*
X145242260Y-103426287D01*
X145246773Y-103454780D01*
X145271273Y-103609471D01*
X145275514Y-103636243D01*
X145334538Y-103817900D01*
X145341204Y-103838414D01*
X145437711Y-104027820D01*
X145562650Y-104199786D01*
X145712973Y-104350109D01*
X145884942Y-104475050D01*
X145893706Y-104479516D01*
X145944502Y-104527491D01*
X145961296Y-104595312D01*
X145938758Y-104661447D01*
X145893706Y-104700484D01*
X145884942Y-104704949D01*
X145712973Y-104829890D01*
X145562650Y-104980213D01*
X145437711Y-105152179D01*
X145341204Y-105341585D01*
X145275513Y-105543760D01*
X145249009Y-105711104D01*
X145242260Y-105753713D01*
X145242260Y-105966287D01*
X145275514Y-106176243D01*
X145334538Y-106357900D01*
X145341204Y-106378414D01*
X145437711Y-106567820D01*
X145562650Y-106739786D01*
X145712973Y-106890109D01*
X145884942Y-107015050D01*
X145893706Y-107019516D01*
X145944502Y-107067491D01*
X145961296Y-107135312D01*
X145938758Y-107201447D01*
X145893706Y-107240484D01*
X145884942Y-107244949D01*
X145712973Y-107369890D01*
X145562650Y-107520213D01*
X145437711Y-107692179D01*
X145341204Y-107881585D01*
X145275513Y-108083760D01*
X145249009Y-108251104D01*
X145242260Y-108293713D01*
X145242260Y-108506287D01*
X145275514Y-108716243D01*
X145334538Y-108897900D01*
X145341204Y-108918414D01*
X145437711Y-109107820D01*
X145562650Y-109279786D01*
X145712973Y-109430109D01*
X145884942Y-109555050D01*
X145893706Y-109559516D01*
X145944502Y-109607491D01*
X145961296Y-109675312D01*
X145938758Y-109741447D01*
X145893706Y-109780484D01*
X145884942Y-109784949D01*
X145712973Y-109909890D01*
X145562650Y-110060213D01*
X145437711Y-110232179D01*
X145341204Y-110421585D01*
X145275513Y-110623760D01*
X145249009Y-110791104D01*
X145242260Y-110833713D01*
X145242260Y-111046287D01*
X145275514Y-111256243D01*
X145334538Y-111437900D01*
X145341204Y-111458414D01*
X145437711Y-111647820D01*
X145562650Y-111819786D01*
X145712973Y-111970109D01*
X145884939Y-112095048D01*
X145884941Y-112095049D01*
X145884944Y-112095051D01*
X145894253Y-112099794D01*
X145945050Y-112147766D01*
X145961847Y-112215587D01*
X145939312Y-112281722D01*
X145894265Y-112320760D01*
X145885206Y-112325376D01*
X145885200Y-112325380D01*
X145831042Y-112364727D01*
X145831042Y-112364728D01*
X146463351Y-112997037D01*
X146399767Y-113014075D01*
X146285753Y-113079901D01*
X146192661Y-113172993D01*
X146126835Y-113287007D01*
X146109797Y-113350591D01*
X145477488Y-112718282D01*
X145477487Y-112718282D01*
X145438140Y-112772439D01*
X145341664Y-112961782D01*
X145276002Y-113163869D01*
X145276002Y-113163872D01*
X145242760Y-113373753D01*
X145242760Y-113586246D01*
X145276002Y-113796127D01*
X145276002Y-113796130D01*
X145341664Y-113998217D01*
X145438135Y-114187550D01*
X145477488Y-114241716D01*
X146109797Y-113609408D01*
X146126835Y-113672993D01*
X146192661Y-113787007D01*
X146285753Y-113880099D01*
X146399767Y-113945925D01*
X146463350Y-113962962D01*
X145831042Y-114595269D01*
X145831042Y-114595270D01*
X145885212Y-114634626D01*
X145885211Y-114634626D01*
X145894255Y-114639234D01*
X145945052Y-114687208D01*
X145961847Y-114755029D01*
X145939310Y-114821164D01*
X145894259Y-114860202D01*
X145884942Y-114864949D01*
X145712973Y-114989890D01*
X145562650Y-115140213D01*
X145437711Y-115312179D01*
X145341204Y-115501585D01*
X145275513Y-115703760D01*
X145242260Y-115913713D01*
X145242260Y-116126286D01*
X145275513Y-116336239D01*
X145275513Y-116336241D01*
X145275514Y-116336243D01*
X145322626Y-116481239D01*
X145341204Y-116538414D01*
X145437711Y-116727820D01*
X145562650Y-116899786D01*
X145712973Y-117050109D01*
X145884942Y-117175050D01*
X145893706Y-117179516D01*
X145944502Y-117227491D01*
X145961296Y-117295312D01*
X145938758Y-117361447D01*
X145893706Y-117400484D01*
X145884942Y-117404949D01*
X145712973Y-117529890D01*
X145562650Y-117680213D01*
X145437711Y-117852179D01*
X145341204Y-118041585D01*
X145275513Y-118243760D01*
X145242260Y-118453713D01*
X145242260Y-118666286D01*
X145260849Y-118783656D01*
X145275514Y-118876243D01*
X145322626Y-119021239D01*
X145341204Y-119078414D01*
X145437711Y-119267820D01*
X145562650Y-119439786D01*
X145712973Y-119590109D01*
X145884942Y-119715050D01*
X145893706Y-119719516D01*
X145944502Y-119767491D01*
X145961296Y-119835312D01*
X145938758Y-119901447D01*
X145893706Y-119940484D01*
X145884942Y-119944949D01*
X145712973Y-120069890D01*
X145562650Y-120220213D01*
X145437711Y-120392179D01*
X145341204Y-120581585D01*
X145275513Y-120783760D01*
X145242260Y-120993713D01*
X145242260Y-121206286D01*
X145265071Y-121350313D01*
X145275514Y-121416243D01*
X145340218Y-121615381D01*
X145341204Y-121618414D01*
X145437711Y-121807820D01*
X145562650Y-121979786D01*
X145712973Y-122130109D01*
X145884942Y-122255050D01*
X145893706Y-122259516D01*
X145944502Y-122307491D01*
X145961296Y-122375312D01*
X145938758Y-122441447D01*
X145893706Y-122480484D01*
X145884942Y-122484949D01*
X145712973Y-122609890D01*
X145562650Y-122760213D01*
X145437711Y-122932179D01*
X145341204Y-123121585D01*
X145275513Y-123323760D01*
X145242260Y-123533713D01*
X145242260Y-123746286D01*
X145260849Y-123863656D01*
X145275514Y-123956243D01*
X145322626Y-124101239D01*
X145341204Y-124158414D01*
X145437711Y-124347820D01*
X145562650Y-124519786D01*
X145712973Y-124670109D01*
X145884942Y-124795050D01*
X145893706Y-124799516D01*
X145944502Y-124847491D01*
X145961296Y-124915312D01*
X145938758Y-124981447D01*
X145893706Y-125020484D01*
X145884942Y-125024949D01*
X145712973Y-125149890D01*
X145562650Y-125300213D01*
X145437711Y-125472179D01*
X145341204Y-125661585D01*
X145275513Y-125863760D01*
X145242260Y-126073713D01*
X145242260Y-126286286D01*
X145260849Y-126403656D01*
X145275514Y-126496243D01*
X145322626Y-126641239D01*
X145341204Y-126698414D01*
X145437711Y-126887820D01*
X145562650Y-127059786D01*
X145712973Y-127210109D01*
X145884939Y-127335048D01*
X145884941Y-127335049D01*
X145884944Y-127335051D01*
X145894253Y-127339794D01*
X145945050Y-127387766D01*
X145961847Y-127455587D01*
X145939312Y-127521722D01*
X145894265Y-127560760D01*
X145885206Y-127565376D01*
X145885200Y-127565380D01*
X145831042Y-127604727D01*
X145831042Y-127604728D01*
X146463351Y-128237037D01*
X146399767Y-128254075D01*
X146285753Y-128319901D01*
X146192661Y-128412993D01*
X146126835Y-128527007D01*
X146109797Y-128590591D01*
X145477488Y-127958282D01*
X145477487Y-127958282D01*
X145438140Y-128012439D01*
X145341664Y-128201782D01*
X145276002Y-128403869D01*
X145276002Y-128403872D01*
X145242760Y-128613753D01*
X145242760Y-128826246D01*
X145276002Y-129036127D01*
X145276002Y-129036130D01*
X145341664Y-129238217D01*
X145438135Y-129427550D01*
X145477488Y-129481716D01*
X146109797Y-128849408D01*
X146126835Y-128912993D01*
X146192661Y-129027007D01*
X146285753Y-129120099D01*
X146399767Y-129185925D01*
X146463350Y-129202962D01*
X145831042Y-129835269D01*
X145831042Y-129835270D01*
X145885209Y-129874624D01*
X146074542Y-129971095D01*
X146276630Y-130036757D01*
X146486514Y-130070000D01*
X146699006Y-130070000D01*
X146908887Y-130036757D01*
X146908890Y-130036757D01*
X147110977Y-129971095D01*
X147300314Y-129874622D01*
X147354476Y-129835270D01*
X147354477Y-129835270D01*
X146722168Y-129202962D01*
X146785753Y-129185925D01*
X146899767Y-129120099D01*
X146992859Y-129027007D01*
X147058685Y-128912993D01*
X147075722Y-128849409D01*
X147708030Y-129481717D01*
X147708030Y-129481716D01*
X147747382Y-129427554D01*
X147843855Y-129238217D01*
X147909517Y-129036130D01*
X147909517Y-129036127D01*
X147942760Y-128826246D01*
X147942760Y-128613753D01*
X147909517Y-128403872D01*
X147909517Y-128403869D01*
X147843855Y-128201782D01*
X147747384Y-128012449D01*
X147708030Y-127958282D01*
X147708029Y-127958282D01*
X147075722Y-128590590D01*
X147058685Y-128527007D01*
X146992859Y-128412993D01*
X146899767Y-128319901D01*
X146785753Y-128254075D01*
X146722169Y-128237037D01*
X147354476Y-127604728D01*
X147300307Y-127565373D01*
X147300307Y-127565372D01*
X147291260Y-127560763D01*
X147240466Y-127512788D01*
X147223672Y-127444966D01*
X147246211Y-127378832D01*
X147291268Y-127339793D01*
X147300576Y-127335051D01*
X147379767Y-127277515D01*
X147472546Y-127210109D01*
X147472548Y-127210106D01*
X147472552Y-127210104D01*
X147622864Y-127059792D01*
X147622866Y-127059788D01*
X147622869Y-127059786D01*
X147747808Y-126887820D01*
X147747807Y-126887820D01*
X147747811Y-126887816D01*
X147844317Y-126698412D01*
X147910006Y-126496243D01*
X147943260Y-126286287D01*
X147943260Y-126073713D01*
X147910006Y-125863757D01*
X147844317Y-125661588D01*
X147747811Y-125472184D01*
X147747809Y-125472181D01*
X147747808Y-125472179D01*
X147622869Y-125300213D01*
X147472546Y-125149890D01*
X147300580Y-125024951D01*
X147299875Y-125024591D01*
X147291814Y-125020485D01*
X147241019Y-124972512D01*
X147224223Y-124904692D01*
X147246759Y-124838556D01*
X147291814Y-124799515D01*
X147300576Y-124795051D01*
X147358082Y-124753271D01*
X147472546Y-124670109D01*
X147472548Y-124670106D01*
X147472552Y-124670104D01*
X147622864Y-124519792D01*
X147622866Y-124519788D01*
X147622869Y-124519786D01*
X147747808Y-124347820D01*
X147747807Y-124347820D01*
X147747811Y-124347816D01*
X147844317Y-124158412D01*
X147910006Y-123956243D01*
X147943260Y-123746287D01*
X147943260Y-123533713D01*
X147910006Y-123323757D01*
X147844317Y-123121588D01*
X147747811Y-122932184D01*
X147747809Y-122932181D01*
X147747808Y-122932179D01*
X147622869Y-122760213D01*
X147472546Y-122609890D01*
X147300580Y-122484951D01*
X147299875Y-122484591D01*
X147291814Y-122480485D01*
X147241019Y-122432512D01*
X147224223Y-122364692D01*
X147246759Y-122298556D01*
X147291814Y-122259515D01*
X147300576Y-122255051D01*
X147358082Y-122213271D01*
X147472546Y-122130109D01*
X147472548Y-122130106D01*
X147472552Y-122130104D01*
X147622864Y-121979792D01*
X147622866Y-121979788D01*
X147622869Y-121979786D01*
X147747808Y-121807820D01*
X147747807Y-121807820D01*
X147747811Y-121807816D01*
X147844317Y-121618412D01*
X147910006Y-121416243D01*
X147943260Y-121206287D01*
X147943260Y-120993713D01*
X147910006Y-120783757D01*
X147844317Y-120581588D01*
X147747811Y-120392184D01*
X147747809Y-120392181D01*
X147747808Y-120392179D01*
X147622869Y-120220213D01*
X147472546Y-120069890D01*
X147300580Y-119944951D01*
X147297259Y-119943259D01*
X147291814Y-119940485D01*
X147241019Y-119892512D01*
X147224223Y-119824692D01*
X147246759Y-119758556D01*
X147291814Y-119719515D01*
X147300576Y-119715051D01*
X147358082Y-119673271D01*
X147472546Y-119590109D01*
X147472548Y-119590106D01*
X147472552Y-119590104D01*
X147622864Y-119439792D01*
X147622866Y-119439788D01*
X147622869Y-119439786D01*
X147747808Y-119267820D01*
X147747807Y-119267820D01*
X147747811Y-119267816D01*
X147844317Y-119078412D01*
X147910006Y-118876243D01*
X147943260Y-118666287D01*
X147943260Y-118453713D01*
X147910006Y-118243757D01*
X147844317Y-118041588D01*
X147747811Y-117852184D01*
X147747809Y-117852181D01*
X147747808Y-117852179D01*
X147622869Y-117680213D01*
X147472546Y-117529890D01*
X147300580Y-117404951D01*
X147299875Y-117404591D01*
X147291814Y-117400485D01*
X147241019Y-117352512D01*
X147224223Y-117284692D01*
X147246759Y-117218556D01*
X147291814Y-117179515D01*
X147300576Y-117175051D01*
X147322549Y-117159086D01*
X147472546Y-117050109D01*
X147472548Y-117050106D01*
X147472552Y-117050104D01*
X147622864Y-116899792D01*
X147622866Y-116899788D01*
X147622869Y-116899786D01*
X147747808Y-116727820D01*
X147747807Y-116727820D01*
X147747811Y-116727816D01*
X147844317Y-116538412D01*
X147891333Y-116393713D01*
X157492260Y-116393713D01*
X157492260Y-116606286D01*
X157525513Y-116816239D01*
X157591204Y-117018414D01*
X157687711Y-117207820D01*
X157812650Y-117379786D01*
X157962973Y-117530109D01*
X158134939Y-117655048D01*
X158134941Y-117655049D01*
X158134944Y-117655051D01*
X158324348Y-117751557D01*
X158526517Y-117817246D01*
X158736473Y-117850500D01*
X158736474Y-117850500D01*
X158949046Y-117850500D01*
X158949047Y-117850500D01*
X159159003Y-117817246D01*
X159361172Y-117751557D01*
X159550576Y-117655051D01*
X159572549Y-117639086D01*
X159722546Y-117530109D01*
X159722548Y-117530106D01*
X159722552Y-117530104D01*
X159872864Y-117379792D01*
X159872866Y-117379788D01*
X159872869Y-117379786D01*
X159997808Y-117207820D01*
X159997807Y-117207820D01*
X159997811Y-117207816D01*
X160094317Y-117018412D01*
X160160006Y-116816243D01*
X160193260Y-116606287D01*
X160193260Y-116393713D01*
X160160006Y-116183757D01*
X160094317Y-115981588D01*
X159997811Y-115792184D01*
X159997809Y-115792181D01*
X159997808Y-115792179D01*
X159872869Y-115620213D01*
X159722546Y-115469890D01*
X159550580Y-115344951D01*
X159361174Y-115248444D01*
X159361173Y-115248443D01*
X159361172Y-115248443D01*
X159159003Y-115182754D01*
X159159001Y-115182753D01*
X159159000Y-115182753D01*
X158997717Y-115157208D01*
X158949047Y-115149500D01*
X158736473Y-115149500D01*
X158687802Y-115157208D01*
X158526520Y-115182753D01*
X158324345Y-115248444D01*
X158134939Y-115344951D01*
X157962973Y-115469890D01*
X157812650Y-115620213D01*
X157687711Y-115792179D01*
X157591204Y-115981585D01*
X157525513Y-116183760D01*
X157492260Y-116393713D01*
X147891333Y-116393713D01*
X147910006Y-116336243D01*
X147943260Y-116126287D01*
X147943260Y-115913713D01*
X147910006Y-115703757D01*
X147844317Y-115501588D01*
X147747811Y-115312184D01*
X147747809Y-115312181D01*
X147747808Y-115312179D01*
X147622869Y-115140213D01*
X147472546Y-114989890D01*
X147300577Y-114864949D01*
X147291264Y-114860204D01*
X147240467Y-114812230D01*
X147223672Y-114744409D01*
X147246209Y-114678274D01*
X147291267Y-114639232D01*
X147300315Y-114634622D01*
X147354476Y-114595270D01*
X147354477Y-114595270D01*
X146722168Y-113962962D01*
X146785753Y-113945925D01*
X146899767Y-113880099D01*
X146992859Y-113787007D01*
X147058685Y-113672993D01*
X147075722Y-113609409D01*
X147708030Y-114241717D01*
X147708030Y-114241716D01*
X147747382Y-114187554D01*
X147843855Y-113998217D01*
X147909517Y-113796130D01*
X147909517Y-113796127D01*
X147942760Y-113586246D01*
X147942760Y-113373753D01*
X147909517Y-113163872D01*
X147909517Y-113163869D01*
X147843855Y-112961782D01*
X147747384Y-112772449D01*
X147708030Y-112718282D01*
X147708029Y-112718282D01*
X147075722Y-113350590D01*
X147058685Y-113287007D01*
X146992859Y-113172993D01*
X146899767Y-113079901D01*
X146785753Y-113014075D01*
X146722169Y-112997037D01*
X147354476Y-112364728D01*
X147300307Y-112325373D01*
X147300307Y-112325372D01*
X147291260Y-112320763D01*
X147240466Y-112272788D01*
X147223672Y-112204966D01*
X147246211Y-112138832D01*
X147291268Y-112099793D01*
X147300576Y-112095051D01*
X147436035Y-111996635D01*
X147472546Y-111970109D01*
X147472548Y-111970106D01*
X147472552Y-111970104D01*
X147622864Y-111819792D01*
X147622866Y-111819788D01*
X147622869Y-111819786D01*
X147747808Y-111647820D01*
X147747807Y-111647820D01*
X147747811Y-111647816D01*
X147844317Y-111458412D01*
X147910006Y-111256243D01*
X147943260Y-111046287D01*
X147943260Y-110833713D01*
X147910006Y-110623757D01*
X147844317Y-110421588D01*
X147747811Y-110232184D01*
X147747809Y-110232181D01*
X147747808Y-110232179D01*
X147622869Y-110060213D01*
X147472546Y-109909890D01*
X147300580Y-109784951D01*
X147299875Y-109784591D01*
X147291814Y-109780485D01*
X147241019Y-109732512D01*
X147224223Y-109664692D01*
X147246759Y-109598556D01*
X147291814Y-109559515D01*
X147300576Y-109555051D01*
X147322549Y-109539086D01*
X147472546Y-109430109D01*
X147472548Y-109430106D01*
X147472552Y-109430104D01*
X147622864Y-109279792D01*
X147622866Y-109279788D01*
X147622869Y-109279786D01*
X147747808Y-109107820D01*
X147747807Y-109107820D01*
X147747811Y-109107816D01*
X147844317Y-108918412D01*
X147910006Y-108716243D01*
X147943260Y-108506287D01*
X147943260Y-108293713D01*
X147910006Y-108083757D01*
X147844317Y-107881588D01*
X147747811Y-107692184D01*
X147747809Y-107692181D01*
X147747808Y-107692179D01*
X147622869Y-107520213D01*
X147472546Y-107369890D01*
X147300580Y-107244951D01*
X147299875Y-107244591D01*
X147291814Y-107240485D01*
X147241019Y-107192512D01*
X147224223Y-107124692D01*
X147246759Y-107058556D01*
X147291814Y-107019515D01*
X147300576Y-107015051D01*
X147323651Y-106998286D01*
X147472546Y-106890109D01*
X147472548Y-106890106D01*
X147472552Y-106890104D01*
X147622864Y-106739792D01*
X147622866Y-106739788D01*
X147622869Y-106739786D01*
X147747808Y-106567820D01*
X147747807Y-106567820D01*
X147747811Y-106567816D01*
X147844317Y-106378412D01*
X147910006Y-106176243D01*
X147943260Y-105966287D01*
X147943260Y-105753713D01*
X147910006Y-105543757D01*
X147844317Y-105341588D01*
X147747811Y-105152184D01*
X147747809Y-105152181D01*
X147747808Y-105152179D01*
X147622869Y-104980213D01*
X147472546Y-104829890D01*
X147300580Y-104704951D01*
X147299875Y-104704591D01*
X147291814Y-104700485D01*
X147241019Y-104652512D01*
X147224223Y-104584692D01*
X147246759Y-104518556D01*
X147291814Y-104479515D01*
X147300576Y-104475051D01*
X147322549Y-104459086D01*
X147472546Y-104350109D01*
X147472548Y-104350106D01*
X147472552Y-104350104D01*
X147622864Y-104199792D01*
X147622866Y-104199788D01*
X147622869Y-104199786D01*
X147747808Y-104027820D01*
X147747807Y-104027820D01*
X147747811Y-104027816D01*
X147844317Y-103838412D01*
X147910006Y-103636243D01*
X147943260Y-103426287D01*
X147943260Y-103213713D01*
X147910006Y-103003757D01*
X147844317Y-102801588D01*
X147747811Y-102612184D01*
X147747809Y-102612181D01*
X147747808Y-102612179D01*
X147622869Y-102440213D01*
X147472546Y-102289890D01*
X147300580Y-102164951D01*
X147296841Y-102163046D01*
X147291814Y-102160485D01*
X147241019Y-102112512D01*
X147224223Y-102044692D01*
X147246759Y-101978556D01*
X147291814Y-101939515D01*
X147300576Y-101935051D01*
X147376634Y-101879792D01*
X147472546Y-101810109D01*
X147472548Y-101810106D01*
X147472552Y-101810104D01*
X147622864Y-101659792D01*
X147622866Y-101659788D01*
X147622869Y-101659786D01*
X147747808Y-101487820D01*
X147747807Y-101487820D01*
X147747811Y-101487816D01*
X147844317Y-101298412D01*
X147910006Y-101096243D01*
X147942084Y-100893713D01*
X157492260Y-100893713D01*
X157492260Y-101106287D01*
X157525514Y-101316243D01*
X157591161Y-101518284D01*
X157591204Y-101518414D01*
X157687711Y-101707820D01*
X157812650Y-101879786D01*
X157962973Y-102030109D01*
X158134939Y-102155048D01*
X158134941Y-102155049D01*
X158134944Y-102155051D01*
X158324348Y-102251557D01*
X158526517Y-102317246D01*
X158736473Y-102350500D01*
X158736474Y-102350500D01*
X158949046Y-102350500D01*
X158949047Y-102350500D01*
X159159003Y-102317246D01*
X159361172Y-102251557D01*
X159550576Y-102155051D01*
X159590061Y-102126364D01*
X159722546Y-102030109D01*
X159722548Y-102030106D01*
X159722552Y-102030104D01*
X159872864Y-101879792D01*
X159872866Y-101879788D01*
X159872869Y-101879786D01*
X159997808Y-101707820D01*
X159997807Y-101707820D01*
X159997811Y-101707816D01*
X160094317Y-101518412D01*
X160160006Y-101316243D01*
X160193260Y-101106287D01*
X160193260Y-100893713D01*
X160160006Y-100683757D01*
X160094317Y-100481588D01*
X159997811Y-100292184D01*
X159997809Y-100292181D01*
X159997808Y-100292179D01*
X159872869Y-100120213D01*
X159722546Y-99969890D01*
X159550580Y-99844951D01*
X159361174Y-99748444D01*
X159361173Y-99748443D01*
X159361172Y-99748443D01*
X159159003Y-99682754D01*
X159159001Y-99682753D01*
X159159000Y-99682753D01*
X158983772Y-99655000D01*
X158949047Y-99649500D01*
X158736473Y-99649500D01*
X158701748Y-99655000D01*
X158526520Y-99682753D01*
X158324345Y-99748444D01*
X158134939Y-99844951D01*
X157962973Y-99969890D01*
X157812650Y-100120213D01*
X157687711Y-100292179D01*
X157591204Y-100481585D01*
X157525513Y-100683760D01*
X157504139Y-100818713D01*
X157492260Y-100893713D01*
X147942084Y-100893713D01*
X147943260Y-100886287D01*
X147943260Y-100673713D01*
X147910006Y-100463757D01*
X147844317Y-100261588D01*
X147747811Y-100072184D01*
X147747809Y-100072181D01*
X147747808Y-100072179D01*
X147622869Y-99900213D01*
X147472546Y-99749890D01*
X147300580Y-99624951D01*
X147299875Y-99624591D01*
X147291814Y-99620485D01*
X147241019Y-99572512D01*
X147224223Y-99504692D01*
X147246759Y-99438556D01*
X147291814Y-99399515D01*
X147300576Y-99395051D01*
X147322549Y-99379086D01*
X147472546Y-99270109D01*
X147472548Y-99270106D01*
X147472552Y-99270104D01*
X147622864Y-99119792D01*
X147622866Y-99119788D01*
X147622869Y-99119786D01*
X147747808Y-98947820D01*
X147747807Y-98947820D01*
X147747811Y-98947816D01*
X147844317Y-98758412D01*
X147910006Y-98556243D01*
X147943260Y-98346287D01*
X147943260Y-98133713D01*
X147910006Y-97923757D01*
X147844317Y-97721588D01*
X147747811Y-97532184D01*
X147747809Y-97532181D01*
X147747808Y-97532179D01*
X147622869Y-97360213D01*
X147472546Y-97209890D01*
X147300580Y-97084951D01*
X147299875Y-97084591D01*
X147291814Y-97080485D01*
X147241019Y-97032512D01*
X147224223Y-96964692D01*
X147246759Y-96898556D01*
X147291814Y-96859515D01*
X147300576Y-96855051D01*
X147323651Y-96838286D01*
X147472546Y-96730109D01*
X147472548Y-96730106D01*
X147472552Y-96730104D01*
X147622864Y-96579792D01*
X147622866Y-96579788D01*
X147622869Y-96579786D01*
X147747808Y-96407820D01*
X147747807Y-96407820D01*
X147747811Y-96407816D01*
X147844317Y-96218412D01*
X147910006Y-96016243D01*
X147943260Y-95806287D01*
X147943260Y-95593713D01*
X147910006Y-95383757D01*
X147844317Y-95181588D01*
X147747811Y-94992184D01*
X147747809Y-94992181D01*
X147747808Y-94992179D01*
X147622869Y-94820213D01*
X147472546Y-94669890D01*
X147300580Y-94544951D01*
X147299875Y-94544591D01*
X147291814Y-94540485D01*
X147241019Y-94492512D01*
X147224223Y-94424692D01*
X147246759Y-94358556D01*
X147291814Y-94319515D01*
X147300576Y-94315051D01*
X147322549Y-94299086D01*
X147472546Y-94190109D01*
X147472548Y-94190106D01*
X147472552Y-94190104D01*
X147622864Y-94039792D01*
X147622866Y-94039788D01*
X147622869Y-94039786D01*
X147747808Y-93867820D01*
X147747807Y-93867820D01*
X147747811Y-93867816D01*
X147844317Y-93678412D01*
X147910006Y-93476243D01*
X147943260Y-93266287D01*
X147943260Y-93053713D01*
X147910006Y-92843757D01*
X147844317Y-92641588D01*
X147747811Y-92452184D01*
X147747809Y-92452181D01*
X147747808Y-92452179D01*
X147622869Y-92280213D01*
X147472546Y-92129890D01*
X147300580Y-92004951D01*
X147299875Y-92004591D01*
X147291814Y-92000485D01*
X147241019Y-91952512D01*
X147224223Y-91884692D01*
X147246759Y-91818556D01*
X147291814Y-91779515D01*
X147300576Y-91775051D01*
X147322549Y-91759086D01*
X147472546Y-91650109D01*
X147472548Y-91650106D01*
X147472552Y-91650104D01*
X147622864Y-91499792D01*
X147622866Y-91499788D01*
X147622869Y-91499786D01*
X147747808Y-91327820D01*
X147747807Y-91327820D01*
X147747811Y-91327816D01*
X147844317Y-91138412D01*
X147910006Y-90936243D01*
X147943260Y-90726287D01*
X147943260Y-90513713D01*
X147910006Y-90303757D01*
X147844317Y-90101588D01*
X147747811Y-89912184D01*
X147747809Y-89912181D01*
X147747808Y-89912179D01*
X147622869Y-89740213D01*
X147472546Y-89589890D01*
X147300580Y-89464951D01*
X147299875Y-89464591D01*
X147291814Y-89460485D01*
X147241019Y-89412512D01*
X147224223Y-89344692D01*
X147246759Y-89278556D01*
X147291814Y-89239515D01*
X147300576Y-89235051D01*
X147322549Y-89219086D01*
X147472546Y-89110109D01*
X147472548Y-89110106D01*
X147472552Y-89110104D01*
X147622864Y-88959792D01*
X147622866Y-88959788D01*
X147622869Y-88959786D01*
X147747808Y-88787820D01*
X147747807Y-88787820D01*
X147747811Y-88787816D01*
X147844317Y-88598412D01*
X147910006Y-88396243D01*
X147943260Y-88186287D01*
X147943260Y-87973713D01*
X147910006Y-87763757D01*
X147844317Y-87561588D01*
X147747811Y-87372184D01*
X147747809Y-87372181D01*
X147747808Y-87372179D01*
X147622869Y-87200213D01*
X147472546Y-87049890D01*
X147300580Y-86924951D01*
X147299875Y-86924591D01*
X147291814Y-86920485D01*
X147241019Y-86872512D01*
X147224223Y-86804692D01*
X147246759Y-86738556D01*
X147291814Y-86699515D01*
X147300576Y-86695051D01*
X147322549Y-86679086D01*
X147472546Y-86570109D01*
X147472548Y-86570106D01*
X147472552Y-86570104D01*
X147622864Y-86419792D01*
X147622866Y-86419788D01*
X147622869Y-86419786D01*
X147747808Y-86247820D01*
X147747807Y-86247820D01*
X147747811Y-86247816D01*
X147844317Y-86058412D01*
X147910006Y-85856243D01*
X147943260Y-85646287D01*
X147943260Y-85433713D01*
X147910006Y-85223757D01*
X147844317Y-85021588D01*
X147747811Y-84832184D01*
X147747809Y-84832181D01*
X147747808Y-84832179D01*
X147622869Y-84660213D01*
X147509329Y-84546673D01*
X147475844Y-84485350D01*
X147480828Y-84415658D01*
X147522700Y-84359725D01*
X147553675Y-84342810D01*
X147685091Y-84293796D01*
X147800306Y-84207546D01*
X147886556Y-84092331D01*
X147936851Y-83957483D01*
X147943260Y-83897873D01*
X147943259Y-82247135D01*
X170239500Y-82247135D01*
X170239500Y-84042870D01*
X170239501Y-84042876D01*
X170245908Y-84102483D01*
X170296202Y-84237328D01*
X170296206Y-84237335D01*
X170382452Y-84352544D01*
X170382455Y-84352547D01*
X170497664Y-84438793D01*
X170497671Y-84438797D01*
X170629082Y-84487810D01*
X170685016Y-84529681D01*
X170709433Y-84595145D01*
X170694582Y-84663418D01*
X170673431Y-84691673D01*
X170559889Y-84805215D01*
X170434951Y-84977179D01*
X170338444Y-85166585D01*
X170272753Y-85368760D01*
X170262466Y-85433713D01*
X170239500Y-85578713D01*
X170239500Y-85791287D01*
X170272754Y-86001243D01*
X170308150Y-86110181D01*
X170338444Y-86203414D01*
X170434951Y-86392820D01*
X170559890Y-86564786D01*
X170710213Y-86715109D01*
X170882182Y-86840050D01*
X170890946Y-86844516D01*
X170941742Y-86892491D01*
X170958536Y-86960312D01*
X170935998Y-87026447D01*
X170890946Y-87065484D01*
X170882182Y-87069949D01*
X170710213Y-87194890D01*
X170559890Y-87345213D01*
X170434951Y-87517179D01*
X170338444Y-87706585D01*
X170272753Y-87908760D01*
X170262466Y-87973713D01*
X170239500Y-88118713D01*
X170239500Y-88331287D01*
X170272754Y-88541243D01*
X170291329Y-88598412D01*
X170338444Y-88743414D01*
X170434951Y-88932820D01*
X170559890Y-89104786D01*
X170710213Y-89255109D01*
X170882182Y-89380050D01*
X170890946Y-89384516D01*
X170941742Y-89432491D01*
X170958536Y-89500312D01*
X170935998Y-89566447D01*
X170890946Y-89605484D01*
X170882182Y-89609949D01*
X170710213Y-89734890D01*
X170559890Y-89885213D01*
X170434951Y-90057179D01*
X170338444Y-90246585D01*
X170272753Y-90448760D01*
X170239500Y-90658713D01*
X170239500Y-90871286D01*
X170272753Y-91081239D01*
X170272753Y-91081241D01*
X170272754Y-91081243D01*
X170312245Y-91202784D01*
X170338444Y-91283414D01*
X170434951Y-91472820D01*
X170559890Y-91644786D01*
X170710213Y-91795109D01*
X170882182Y-91920050D01*
X170890946Y-91924516D01*
X170941742Y-91972491D01*
X170958536Y-92040312D01*
X170935998Y-92106447D01*
X170890946Y-92145484D01*
X170882182Y-92149949D01*
X170710213Y-92274890D01*
X170559890Y-92425213D01*
X170434951Y-92597179D01*
X170338444Y-92786585D01*
X170272753Y-92988760D01*
X170239500Y-93198713D01*
X170239500Y-93411286D01*
X170272662Y-93620667D01*
X170272754Y-93621243D01*
X170336811Y-93818390D01*
X170338444Y-93823414D01*
X170434951Y-94012820D01*
X170559890Y-94184786D01*
X170710213Y-94335109D01*
X170882179Y-94460048D01*
X170882181Y-94460049D01*
X170882184Y-94460051D01*
X170891493Y-94464794D01*
X170942290Y-94512766D01*
X170959087Y-94580587D01*
X170936552Y-94646722D01*
X170891505Y-94685760D01*
X170882446Y-94690376D01*
X170882440Y-94690380D01*
X170828282Y-94729727D01*
X170828282Y-94729728D01*
X171460591Y-95362037D01*
X171397007Y-95379075D01*
X171282993Y-95444901D01*
X171189901Y-95537993D01*
X171124075Y-95652007D01*
X171107037Y-95715591D01*
X170474728Y-95083282D01*
X170474727Y-95083282D01*
X170435380Y-95137439D01*
X170338904Y-95326782D01*
X170273242Y-95528869D01*
X170273242Y-95528872D01*
X170240000Y-95738753D01*
X170240000Y-95951246D01*
X170273242Y-96161127D01*
X170273242Y-96161130D01*
X170338904Y-96363217D01*
X170435375Y-96552550D01*
X170474728Y-96606716D01*
X171107037Y-95974408D01*
X171124075Y-96037993D01*
X171189901Y-96152007D01*
X171282993Y-96245099D01*
X171397007Y-96310925D01*
X171460590Y-96327962D01*
X170828282Y-96960269D01*
X170828282Y-96960270D01*
X170882452Y-96999626D01*
X170882451Y-96999626D01*
X170891495Y-97004234D01*
X170942292Y-97052208D01*
X170959087Y-97120029D01*
X170936550Y-97186164D01*
X170891499Y-97225202D01*
X170882182Y-97229949D01*
X170710213Y-97354890D01*
X170559890Y-97505213D01*
X170434951Y-97677179D01*
X170338444Y-97866585D01*
X170272753Y-98068760D01*
X170243654Y-98252487D01*
X170239500Y-98278713D01*
X170239500Y-98491287D01*
X170240743Y-98499134D01*
X170270105Y-98684522D01*
X170272754Y-98701243D01*
X170314776Y-98830574D01*
X170338444Y-98903414D01*
X170434951Y-99092820D01*
X170559890Y-99264786D01*
X170710213Y-99415109D01*
X170882182Y-99540050D01*
X170890946Y-99544516D01*
X170941742Y-99592491D01*
X170958536Y-99660312D01*
X170935998Y-99726447D01*
X170890946Y-99765484D01*
X170882182Y-99769949D01*
X170710213Y-99894890D01*
X170559890Y-100045213D01*
X170434951Y-100217179D01*
X170338444Y-100406585D01*
X170272753Y-100608760D01*
X170239500Y-100818713D01*
X170239500Y-101031286D01*
X170250755Y-101102351D01*
X170272754Y-101241243D01*
X170315480Y-101372741D01*
X170338444Y-101443414D01*
X170434951Y-101632820D01*
X170559890Y-101804786D01*
X170710213Y-101955109D01*
X170882182Y-102080050D01*
X170890946Y-102084516D01*
X170941742Y-102132491D01*
X170958536Y-102200312D01*
X170935998Y-102266447D01*
X170890946Y-102305484D01*
X170882182Y-102309949D01*
X170710213Y-102434890D01*
X170559890Y-102585213D01*
X170434951Y-102757179D01*
X170338444Y-102946585D01*
X170272753Y-103148760D01*
X170268693Y-103174394D01*
X170239500Y-103358713D01*
X170239500Y-103571287D01*
X170245548Y-103609471D01*
X170263753Y-103724417D01*
X170272754Y-103781243D01*
X170336811Y-103978390D01*
X170338444Y-103983414D01*
X170434951Y-104172820D01*
X170559890Y-104344786D01*
X170710213Y-104495109D01*
X170882182Y-104620050D01*
X170890946Y-104624516D01*
X170941742Y-104672491D01*
X170958536Y-104740312D01*
X170935998Y-104806447D01*
X170890946Y-104845484D01*
X170882182Y-104849949D01*
X170710213Y-104974890D01*
X170559890Y-105125213D01*
X170434951Y-105297179D01*
X170338444Y-105486585D01*
X170338443Y-105486587D01*
X170338443Y-105486588D01*
X170331740Y-105507219D01*
X170272753Y-105688760D01*
X170259524Y-105772287D01*
X170239500Y-105898713D01*
X170239500Y-106111287D01*
X170248470Y-106167922D01*
X170272753Y-106321239D01*
X170272753Y-106321241D01*
X170272754Y-106321243D01*
X170297276Y-106396715D01*
X170338444Y-106523414D01*
X170434951Y-106712820D01*
X170559890Y-106884786D01*
X170710213Y-107035109D01*
X170882182Y-107160050D01*
X170890946Y-107164516D01*
X170941742Y-107212491D01*
X170958536Y-107280312D01*
X170935998Y-107346447D01*
X170890946Y-107385484D01*
X170882182Y-107389949D01*
X170710213Y-107514890D01*
X170559890Y-107665213D01*
X170434951Y-107837179D01*
X170338444Y-108026585D01*
X170272753Y-108228760D01*
X170262466Y-108293713D01*
X170239500Y-108438713D01*
X170239500Y-108651287D01*
X170272754Y-108861243D01*
X170291329Y-108918412D01*
X170338444Y-109063414D01*
X170434951Y-109252820D01*
X170559890Y-109424786D01*
X170710213Y-109575109D01*
X170882182Y-109700050D01*
X170890946Y-109704516D01*
X170941742Y-109752491D01*
X170958536Y-109820312D01*
X170935998Y-109886447D01*
X170890946Y-109925484D01*
X170882182Y-109929949D01*
X170710213Y-110054890D01*
X170559890Y-110205213D01*
X170434951Y-110377179D01*
X170338444Y-110566585D01*
X170272753Y-110768760D01*
X170262760Y-110831855D01*
X170239500Y-110978713D01*
X170239500Y-111191287D01*
X170272754Y-111401243D01*
X170333622Y-111588576D01*
X170338444Y-111603414D01*
X170434951Y-111792820D01*
X170559890Y-111964786D01*
X170710213Y-112115109D01*
X170882182Y-112240050D01*
X170890946Y-112244516D01*
X170941742Y-112292491D01*
X170958536Y-112360312D01*
X170935998Y-112426447D01*
X170890946Y-112465484D01*
X170882182Y-112469949D01*
X170710213Y-112594890D01*
X170559890Y-112745213D01*
X170434951Y-112917179D01*
X170338444Y-113106585D01*
X170272753Y-113308760D01*
X170239500Y-113518713D01*
X170239500Y-113731286D01*
X170263069Y-113880099D01*
X170272754Y-113941243D01*
X170317585Y-114079219D01*
X170338444Y-114143414D01*
X170434951Y-114332820D01*
X170559890Y-114504786D01*
X170710213Y-114655109D01*
X170882182Y-114780050D01*
X170890946Y-114784516D01*
X170941742Y-114832491D01*
X170958536Y-114900312D01*
X170935998Y-114966447D01*
X170890946Y-115005484D01*
X170882182Y-115009949D01*
X170710213Y-115134890D01*
X170559890Y-115285213D01*
X170434951Y-115457179D01*
X170338444Y-115646585D01*
X170272753Y-115848760D01*
X170239500Y-116058713D01*
X170239500Y-116271286D01*
X170258890Y-116393713D01*
X170272754Y-116481243D01*
X170313383Y-116606287D01*
X170338444Y-116683414D01*
X170434951Y-116872820D01*
X170559890Y-117044786D01*
X170710213Y-117195109D01*
X170882182Y-117320050D01*
X170890946Y-117324516D01*
X170941742Y-117372491D01*
X170958536Y-117440312D01*
X170935998Y-117506447D01*
X170890946Y-117545484D01*
X170882182Y-117549949D01*
X170710213Y-117674890D01*
X170559890Y-117825213D01*
X170434951Y-117997179D01*
X170338444Y-118186585D01*
X170272753Y-118388760D01*
X170239500Y-118598713D01*
X170239500Y-118811286D01*
X170267146Y-118985839D01*
X170272754Y-119021243D01*
X170331841Y-119203094D01*
X170338444Y-119223414D01*
X170434951Y-119412820D01*
X170559890Y-119584786D01*
X170710213Y-119735109D01*
X170882182Y-119860050D01*
X170890946Y-119864516D01*
X170941742Y-119912491D01*
X170958536Y-119980312D01*
X170935998Y-120046447D01*
X170890946Y-120085484D01*
X170882182Y-120089949D01*
X170710213Y-120214890D01*
X170559890Y-120365213D01*
X170434951Y-120537179D01*
X170338444Y-120726585D01*
X170272753Y-120928760D01*
X170239500Y-121138713D01*
X170239500Y-121351286D01*
X170267146Y-121525839D01*
X170272754Y-121561243D01*
X170320540Y-121708314D01*
X170338444Y-121763414D01*
X170434951Y-121952820D01*
X170559890Y-122124786D01*
X170710213Y-122275109D01*
X170882182Y-122400050D01*
X170890946Y-122404516D01*
X170941742Y-122452491D01*
X170958536Y-122520312D01*
X170935998Y-122586447D01*
X170890946Y-122625484D01*
X170882182Y-122629949D01*
X170710213Y-122754890D01*
X170559890Y-122905213D01*
X170434951Y-123077179D01*
X170338444Y-123266585D01*
X170272753Y-123468760D01*
X170239500Y-123678713D01*
X170239500Y-123891286D01*
X170267146Y-124065839D01*
X170272754Y-124101243D01*
X170304374Y-124198560D01*
X170338444Y-124303414D01*
X170434951Y-124492820D01*
X170559890Y-124664786D01*
X170710213Y-124815109D01*
X170882182Y-124940050D01*
X170890946Y-124944516D01*
X170941742Y-124992491D01*
X170958536Y-125060312D01*
X170935998Y-125126447D01*
X170890946Y-125165484D01*
X170882182Y-125169949D01*
X170710213Y-125294890D01*
X170559890Y-125445213D01*
X170434951Y-125617179D01*
X170338444Y-125806585D01*
X170272753Y-126008760D01*
X170239500Y-126218713D01*
X170239500Y-126431286D01*
X170267146Y-126605839D01*
X170272754Y-126641243D01*
X170291329Y-126698412D01*
X170338444Y-126843414D01*
X170434951Y-127032820D01*
X170559890Y-127204786D01*
X170710213Y-127355109D01*
X170882182Y-127480050D01*
X170890946Y-127484516D01*
X170941742Y-127532491D01*
X170958536Y-127600312D01*
X170935998Y-127666447D01*
X170890946Y-127705484D01*
X170882182Y-127709949D01*
X170710213Y-127834890D01*
X170559890Y-127985213D01*
X170434951Y-128157179D01*
X170338444Y-128346585D01*
X170272753Y-128548760D01*
X170239500Y-128758713D01*
X170239500Y-128971286D01*
X170267146Y-129145839D01*
X170272754Y-129181243D01*
X170274275Y-129185925D01*
X170338444Y-129383414D01*
X170434951Y-129572820D01*
X170559890Y-129744786D01*
X170710213Y-129895109D01*
X170882179Y-130020048D01*
X170882181Y-130020049D01*
X170882184Y-130020051D01*
X171071588Y-130116557D01*
X171273757Y-130182246D01*
X171483713Y-130215500D01*
X171483714Y-130215500D01*
X171696286Y-130215500D01*
X171696287Y-130215500D01*
X171906243Y-130182246D01*
X172108412Y-130116557D01*
X172297816Y-130020051D01*
X172389294Y-129953589D01*
X172469786Y-129895109D01*
X172469788Y-129895106D01*
X172469792Y-129895104D01*
X172620104Y-129744792D01*
X172620106Y-129744788D01*
X172620109Y-129744786D01*
X172745048Y-129572820D01*
X172745047Y-129572820D01*
X172745051Y-129572816D01*
X172841557Y-129383412D01*
X172907246Y-129181243D01*
X172940500Y-128971287D01*
X172940500Y-128758713D01*
X172907246Y-128548757D01*
X172841557Y-128346588D01*
X172745051Y-128157184D01*
X172745049Y-128157181D01*
X172745048Y-128157179D01*
X172620109Y-127985213D01*
X172469786Y-127834890D01*
X172297820Y-127709951D01*
X172297115Y-127709591D01*
X172289054Y-127705485D01*
X172238259Y-127657512D01*
X172221463Y-127589692D01*
X172243999Y-127523556D01*
X172289054Y-127484515D01*
X172297816Y-127480051D01*
X172389294Y-127413589D01*
X172469786Y-127355109D01*
X172469788Y-127355106D01*
X172469792Y-127355104D01*
X172620104Y-127204792D01*
X172620106Y-127204788D01*
X172620109Y-127204786D01*
X172745048Y-127032820D01*
X172745047Y-127032820D01*
X172745051Y-127032816D01*
X172841557Y-126843412D01*
X172907246Y-126641243D01*
X172940500Y-126431287D01*
X172940500Y-126218713D01*
X172907246Y-126008757D01*
X172841557Y-125806588D01*
X172745051Y-125617184D01*
X172745049Y-125617181D01*
X172745048Y-125617179D01*
X172620109Y-125445213D01*
X172469786Y-125294890D01*
X172297820Y-125169951D01*
X172297115Y-125169591D01*
X172289054Y-125165485D01*
X172238259Y-125117512D01*
X172221463Y-125049692D01*
X172243999Y-124983556D01*
X172289054Y-124944515D01*
X172297816Y-124940051D01*
X172425215Y-124847491D01*
X172469786Y-124815109D01*
X172469788Y-124815106D01*
X172469792Y-124815104D01*
X172620104Y-124664792D01*
X172620106Y-124664788D01*
X172620109Y-124664786D01*
X172745048Y-124492820D01*
X172745047Y-124492820D01*
X172745051Y-124492816D01*
X172841557Y-124303412D01*
X172907246Y-124101243D01*
X172940500Y-123891287D01*
X172940500Y-123678713D01*
X172907246Y-123468757D01*
X172841557Y-123266588D01*
X172745051Y-123077184D01*
X172745049Y-123077181D01*
X172745048Y-123077179D01*
X172620109Y-122905213D01*
X172469786Y-122754890D01*
X172297820Y-122629951D01*
X172297115Y-122629591D01*
X172289054Y-122625485D01*
X172238259Y-122577512D01*
X172221463Y-122509692D01*
X172243999Y-122443556D01*
X172289054Y-122404515D01*
X172297816Y-122400051D01*
X172425215Y-122307491D01*
X172469786Y-122275109D01*
X172469788Y-122275106D01*
X172469792Y-122275104D01*
X172620104Y-122124792D01*
X172620106Y-122124788D01*
X172620109Y-122124786D01*
X172745048Y-121952820D01*
X172745047Y-121952820D01*
X172745051Y-121952816D01*
X172841557Y-121763412D01*
X172907246Y-121561243D01*
X172940500Y-121351287D01*
X172940500Y-121138713D01*
X172907246Y-120928757D01*
X172841557Y-120726588D01*
X172745051Y-120537184D01*
X172745049Y-120537181D01*
X172745048Y-120537179D01*
X172620109Y-120365213D01*
X172469786Y-120214890D01*
X172297820Y-120089951D01*
X172297115Y-120089591D01*
X172289054Y-120085485D01*
X172238259Y-120037512D01*
X172221463Y-119969692D01*
X172243999Y-119903556D01*
X172289054Y-119864515D01*
X172297816Y-119860051D01*
X172347416Y-119824015D01*
X172469786Y-119735109D01*
X172469788Y-119735106D01*
X172469792Y-119735104D01*
X172620104Y-119584792D01*
X172620106Y-119584788D01*
X172620109Y-119584786D01*
X172745048Y-119412820D01*
X172745047Y-119412820D01*
X172745051Y-119412816D01*
X172841557Y-119223412D01*
X172907246Y-119021243D01*
X172940500Y-118811287D01*
X172940500Y-118598713D01*
X172907246Y-118388757D01*
X172841557Y-118186588D01*
X172787904Y-118081288D01*
X178922260Y-118081288D01*
X178922260Y-119281306D01*
X178922261Y-119281323D01*
X178932760Y-119384101D01*
X178932761Y-119384104D01*
X178974851Y-119511122D01*
X178987946Y-119550639D01*
X179080048Y-119699961D01*
X179204104Y-119824017D01*
X179353426Y-119916119D01*
X179435330Y-119943259D01*
X179492775Y-119983032D01*
X179519598Y-120047548D01*
X179507283Y-120116323D01*
X179469211Y-120161283D01*
X179375547Y-120229333D01*
X179375542Y-120229337D01*
X179230788Y-120374091D01*
X179110475Y-120539691D01*
X179017543Y-120722079D01*
X179017542Y-120722082D01*
X179017540Y-120722086D01*
X179008893Y-120748700D01*
X178954282Y-120916770D01*
X178922260Y-121118953D01*
X178922260Y-121323656D01*
X178954282Y-121525839D01*
X179017541Y-121720528D01*
X179110475Y-121902918D01*
X179230788Y-122068518D01*
X179375546Y-122213276D01*
X179530509Y-122325861D01*
X179541150Y-122333592D01*
X179612605Y-122370000D01*
X179633840Y-122380820D01*
X179684636Y-122428795D01*
X179701431Y-122496616D01*
X179678894Y-122562751D01*
X179633840Y-122601790D01*
X179541146Y-122649020D01*
X179375546Y-122769333D01*
X179230788Y-122914091D01*
X179110475Y-123079691D01*
X179017543Y-123262079D01*
X179017542Y-123262082D01*
X179017540Y-123262086D01*
X178997502Y-123323757D01*
X178954282Y-123456770D01*
X178922260Y-123658953D01*
X178922260Y-123863656D01*
X178954282Y-124065839D01*
X179017541Y-124260528D01*
X179110475Y-124442918D01*
X179230788Y-124608518D01*
X179375546Y-124753276D01*
X179530509Y-124865861D01*
X179541150Y-124873592D01*
X179612605Y-124910000D01*
X179633840Y-124920820D01*
X179684636Y-124968795D01*
X179701431Y-125036616D01*
X179678894Y-125102751D01*
X179633840Y-125141790D01*
X179541146Y-125189020D01*
X179375546Y-125309333D01*
X179230788Y-125454091D01*
X179110475Y-125619691D01*
X179017543Y-125802079D01*
X179017542Y-125802082D01*
X179017540Y-125802086D01*
X178997502Y-125863757D01*
X178954282Y-125996770D01*
X178922260Y-126198953D01*
X178922260Y-126403656D01*
X178954282Y-126605839D01*
X179017541Y-126800528D01*
X179110475Y-126982918D01*
X179230788Y-127148518D01*
X179375546Y-127293276D01*
X179505603Y-127387766D01*
X179541150Y-127413592D01*
X179602725Y-127444966D01*
X179633840Y-127460820D01*
X179684636Y-127508795D01*
X179701431Y-127576616D01*
X179678894Y-127642751D01*
X179633840Y-127681790D01*
X179541146Y-127729020D01*
X179375546Y-127849333D01*
X179230788Y-127994091D01*
X179110475Y-128159691D01*
X179017543Y-128342079D01*
X179017542Y-128342082D01*
X179017540Y-128342086D01*
X178997465Y-128403872D01*
X178954282Y-128536770D01*
X178922260Y-128738953D01*
X178922260Y-128943656D01*
X178954282Y-129145839D01*
X179017541Y-129340528D01*
X179110475Y-129522918D01*
X179230788Y-129688518D01*
X179375546Y-129833276D01*
X179460654Y-129895109D01*
X179541150Y-129953592D01*
X179657367Y-130012808D01*
X179723536Y-130046523D01*
X179723538Y-130046523D01*
X179723541Y-130046525D01*
X179795790Y-130070000D01*
X179918225Y-130109782D01*
X180019317Y-130125793D01*
X180120408Y-130141805D01*
X180120409Y-130141805D01*
X180325111Y-130141805D01*
X180325112Y-130141805D01*
X180527294Y-130109782D01*
X180721979Y-130046525D01*
X180904370Y-129953592D01*
X181067228Y-129835270D01*
X181069973Y-129833276D01*
X181069975Y-129833273D01*
X181069979Y-129833271D01*
X181214726Y-129688524D01*
X181214728Y-129688520D01*
X181214731Y-129688518D01*
X181298792Y-129572816D01*
X181335047Y-129522915D01*
X181427980Y-129340524D01*
X181491237Y-129145839D01*
X181523260Y-128943657D01*
X181523260Y-128738953D01*
X181493136Y-128548760D01*
X181491237Y-128536770D01*
X181448055Y-128403872D01*
X181427980Y-128342086D01*
X181427977Y-128342082D01*
X181427977Y-128342079D01*
X181356491Y-128201782D01*
X181335047Y-128159695D01*
X181327316Y-128149054D01*
X181214731Y-127994091D01*
X181069973Y-127849333D01*
X180904374Y-127729020D01*
X180866945Y-127709949D01*
X180811677Y-127681788D01*
X180760883Y-127633816D01*
X180744088Y-127565995D01*
X180766625Y-127499860D01*
X180811677Y-127460821D01*
X180904370Y-127413592D01*
X180939917Y-127387766D01*
X181069973Y-127293276D01*
X181069975Y-127293273D01*
X181069979Y-127293271D01*
X181214726Y-127148524D01*
X181214728Y-127148520D01*
X181214731Y-127148518D01*
X181298792Y-127032816D01*
X181335047Y-126982915D01*
X181427980Y-126800524D01*
X181491237Y-126605839D01*
X181523260Y-126403657D01*
X181523260Y-126198953D01*
X181493136Y-126008760D01*
X181491237Y-125996770D01*
X181448018Y-125863757D01*
X181427980Y-125802086D01*
X181427977Y-125802082D01*
X181427977Y-125802079D01*
X181393524Y-125734463D01*
X181335047Y-125619695D01*
X181327316Y-125609054D01*
X181214731Y-125454091D01*
X181069973Y-125309333D01*
X180904374Y-125189020D01*
X180866945Y-125169949D01*
X180811677Y-125141788D01*
X180760883Y-125093816D01*
X180744088Y-125025995D01*
X180766625Y-124959860D01*
X180811677Y-124920821D01*
X180904370Y-124873592D01*
X180984866Y-124815109D01*
X181069973Y-124753276D01*
X181069975Y-124753273D01*
X181069979Y-124753271D01*
X181214726Y-124608524D01*
X181214728Y-124608520D01*
X181214731Y-124608518D01*
X181298792Y-124492816D01*
X181335047Y-124442915D01*
X181427980Y-124260524D01*
X181491237Y-124065839D01*
X181523260Y-123863657D01*
X181523260Y-123658953D01*
X181503424Y-123533713D01*
X181491237Y-123456770D01*
X181448018Y-123323757D01*
X181427980Y-123262086D01*
X181427977Y-123262082D01*
X181427977Y-123262079D01*
X181393524Y-123194463D01*
X181335047Y-123079695D01*
X181327316Y-123069054D01*
X181214731Y-122914091D01*
X181069973Y-122769333D01*
X180904374Y-122649020D01*
X180866945Y-122629949D01*
X180811677Y-122601788D01*
X180760883Y-122553816D01*
X180744088Y-122485995D01*
X180766625Y-122419860D01*
X180811677Y-122380821D01*
X180904370Y-122333592D01*
X180984866Y-122275109D01*
X181069973Y-122213276D01*
X181069975Y-122213273D01*
X181069979Y-122213271D01*
X181214726Y-122068524D01*
X181214728Y-122068520D01*
X181214731Y-122068518D01*
X181298792Y-121952816D01*
X181335047Y-121902915D01*
X181427980Y-121720524D01*
X181491237Y-121525839D01*
X181523260Y-121323657D01*
X181523260Y-121118953D01*
X181493136Y-120928760D01*
X181491237Y-120916770D01*
X181436627Y-120748700D01*
X181427980Y-120722086D01*
X181427977Y-120722082D01*
X181427977Y-120722079D01*
X181393524Y-120654463D01*
X181335047Y-120539695D01*
X181308455Y-120503094D01*
X181214731Y-120374091D01*
X181069979Y-120229339D01*
X181050091Y-120214890D01*
X180976307Y-120161283D01*
X180933642Y-120105954D01*
X180927663Y-120036341D01*
X180960268Y-119974545D01*
X181010186Y-119943260D01*
X181092094Y-119916119D01*
X181241416Y-119824017D01*
X181365472Y-119699961D01*
X181457574Y-119550639D01*
X181512759Y-119384102D01*
X181523260Y-119281314D01*
X181523259Y-118578953D01*
X186542260Y-118578953D01*
X186542260Y-118783656D01*
X186574282Y-118985839D01*
X186637541Y-119180528D01*
X186730475Y-119362918D01*
X186850788Y-119528518D01*
X186995546Y-119673276D01*
X187138547Y-119777170D01*
X187161150Y-119793592D01*
X187232605Y-119830000D01*
X187253840Y-119840820D01*
X187304636Y-119888795D01*
X187321431Y-119956616D01*
X187298894Y-120022751D01*
X187253840Y-120061790D01*
X187161146Y-120109020D01*
X186995546Y-120229333D01*
X186850788Y-120374091D01*
X186730475Y-120539691D01*
X186637543Y-120722079D01*
X186637542Y-120722082D01*
X186637540Y-120722086D01*
X186628893Y-120748700D01*
X186574282Y-120916770D01*
X186542260Y-121118953D01*
X186542260Y-121323656D01*
X186574282Y-121525839D01*
X186637541Y-121720528D01*
X186730475Y-121902918D01*
X186850788Y-122068518D01*
X186995546Y-122213276D01*
X187150509Y-122325861D01*
X187161150Y-122333592D01*
X187232605Y-122370000D01*
X187253840Y-122380820D01*
X187304636Y-122428795D01*
X187321431Y-122496616D01*
X187298894Y-122562751D01*
X187253840Y-122601790D01*
X187161146Y-122649020D01*
X186995546Y-122769333D01*
X186850788Y-122914091D01*
X186730475Y-123079691D01*
X186637543Y-123262079D01*
X186637542Y-123262082D01*
X186637540Y-123262086D01*
X186617502Y-123323757D01*
X186574282Y-123456770D01*
X186542260Y-123658953D01*
X186542260Y-123863656D01*
X186574282Y-124065839D01*
X186637541Y-124260528D01*
X186730475Y-124442918D01*
X186850788Y-124608518D01*
X186995546Y-124753276D01*
X187150509Y-124865861D01*
X187161150Y-124873592D01*
X187232605Y-124910000D01*
X187253840Y-124920820D01*
X187304636Y-124968795D01*
X187321431Y-125036616D01*
X187298894Y-125102751D01*
X187253840Y-125141790D01*
X187161146Y-125189020D01*
X186995546Y-125309333D01*
X186850788Y-125454091D01*
X186730475Y-125619691D01*
X186637543Y-125802079D01*
X186637542Y-125802082D01*
X186637540Y-125802086D01*
X186617502Y-125863757D01*
X186574282Y-125996770D01*
X186542260Y-126198953D01*
X186542260Y-126403656D01*
X186574282Y-126605839D01*
X186637541Y-126800528D01*
X186730475Y-126982918D01*
X186850788Y-127148518D01*
X186995546Y-127293276D01*
X187125603Y-127387766D01*
X187161150Y-127413592D01*
X187222725Y-127444966D01*
X187253840Y-127460820D01*
X187304636Y-127508795D01*
X187321431Y-127576616D01*
X187298894Y-127642751D01*
X187253840Y-127681790D01*
X187161146Y-127729020D01*
X186995546Y-127849333D01*
X186850788Y-127994091D01*
X186730475Y-128159691D01*
X186637543Y-128342079D01*
X186637542Y-128342082D01*
X186637540Y-128342086D01*
X186617465Y-128403872D01*
X186574282Y-128536770D01*
X186542260Y-128738953D01*
X186542260Y-128943656D01*
X186574282Y-129145839D01*
X186637541Y-129340528D01*
X186730475Y-129522918D01*
X186850788Y-129688518D01*
X186995546Y-129833276D01*
X187080654Y-129895109D01*
X187161150Y-129953592D01*
X187277367Y-130012808D01*
X187343536Y-130046523D01*
X187343538Y-130046523D01*
X187343541Y-130046525D01*
X187415790Y-130070000D01*
X187538225Y-130109782D01*
X187639317Y-130125793D01*
X187740408Y-130141805D01*
X187740409Y-130141805D01*
X187945111Y-130141805D01*
X187945112Y-130141805D01*
X188147294Y-130109782D01*
X188341979Y-130046525D01*
X188524370Y-129953592D01*
X188687228Y-129835270D01*
X188689973Y-129833276D01*
X188689975Y-129833273D01*
X188689979Y-129833271D01*
X188834726Y-129688524D01*
X188834728Y-129688520D01*
X188834731Y-129688518D01*
X188918792Y-129572816D01*
X188955047Y-129522915D01*
X189047980Y-129340524D01*
X189111237Y-129145839D01*
X189143260Y-128943657D01*
X189143260Y-128738953D01*
X189113136Y-128548760D01*
X189111237Y-128536770D01*
X189068055Y-128403872D01*
X189047980Y-128342086D01*
X189047977Y-128342082D01*
X189047977Y-128342079D01*
X188976491Y-128201782D01*
X188955047Y-128159695D01*
X188947316Y-128149054D01*
X188834731Y-127994091D01*
X188689973Y-127849333D01*
X188524374Y-127729020D01*
X188486945Y-127709949D01*
X188431677Y-127681788D01*
X188380883Y-127633816D01*
X188364088Y-127565995D01*
X188386625Y-127499860D01*
X188431677Y-127460821D01*
X188524370Y-127413592D01*
X188559917Y-127387766D01*
X188689973Y-127293276D01*
X188689975Y-127293273D01*
X188689979Y-127293271D01*
X188834726Y-127148524D01*
X188834728Y-127148520D01*
X188834731Y-127148518D01*
X188918792Y-127032816D01*
X188955047Y-126982915D01*
X189047980Y-126800524D01*
X189111237Y-126605839D01*
X189143260Y-126403657D01*
X189143260Y-126198953D01*
X189113136Y-126008760D01*
X189111237Y-125996770D01*
X189068018Y-125863757D01*
X189047980Y-125802086D01*
X189047977Y-125802082D01*
X189047977Y-125802079D01*
X189013524Y-125734463D01*
X188955047Y-125619695D01*
X188947316Y-125609054D01*
X188834731Y-125454091D01*
X188689973Y-125309333D01*
X188524374Y-125189020D01*
X188486945Y-125169949D01*
X188431677Y-125141788D01*
X188380883Y-125093816D01*
X188364088Y-125025995D01*
X188386625Y-124959860D01*
X188431677Y-124920821D01*
X188524370Y-124873592D01*
X188604866Y-124815109D01*
X188689973Y-124753276D01*
X188689975Y-124753273D01*
X188689979Y-124753271D01*
X188834726Y-124608524D01*
X188834728Y-124608520D01*
X188834731Y-124608518D01*
X188918792Y-124492816D01*
X188955047Y-124442915D01*
X189047980Y-124260524D01*
X189111237Y-124065839D01*
X189143260Y-123863657D01*
X189143260Y-123658953D01*
X189123424Y-123533713D01*
X189111237Y-123456770D01*
X189068018Y-123323757D01*
X189047980Y-123262086D01*
X189047977Y-123262082D01*
X189047977Y-123262079D01*
X189013524Y-123194463D01*
X188955047Y-123079695D01*
X188947316Y-123069054D01*
X188834731Y-122914091D01*
X188689973Y-122769333D01*
X188524374Y-122649020D01*
X188486945Y-122629949D01*
X188431677Y-122601788D01*
X188380883Y-122553816D01*
X188364088Y-122485995D01*
X188386625Y-122419860D01*
X188431677Y-122380821D01*
X188524370Y-122333592D01*
X188604866Y-122275109D01*
X188689973Y-122213276D01*
X188689975Y-122213273D01*
X188689979Y-122213271D01*
X188834726Y-122068524D01*
X188834728Y-122068520D01*
X188834731Y-122068518D01*
X188918792Y-121952816D01*
X188955047Y-121902915D01*
X189047980Y-121720524D01*
X189111237Y-121525839D01*
X189143260Y-121323657D01*
X189143260Y-121118953D01*
X189113136Y-120928760D01*
X189111237Y-120916770D01*
X189056627Y-120748700D01*
X189047980Y-120722086D01*
X189047977Y-120722082D01*
X189047977Y-120722079D01*
X189013524Y-120654463D01*
X188955047Y-120539695D01*
X188928455Y-120503094D01*
X188834731Y-120374091D01*
X188689973Y-120229333D01*
X188524374Y-120109020D01*
X188517766Y-120105653D01*
X188431677Y-120061788D01*
X188380883Y-120013816D01*
X188364088Y-119945995D01*
X188386625Y-119879860D01*
X188431677Y-119840821D01*
X188524370Y-119793592D01*
X188604866Y-119735109D01*
X188689973Y-119673276D01*
X188689975Y-119673273D01*
X188689979Y-119673271D01*
X188834726Y-119528524D01*
X188834728Y-119528520D01*
X188834731Y-119528518D01*
X188910944Y-119423618D01*
X188955047Y-119362915D01*
X189047980Y-119180524D01*
X189111237Y-118985839D01*
X189143260Y-118783657D01*
X189143260Y-118578953D01*
X189113136Y-118388760D01*
X189111237Y-118376770D01*
X189068018Y-118243757D01*
X189047980Y-118182086D01*
X189047977Y-118182082D01*
X189047977Y-118182079D01*
X188996625Y-118081296D01*
X188955047Y-117999695D01*
X188939652Y-117978505D01*
X188834731Y-117834091D01*
X188689973Y-117689333D01*
X188524373Y-117569020D01*
X188524372Y-117569019D01*
X188524370Y-117569018D01*
X188447577Y-117529890D01*
X188341983Y-117476086D01*
X188147294Y-117412827D01*
X187972755Y-117385183D01*
X187945112Y-117380805D01*
X187740408Y-117380805D01*
X187716089Y-117384656D01*
X187538225Y-117412827D01*
X187343536Y-117476086D01*
X187161146Y-117569020D01*
X186995546Y-117689333D01*
X186850788Y-117834091D01*
X186730475Y-117999691D01*
X186637543Y-118182079D01*
X186637542Y-118182082D01*
X186637540Y-118182086D01*
X186617502Y-118243757D01*
X186574282Y-118376770D01*
X186542260Y-118578953D01*
X181523259Y-118578953D01*
X181523259Y-118081297D01*
X181512759Y-117978508D01*
X181457574Y-117811971D01*
X181365472Y-117662649D01*
X181241416Y-117538593D01*
X181092094Y-117446491D01*
X180925557Y-117391306D01*
X180925555Y-117391305D01*
X180822770Y-117380805D01*
X179622758Y-117380805D01*
X179622741Y-117380806D01*
X179519963Y-117391305D01*
X179519960Y-117391306D01*
X179353428Y-117446490D01*
X179353423Y-117446492D01*
X179204102Y-117538594D01*
X179080049Y-117662647D01*
X178987947Y-117811968D01*
X178987945Y-117811973D01*
X178983558Y-117825213D01*
X178932761Y-117978508D01*
X178932761Y-117978509D01*
X178932760Y-117978509D01*
X178922260Y-118081288D01*
X172787904Y-118081288D01*
X172745051Y-117997184D01*
X172745049Y-117997181D01*
X172745048Y-117997179D01*
X172620109Y-117825213D01*
X172469786Y-117674890D01*
X172297820Y-117549951D01*
X172297115Y-117549591D01*
X172289054Y-117545485D01*
X172238259Y-117497512D01*
X172221463Y-117429692D01*
X172243999Y-117363556D01*
X172289054Y-117324515D01*
X172297816Y-117320051D01*
X172425215Y-117227491D01*
X172469786Y-117195109D01*
X172469788Y-117195106D01*
X172469792Y-117195104D01*
X172620104Y-117044792D01*
X172620106Y-117044788D01*
X172620109Y-117044786D01*
X172745048Y-116872820D01*
X172745047Y-116872820D01*
X172745051Y-116872816D01*
X172841557Y-116683412D01*
X172907246Y-116481243D01*
X172940500Y-116271287D01*
X172940500Y-116058713D01*
X172907246Y-115848757D01*
X172841557Y-115646588D01*
X172745051Y-115457184D01*
X172745049Y-115457181D01*
X172745048Y-115457179D01*
X172620109Y-115285213D01*
X172469786Y-115134890D01*
X172297820Y-115009951D01*
X172297115Y-115009591D01*
X172289054Y-115005485D01*
X172238259Y-114957512D01*
X172221463Y-114889692D01*
X172243999Y-114823556D01*
X172289054Y-114784515D01*
X172297816Y-114780051D01*
X172332256Y-114755029D01*
X172469786Y-114655109D01*
X172469788Y-114655106D01*
X172469792Y-114655104D01*
X172620104Y-114504792D01*
X172620106Y-114504788D01*
X172620109Y-114504786D01*
X172745048Y-114332820D01*
X172745047Y-114332820D01*
X172745051Y-114332816D01*
X172841557Y-114143412D01*
X172907246Y-113941243D01*
X172940500Y-113731287D01*
X172940500Y-113518713D01*
X172935083Y-113484512D01*
X176145367Y-113484512D01*
X176145367Y-113689215D01*
X176177389Y-113891398D01*
X176240648Y-114086087D01*
X176292347Y-114187550D01*
X176330084Y-114261613D01*
X176333582Y-114268477D01*
X176453895Y-114434077D01*
X176598653Y-114578835D01*
X176735522Y-114678274D01*
X176764257Y-114699151D01*
X176853081Y-114744409D01*
X176946643Y-114792082D01*
X176946645Y-114792082D01*
X176946648Y-114792084D01*
X177008651Y-114812230D01*
X177141332Y-114855341D01*
X177242424Y-114871352D01*
X177343515Y-114887364D01*
X177343516Y-114887364D01*
X177548218Y-114887364D01*
X177548219Y-114887364D01*
X177750401Y-114855341D01*
X177945086Y-114792084D01*
X178127477Y-114699151D01*
X178220457Y-114631596D01*
X178293080Y-114578835D01*
X178293082Y-114578832D01*
X178293086Y-114578830D01*
X178437833Y-114434083D01*
X178437835Y-114434079D01*
X178437838Y-114434077D01*
X178511407Y-114332816D01*
X178558154Y-114268474D01*
X178651087Y-114086083D01*
X178714344Y-113891398D01*
X178746367Y-113689216D01*
X178746367Y-113484512D01*
X178745280Y-113477648D01*
X179542260Y-113477648D01*
X179542260Y-113682351D01*
X179574282Y-113884534D01*
X179637541Y-114079223D01*
X179701451Y-114204653D01*
X179720336Y-114241716D01*
X179730475Y-114261613D01*
X179850788Y-114427213D01*
X179995546Y-114571971D01*
X180150509Y-114684556D01*
X180161150Y-114692287D01*
X180263445Y-114744409D01*
X180343536Y-114785218D01*
X180343538Y-114785218D01*
X180343541Y-114785220D01*
X180426669Y-114812230D01*
X180538225Y-114848477D01*
X180612266Y-114860204D01*
X180740408Y-114880500D01*
X180740409Y-114880500D01*
X180945111Y-114880500D01*
X180945112Y-114880500D01*
X181147294Y-114848477D01*
X181341979Y-114785220D01*
X181524370Y-114692287D01*
X181680525Y-114578835D01*
X181689973Y-114571971D01*
X181689975Y-114571968D01*
X181689979Y-114571966D01*
X181834726Y-114427219D01*
X181834728Y-114427215D01*
X181834731Y-114427213D01*
X181903313Y-114332816D01*
X181955047Y-114261610D01*
X182047980Y-114079219D01*
X182111237Y-113884534D01*
X182143260Y-113682352D01*
X182143260Y-113477648D01*
X182120050Y-113331109D01*
X182111237Y-113275465D01*
X182050210Y-113087645D01*
X182047980Y-113080781D01*
X182047978Y-113080778D01*
X182047978Y-113080776D01*
X182012613Y-113011370D01*
X181955047Y-112898390D01*
X181900918Y-112823887D01*
X181834731Y-112732786D01*
X181689973Y-112588028D01*
X181524373Y-112467715D01*
X181524372Y-112467714D01*
X181524370Y-112467713D01*
X181443381Y-112426447D01*
X181341983Y-112374781D01*
X181147294Y-112311522D01*
X180970720Y-112283556D01*
X180945112Y-112279500D01*
X180740408Y-112279500D01*
X180726379Y-112281722D01*
X180538225Y-112311522D01*
X180343536Y-112374781D01*
X180161146Y-112467715D01*
X179995546Y-112588028D01*
X179850788Y-112732786D01*
X179730475Y-112898386D01*
X179637541Y-113080776D01*
X179574282Y-113275465D01*
X179542260Y-113477648D01*
X178745280Y-113477648D01*
X178714344Y-113282330D01*
X178712113Y-113275465D01*
X178663694Y-113126446D01*
X178651087Y-113087645D01*
X178651085Y-113087642D01*
X178651085Y-113087640D01*
X178604319Y-112995858D01*
X178558154Y-112905254D01*
X178504002Y-112830719D01*
X178437838Y-112739650D01*
X178293080Y-112594892D01*
X178127480Y-112474579D01*
X178127479Y-112474578D01*
X178127477Y-112474577D01*
X178033017Y-112426447D01*
X177945090Y-112381645D01*
X177750401Y-112318386D01*
X177574332Y-112290500D01*
X177548219Y-112286364D01*
X177343515Y-112286364D01*
X177319196Y-112290215D01*
X177141332Y-112318386D01*
X176946643Y-112381645D01*
X176764253Y-112474579D01*
X176598653Y-112594892D01*
X176453895Y-112739650D01*
X176333582Y-112905250D01*
X176240648Y-113087640D01*
X176177389Y-113282329D01*
X176145367Y-113484512D01*
X172935083Y-113484512D01*
X172907246Y-113308757D01*
X172841557Y-113106588D01*
X172745051Y-112917184D01*
X172745049Y-112917181D01*
X172745048Y-112917179D01*
X172620109Y-112745213D01*
X172469786Y-112594890D01*
X172297820Y-112469951D01*
X172295743Y-112468893D01*
X172289054Y-112465485D01*
X172238259Y-112417512D01*
X172221463Y-112349692D01*
X172243999Y-112283556D01*
X172289054Y-112244515D01*
X172297816Y-112240051D01*
X172395616Y-112168996D01*
X172469786Y-112115109D01*
X172469788Y-112115106D01*
X172469792Y-112115104D01*
X172620104Y-111964792D01*
X172620106Y-111964788D01*
X172620109Y-111964786D01*
X172745048Y-111792820D01*
X172745047Y-111792820D01*
X172745051Y-111792816D01*
X172841557Y-111603412D01*
X172907246Y-111401243D01*
X172940500Y-111191287D01*
X172940500Y-110978713D01*
X172907246Y-110768757D01*
X172841557Y-110566588D01*
X172745051Y-110377184D01*
X172745049Y-110377181D01*
X172745048Y-110377179D01*
X172620109Y-110205213D01*
X172469786Y-110054890D01*
X172297820Y-109929951D01*
X172297115Y-109929591D01*
X172289054Y-109925485D01*
X172238259Y-109877512D01*
X172221463Y-109809692D01*
X172243999Y-109743556D01*
X172289054Y-109704515D01*
X172297816Y-109700051D01*
X172364563Y-109651557D01*
X172469786Y-109575109D01*
X172469788Y-109575106D01*
X172469792Y-109575104D01*
X172620104Y-109424792D01*
X172620106Y-109424788D01*
X172620109Y-109424786D01*
X172745048Y-109252820D01*
X172745047Y-109252820D01*
X172745051Y-109252816D01*
X172841557Y-109063412D01*
X172907246Y-108861243D01*
X172940500Y-108651287D01*
X172940500Y-108438713D01*
X172907246Y-108228757D01*
X172841557Y-108026588D01*
X172745051Y-107837184D01*
X172745049Y-107837181D01*
X172745048Y-107837179D01*
X172620109Y-107665213D01*
X172469786Y-107514890D01*
X172297820Y-107389951D01*
X172297115Y-107389591D01*
X172289054Y-107385485D01*
X172238259Y-107337512D01*
X172221463Y-107269692D01*
X172243999Y-107203556D01*
X172289054Y-107164515D01*
X172297816Y-107160051D01*
X172425215Y-107067491D01*
X172469786Y-107035109D01*
X172469788Y-107035106D01*
X172469792Y-107035104D01*
X172620104Y-106884792D01*
X172620106Y-106884788D01*
X172620109Y-106884786D01*
X172745048Y-106712820D01*
X172745047Y-106712820D01*
X172745051Y-106712816D01*
X172841557Y-106523412D01*
X172882724Y-106396715D01*
X183989030Y-106396715D01*
X183989030Y-106601418D01*
X184021052Y-106803601D01*
X184084311Y-106998290D01*
X184177245Y-107180680D01*
X184297558Y-107346280D01*
X184442316Y-107491038D01*
X184597279Y-107603623D01*
X184607920Y-107611354D01*
X184713614Y-107665208D01*
X184790306Y-107704285D01*
X184790308Y-107704285D01*
X184790311Y-107704287D01*
X184894667Y-107738194D01*
X184984995Y-107767544D01*
X185086087Y-107783555D01*
X185187178Y-107799567D01*
X185187179Y-107799567D01*
X185391881Y-107799567D01*
X185391882Y-107799567D01*
X185594064Y-107767544D01*
X185788749Y-107704287D01*
X185971140Y-107611354D01*
X186096593Y-107520208D01*
X186136743Y-107491038D01*
X186136745Y-107491035D01*
X186136749Y-107491033D01*
X186281496Y-107346286D01*
X186281498Y-107346282D01*
X186281501Y-107346280D01*
X186346687Y-107256557D01*
X186401817Y-107180677D01*
X186494750Y-106998286D01*
X186558007Y-106803601D01*
X186590030Y-106601419D01*
X186590030Y-106396715D01*
X186558007Y-106194533D01*
X186494750Y-105999848D01*
X186494748Y-105999845D01*
X186494748Y-105999843D01*
X186442596Y-105897491D01*
X186401817Y-105817457D01*
X186394086Y-105806816D01*
X186281501Y-105651853D01*
X186136743Y-105507095D01*
X185971143Y-105386782D01*
X185971142Y-105386781D01*
X185971140Y-105386780D01*
X185882495Y-105341613D01*
X185788753Y-105293848D01*
X185594064Y-105230589D01*
X185419525Y-105202945D01*
X185391882Y-105198567D01*
X185187178Y-105198567D01*
X185162859Y-105202418D01*
X184984995Y-105230589D01*
X184790306Y-105293848D01*
X184607916Y-105386782D01*
X184442316Y-105507095D01*
X184297558Y-105651853D01*
X184177245Y-105817453D01*
X184084311Y-105999843D01*
X184021052Y-106194532D01*
X183989030Y-106396715D01*
X172882724Y-106396715D01*
X172907246Y-106321243D01*
X172940500Y-106111287D01*
X172940500Y-105898713D01*
X172907246Y-105688757D01*
X172841557Y-105486588D01*
X172745051Y-105297184D01*
X172745049Y-105297181D01*
X172745048Y-105297179D01*
X172620109Y-105125213D01*
X172469786Y-104974890D01*
X172297820Y-104849951D01*
X172297115Y-104849591D01*
X172289054Y-104845485D01*
X172238259Y-104797512D01*
X172221463Y-104729692D01*
X172243999Y-104663556D01*
X172289054Y-104624515D01*
X172297816Y-104620051D01*
X172383707Y-104557648D01*
X172469786Y-104495109D01*
X172469788Y-104495106D01*
X172469792Y-104495104D01*
X172620104Y-104344792D01*
X172620106Y-104344788D01*
X172620109Y-104344786D01*
X172745048Y-104172820D01*
X172745047Y-104172820D01*
X172745051Y-104172816D01*
X172841557Y-103983412D01*
X172907246Y-103781243D01*
X172940500Y-103571287D01*
X172940500Y-103358713D01*
X172935083Y-103324512D01*
X176145367Y-103324512D01*
X176145367Y-103529216D01*
X176147874Y-103545043D01*
X176177389Y-103731398D01*
X176240648Y-103926087D01*
X176304558Y-104051517D01*
X176329950Y-104101350D01*
X176333582Y-104108477D01*
X176453895Y-104274077D01*
X176598653Y-104418835D01*
X176735910Y-104518556D01*
X176764257Y-104539151D01*
X176864054Y-104590000D01*
X176946643Y-104632082D01*
X176946645Y-104632082D01*
X176946648Y-104632084D01*
X177009519Y-104652512D01*
X177141332Y-104695341D01*
X177202007Y-104704951D01*
X177343515Y-104727364D01*
X177343516Y-104727364D01*
X177548218Y-104727364D01*
X177548219Y-104727364D01*
X177750401Y-104695341D01*
X177945086Y-104632084D01*
X178127477Y-104539151D01*
X178220457Y-104471596D01*
X178293080Y-104418835D01*
X178293082Y-104418832D01*
X178293086Y-104418830D01*
X178437833Y-104274083D01*
X178437835Y-104274079D01*
X178437838Y-104274077D01*
X178509009Y-104176117D01*
X178558154Y-104108474D01*
X178651087Y-103926083D01*
X178714344Y-103731398D01*
X178746367Y-103529216D01*
X178746367Y-103324512D01*
X178745285Y-103317682D01*
X179542760Y-103317682D01*
X179542760Y-103522317D01*
X179574769Y-103724417D01*
X179638004Y-103919031D01*
X179730901Y-104101350D01*
X179730907Y-104101359D01*
X179763283Y-104145921D01*
X179763284Y-104145922D01*
X180442760Y-103466446D01*
X180442760Y-103472661D01*
X180470019Y-103574394D01*
X180522680Y-103665606D01*
X180597154Y-103740080D01*
X180688366Y-103792741D01*
X180790099Y-103820000D01*
X180796313Y-103820000D01*
X180116836Y-104499474D01*
X180161410Y-104531859D01*
X180343728Y-104624755D01*
X180538342Y-104687990D01*
X180740443Y-104720000D01*
X180945077Y-104720000D01*
X181147177Y-104687990D01*
X181341791Y-104624755D01*
X181524109Y-104531859D01*
X181568681Y-104499474D01*
X180889207Y-103820000D01*
X180895421Y-103820000D01*
X180997154Y-103792741D01*
X181088366Y-103740080D01*
X181162840Y-103665606D01*
X181215501Y-103574394D01*
X181242760Y-103472661D01*
X181242760Y-103466447D01*
X181922234Y-104145921D01*
X181954619Y-104101349D01*
X182047515Y-103919031D01*
X182110750Y-103724417D01*
X182142760Y-103522317D01*
X182142760Y-103317682D01*
X182110750Y-103115582D01*
X182047515Y-102920968D01*
X181954619Y-102738650D01*
X181922234Y-102694077D01*
X181922234Y-102694076D01*
X181242760Y-103373551D01*
X181242760Y-103367339D01*
X181215501Y-103265606D01*
X181162840Y-103174394D01*
X181088366Y-103099920D01*
X180997154Y-103047259D01*
X180895421Y-103020000D01*
X180889206Y-103020000D01*
X181568682Y-102340524D01*
X181568681Y-102340523D01*
X181524119Y-102308147D01*
X181524110Y-102308141D01*
X181341791Y-102215244D01*
X181147177Y-102152009D01*
X180945077Y-102120000D01*
X180740443Y-102120000D01*
X180538342Y-102152009D01*
X180343728Y-102215244D01*
X180161404Y-102308143D01*
X180116837Y-102340523D01*
X180116837Y-102340524D01*
X180796314Y-103020000D01*
X180790099Y-103020000D01*
X180688366Y-103047259D01*
X180597154Y-103099920D01*
X180522680Y-103174394D01*
X180470019Y-103265606D01*
X180442760Y-103367339D01*
X180442760Y-103373553D01*
X179763284Y-102694077D01*
X179763283Y-102694077D01*
X179730903Y-102738644D01*
X179638004Y-102920968D01*
X179574769Y-103115582D01*
X179542760Y-103317682D01*
X178745285Y-103317682D01*
X178714344Y-103122330D01*
X178712151Y-103115582D01*
X178664140Y-102967819D01*
X178651087Y-102927645D01*
X178651085Y-102927642D01*
X178651085Y-102927640D01*
X178617370Y-102861471D01*
X178558154Y-102745254D01*
X178520972Y-102694077D01*
X178437838Y-102579650D01*
X178293080Y-102434892D01*
X178127480Y-102314579D01*
X178127479Y-102314578D01*
X178127477Y-102314577D01*
X178037001Y-102268477D01*
X177945090Y-102221645D01*
X177750401Y-102158386D01*
X177575862Y-102130742D01*
X177548219Y-102126364D01*
X177343515Y-102126364D01*
X177319196Y-102130215D01*
X177141332Y-102158386D01*
X176946643Y-102221645D01*
X176764253Y-102314579D01*
X176598653Y-102434892D01*
X176453895Y-102579650D01*
X176333582Y-102745250D01*
X176240648Y-102927640D01*
X176177389Y-103122329D01*
X176154697Y-103265606D01*
X176145367Y-103324512D01*
X172935083Y-103324512D01*
X172907246Y-103148757D01*
X172841557Y-102946588D01*
X172745051Y-102757184D01*
X172745049Y-102757181D01*
X172745048Y-102757179D01*
X172620109Y-102585213D01*
X172469786Y-102434890D01*
X172297820Y-102309951D01*
X172294279Y-102308147D01*
X172289054Y-102305485D01*
X172238259Y-102257512D01*
X172221463Y-102189692D01*
X172243999Y-102123556D01*
X172289054Y-102084515D01*
X172297816Y-102080051D01*
X172366563Y-102030104D01*
X172469786Y-101955109D01*
X172469788Y-101955106D01*
X172469792Y-101955104D01*
X172620104Y-101804792D01*
X172620106Y-101804788D01*
X172620109Y-101804786D01*
X172745048Y-101632820D01*
X172745047Y-101632820D01*
X172745051Y-101632816D01*
X172841557Y-101443412D01*
X172907246Y-101241243D01*
X172940500Y-101031287D01*
X172940500Y-100818713D01*
X172907246Y-100608757D01*
X172841557Y-100406588D01*
X172745051Y-100217184D01*
X172745049Y-100217181D01*
X172745048Y-100217179D01*
X172620109Y-100045213D01*
X172469786Y-99894890D01*
X172297820Y-99769951D01*
X172297115Y-99769591D01*
X172289054Y-99765485D01*
X172238259Y-99717512D01*
X172221463Y-99649692D01*
X172243999Y-99583556D01*
X172289054Y-99544515D01*
X172297816Y-99540051D01*
X172425215Y-99447491D01*
X172469786Y-99415109D01*
X172469788Y-99415106D01*
X172469792Y-99415104D01*
X172620104Y-99264792D01*
X172620106Y-99264788D01*
X172620109Y-99264786D01*
X172745048Y-99092820D01*
X172745047Y-99092820D01*
X172745051Y-99092816D01*
X172841557Y-98903412D01*
X172907246Y-98701243D01*
X172940500Y-98491287D01*
X172940500Y-98278713D01*
X172907246Y-98068757D01*
X172841557Y-97866588D01*
X172745051Y-97677184D01*
X172745049Y-97677181D01*
X172745048Y-97677179D01*
X172620109Y-97505213D01*
X172469786Y-97354890D01*
X172428956Y-97325226D01*
X175382214Y-97325226D01*
X175382214Y-98770961D01*
X175382215Y-98770967D01*
X175388622Y-98830574D01*
X175438916Y-98965419D01*
X175438920Y-98965426D01*
X175525166Y-99080635D01*
X175525169Y-99080638D01*
X175640378Y-99166884D01*
X175640385Y-99166888D01*
X175775231Y-99217182D01*
X175775230Y-99217182D01*
X175782158Y-99217926D01*
X175834841Y-99223591D01*
X177280586Y-99223590D01*
X177340197Y-99217182D01*
X177475045Y-99166887D01*
X177590260Y-99080637D01*
X177676510Y-98965422D01*
X177726805Y-98830574D01*
X177733214Y-98770964D01*
X177733213Y-98435492D01*
X177752897Y-98368456D01*
X177805701Y-98322701D01*
X177874860Y-98312757D01*
X177938415Y-98341782D01*
X177975144Y-98397176D01*
X178008335Y-98499326D01*
X178008334Y-98499326D01*
X178092203Y-98663925D01*
X178092336Y-98664187D01*
X178201093Y-98813878D01*
X178331927Y-98944712D01*
X178481618Y-99053469D01*
X178534938Y-99080637D01*
X178646478Y-99137470D01*
X178646481Y-99137471D01*
X178734464Y-99166058D01*
X178822450Y-99194646D01*
X179005200Y-99223591D01*
X179005201Y-99223591D01*
X179190227Y-99223591D01*
X179190228Y-99223591D01*
X179372978Y-99194646D01*
X179548949Y-99137470D01*
X179713810Y-99053469D01*
X179863501Y-98944712D01*
X179994335Y-98813878D01*
X180103092Y-98664187D01*
X180187093Y-98499326D01*
X180244269Y-98323355D01*
X180245493Y-98315620D01*
X180275421Y-98252487D01*
X180334731Y-98215554D01*
X180404593Y-98216550D01*
X180462827Y-98255158D01*
X180490440Y-98315616D01*
X180491647Y-98323240D01*
X180548797Y-98499131D01*
X180548798Y-98499134D01*
X180632764Y-98663925D01*
X180647729Y-98684521D01*
X180647730Y-98684522D01*
X181195575Y-98136676D01*
X181218381Y-98221785D01*
X181277624Y-98324397D01*
X181361408Y-98408181D01*
X181464020Y-98467424D01*
X181549128Y-98490228D01*
X181001282Y-99038074D01*
X181001282Y-99038075D01*
X181021879Y-99053040D01*
X181186670Y-99137006D01*
X181186673Y-99137007D01*
X181362566Y-99194157D01*
X181545241Y-99223091D01*
X181730187Y-99223091D01*
X181912861Y-99194157D01*
X182088754Y-99137007D01*
X182088757Y-99137006D01*
X182253550Y-99053038D01*
X182253559Y-99053033D01*
X182274144Y-99038075D01*
X182274145Y-99038074D01*
X181726299Y-98490228D01*
X181811408Y-98467424D01*
X181914020Y-98408181D01*
X181997804Y-98324397D01*
X182057047Y-98221785D01*
X182079852Y-98136676D01*
X182627697Y-98684521D01*
X182627698Y-98684521D01*
X182642656Y-98663936D01*
X182642661Y-98663927D01*
X182726629Y-98499134D01*
X182726630Y-98499131D01*
X182783780Y-98323238D01*
X182812714Y-98140564D01*
X182812714Y-97955617D01*
X182783780Y-97772943D01*
X182726630Y-97597050D01*
X182726629Y-97597047D01*
X182642663Y-97432256D01*
X182627697Y-97411659D01*
X182079851Y-97959505D01*
X182057047Y-97874397D01*
X181997804Y-97771785D01*
X181914020Y-97688001D01*
X181811408Y-97628758D01*
X181726299Y-97605952D01*
X182274145Y-97058107D01*
X182274144Y-97058106D01*
X182253548Y-97043141D01*
X182088757Y-96959175D01*
X182088754Y-96959174D01*
X181912861Y-96902024D01*
X181730187Y-96873091D01*
X181545241Y-96873091D01*
X181362566Y-96902024D01*
X181186673Y-96959174D01*
X181186670Y-96959175D01*
X181021881Y-97043140D01*
X181001282Y-97058106D01*
X181549129Y-97605952D01*
X181464020Y-97628758D01*
X181361408Y-97688001D01*
X181277624Y-97771785D01*
X181218381Y-97874397D01*
X181195575Y-97959505D01*
X180647729Y-97411659D01*
X180632763Y-97432258D01*
X180548798Y-97597047D01*
X180548797Y-97597050D01*
X180491647Y-97772941D01*
X180490440Y-97780566D01*
X180460508Y-97843700D01*
X180401195Y-97880629D01*
X180331333Y-97879629D01*
X180273101Y-97841017D01*
X180245493Y-97780561D01*
X180244269Y-97772827D01*
X180190566Y-97607544D01*
X180187094Y-97596858D01*
X180187093Y-97596855D01*
X180103226Y-97432258D01*
X180103092Y-97431995D01*
X179994335Y-97282304D01*
X179863501Y-97151470D01*
X179713810Y-97042713D01*
X179697691Y-97034500D01*
X179548949Y-96958711D01*
X179548946Y-96958710D01*
X179372979Y-96901536D01*
X179230686Y-96878999D01*
X179190228Y-96872591D01*
X179005200Y-96872591D01*
X178964742Y-96878999D01*
X178822448Y-96901536D01*
X178646481Y-96958710D01*
X178646478Y-96958711D01*
X178481617Y-97042713D01*
X178429628Y-97080486D01*
X178331927Y-97151470D01*
X178331925Y-97151472D01*
X178331924Y-97151472D01*
X178201095Y-97282301D01*
X178201095Y-97282302D01*
X178201093Y-97282304D01*
X178169913Y-97325220D01*
X178092336Y-97431994D01*
X178008334Y-97596855D01*
X178008333Y-97596858D01*
X177975144Y-97699006D01*
X177935706Y-97756682D01*
X177871348Y-97783880D01*
X177802501Y-97771965D01*
X177751026Y-97724721D01*
X177733213Y-97660688D01*
X177733213Y-97325220D01*
X177733212Y-97325214D01*
X177733211Y-97325207D01*
X177726805Y-97265608D01*
X177711735Y-97225204D01*
X177676511Y-97130762D01*
X177676507Y-97130755D01*
X177590261Y-97015546D01*
X177590258Y-97015543D01*
X177475049Y-96929297D01*
X177475042Y-96929293D01*
X177340196Y-96878999D01*
X177340197Y-96878999D01*
X177280597Y-96872592D01*
X177280595Y-96872591D01*
X177280587Y-96872591D01*
X177280578Y-96872591D01*
X175834843Y-96872591D01*
X175834837Y-96872592D01*
X175775230Y-96878999D01*
X175640385Y-96929293D01*
X175640378Y-96929297D01*
X175525169Y-97015543D01*
X175525166Y-97015546D01*
X175438920Y-97130755D01*
X175438916Y-97130762D01*
X175388622Y-97265608D01*
X175382215Y-97325207D01*
X175382215Y-97325214D01*
X175382214Y-97325226D01*
X172428956Y-97325226D01*
X172297817Y-97229949D01*
X172288504Y-97225204D01*
X172237707Y-97177230D01*
X172220912Y-97109409D01*
X172243449Y-97043274D01*
X172288507Y-97004232D01*
X172297555Y-96999622D01*
X172351716Y-96960270D01*
X172351717Y-96960270D01*
X171719408Y-96327962D01*
X171782993Y-96310925D01*
X171897007Y-96245099D01*
X171990099Y-96152007D01*
X172055925Y-96037993D01*
X172072962Y-95974408D01*
X172705270Y-96606717D01*
X172705270Y-96606716D01*
X172744622Y-96552554D01*
X172841095Y-96363217D01*
X172882199Y-96236715D01*
X183989030Y-96236715D01*
X183989030Y-96441418D01*
X184021052Y-96643601D01*
X184084311Y-96838290D01*
X184145669Y-96958710D01*
X184174628Y-97015545D01*
X184177245Y-97020680D01*
X184297558Y-97186280D01*
X184442316Y-97331038D01*
X184581636Y-97432258D01*
X184607920Y-97451354D01*
X184713614Y-97505208D01*
X184790306Y-97544285D01*
X184790308Y-97544285D01*
X184790311Y-97544287D01*
X184894667Y-97578194D01*
X184984995Y-97607544D01*
X185086087Y-97623555D01*
X185187178Y-97639567D01*
X185187179Y-97639567D01*
X185391881Y-97639567D01*
X185391882Y-97639567D01*
X185594064Y-97607544D01*
X185788749Y-97544287D01*
X185971140Y-97451354D01*
X186096593Y-97360208D01*
X186136743Y-97331038D01*
X186136745Y-97331035D01*
X186136749Y-97331033D01*
X186281496Y-97186286D01*
X186281498Y-97186282D01*
X186281501Y-97186280D01*
X186337350Y-97109409D01*
X186401817Y-97020677D01*
X186494750Y-96838286D01*
X186558007Y-96643601D01*
X186590030Y-96441419D01*
X186590030Y-96236715D01*
X186558007Y-96034533D01*
X186494750Y-95839848D01*
X186494748Y-95839845D01*
X186494748Y-95839843D01*
X186443239Y-95738753D01*
X186401817Y-95657457D01*
X186394086Y-95646816D01*
X186281501Y-95491853D01*
X186136743Y-95347095D01*
X185971143Y-95226782D01*
X185971142Y-95226781D01*
X185971140Y-95226780D01*
X185914183Y-95197758D01*
X185788753Y-95133848D01*
X185594064Y-95070589D01*
X185419525Y-95042945D01*
X185391882Y-95038567D01*
X185187178Y-95038567D01*
X185162859Y-95042418D01*
X184984995Y-95070589D01*
X184790306Y-95133848D01*
X184607916Y-95226782D01*
X184442316Y-95347095D01*
X184297558Y-95491853D01*
X184177245Y-95657453D01*
X184084311Y-95839843D01*
X184021052Y-96034532D01*
X183989030Y-96236715D01*
X172882199Y-96236715D01*
X172896232Y-96193525D01*
X172896232Y-96193524D01*
X172906756Y-96161134D01*
X172906757Y-96161127D01*
X172940000Y-95951246D01*
X172940000Y-95738753D01*
X172906757Y-95528872D01*
X172906757Y-95528869D01*
X172841095Y-95326782D01*
X172744624Y-95137449D01*
X172705270Y-95083282D01*
X172705269Y-95083282D01*
X172072962Y-95715590D01*
X172055925Y-95652007D01*
X171990099Y-95537993D01*
X171897007Y-95444901D01*
X171782993Y-95379075D01*
X171719409Y-95362037D01*
X172351716Y-94729728D01*
X172297547Y-94690373D01*
X172297547Y-94690372D01*
X172288500Y-94685763D01*
X172237706Y-94637788D01*
X172220912Y-94569966D01*
X172243451Y-94503832D01*
X172288508Y-94464793D01*
X172297816Y-94460051D01*
X172389343Y-94393553D01*
X172469786Y-94335109D01*
X172469788Y-94335106D01*
X172469792Y-94335104D01*
X172620104Y-94184792D01*
X172620106Y-94184788D01*
X172620109Y-94184786D01*
X172745048Y-94012820D01*
X172745047Y-94012820D01*
X172745051Y-94012816D01*
X172841557Y-93823412D01*
X172907246Y-93621243D01*
X172940500Y-93411287D01*
X172940500Y-93198713D01*
X172907246Y-92988757D01*
X172841557Y-92786588D01*
X172745051Y-92597184D01*
X172745049Y-92597181D01*
X172745048Y-92597179D01*
X172620109Y-92425213D01*
X172469786Y-92274890D01*
X172297820Y-92149951D01*
X172297115Y-92149591D01*
X172289054Y-92145485D01*
X172238259Y-92097512D01*
X172221463Y-92029692D01*
X172243999Y-91963556D01*
X172289054Y-91924515D01*
X172297816Y-91920051D01*
X172425215Y-91827491D01*
X172469786Y-91795109D01*
X172469788Y-91795106D01*
X172469792Y-91795104D01*
X172620104Y-91644792D01*
X172620106Y-91644788D01*
X172620109Y-91644786D01*
X172745048Y-91472820D01*
X172745047Y-91472820D01*
X172745051Y-91472816D01*
X172841557Y-91283412D01*
X172907246Y-91081243D01*
X172937062Y-90892991D01*
X181146328Y-90892991D01*
X181146328Y-91129186D01*
X181183274Y-91362457D01*
X181256261Y-91587085D01*
X181288374Y-91650109D01*
X181363485Y-91797522D01*
X181502311Y-91988599D01*
X181669318Y-92155606D01*
X181860395Y-92294432D01*
X181959819Y-92345091D01*
X182070831Y-92401655D01*
X182070833Y-92401655D01*
X182070836Y-92401657D01*
X182143334Y-92425213D01*
X182295459Y-92474642D01*
X182528731Y-92511589D01*
X182528736Y-92511589D01*
X182764925Y-92511589D01*
X182998196Y-92474642D01*
X183067314Y-92452184D01*
X183222820Y-92401657D01*
X183433261Y-92294432D01*
X183624338Y-92155606D01*
X183791345Y-91988599D01*
X183930171Y-91797522D01*
X184037396Y-91587081D01*
X184110381Y-91362457D01*
X184122900Y-91283414D01*
X184147328Y-91129186D01*
X184147328Y-90892991D01*
X184110381Y-90659720D01*
X184056053Y-90492517D01*
X184037396Y-90435097D01*
X184037394Y-90435094D01*
X184037394Y-90435092D01*
X183939240Y-90242455D01*
X183930171Y-90224656D01*
X183791345Y-90033579D01*
X183624338Y-89866572D01*
X183433261Y-89727746D01*
X183222824Y-89620522D01*
X182998196Y-89547535D01*
X182764925Y-89510589D01*
X182764920Y-89510589D01*
X182528736Y-89510589D01*
X182528731Y-89510589D01*
X182295459Y-89547535D01*
X182070831Y-89620522D01*
X181860394Y-89727746D01*
X181751378Y-89806951D01*
X181669318Y-89866572D01*
X181669316Y-89866574D01*
X181669315Y-89866574D01*
X181502313Y-90033576D01*
X181502313Y-90033577D01*
X181502311Y-90033579D01*
X181449761Y-90105908D01*
X181363485Y-90224655D01*
X181256261Y-90435092D01*
X181183274Y-90659720D01*
X181146328Y-90892991D01*
X172937062Y-90892991D01*
X172940500Y-90871287D01*
X172940500Y-90658713D01*
X172907246Y-90448757D01*
X172841557Y-90246588D01*
X172745051Y-90057184D01*
X172745049Y-90057181D01*
X172745048Y-90057179D01*
X172620109Y-89885213D01*
X172469786Y-89734890D01*
X172297820Y-89609951D01*
X172297115Y-89609591D01*
X172289054Y-89605485D01*
X172238259Y-89557512D01*
X172221463Y-89489692D01*
X172243999Y-89423556D01*
X172289054Y-89384515D01*
X172297816Y-89380051D01*
X172425215Y-89287491D01*
X172469786Y-89255109D01*
X172469788Y-89255106D01*
X172469792Y-89255104D01*
X172620104Y-89104792D01*
X172620106Y-89104788D01*
X172620109Y-89104786D01*
X172745048Y-88932820D01*
X172745047Y-88932820D01*
X172745051Y-88932816D01*
X172841557Y-88743412D01*
X172907246Y-88541243D01*
X172940500Y-88331287D01*
X172940500Y-88118713D01*
X172907246Y-87908757D01*
X172841557Y-87706588D01*
X172745051Y-87517184D01*
X172745049Y-87517181D01*
X172745048Y-87517179D01*
X172620109Y-87345213D01*
X172469786Y-87194890D01*
X172297820Y-87069951D01*
X172297115Y-87069591D01*
X172289054Y-87065485D01*
X172238259Y-87017512D01*
X172221463Y-86949692D01*
X172243999Y-86883556D01*
X172289054Y-86844515D01*
X172297816Y-86840051D01*
X172425215Y-86747491D01*
X172469786Y-86715109D01*
X172469788Y-86715106D01*
X172469792Y-86715104D01*
X172620104Y-86564792D01*
X172620106Y-86564788D01*
X172620109Y-86564786D01*
X172745048Y-86392820D01*
X172745047Y-86392820D01*
X172745051Y-86392816D01*
X172841557Y-86203412D01*
X172907246Y-86001243D01*
X172940500Y-85791287D01*
X172940500Y-85578713D01*
X172907246Y-85368757D01*
X172841557Y-85166588D01*
X172745051Y-84977184D01*
X172745049Y-84977181D01*
X172745048Y-84977179D01*
X172620109Y-84805213D01*
X172506569Y-84691673D01*
X172473084Y-84630350D01*
X172478068Y-84560658D01*
X172519940Y-84504725D01*
X172550915Y-84487810D01*
X172682331Y-84438796D01*
X172797546Y-84352546D01*
X172883796Y-84237331D01*
X172934091Y-84102483D01*
X172940500Y-84042873D01*
X172940499Y-83292991D01*
X181146328Y-83292991D01*
X181146328Y-83529186D01*
X181183274Y-83762457D01*
X181256261Y-83987085D01*
X181336383Y-84144331D01*
X181363485Y-84197522D01*
X181502311Y-84388599D01*
X181669318Y-84555606D01*
X181860395Y-84694432D01*
X181905755Y-84717544D01*
X182070831Y-84801655D01*
X182070833Y-84801655D01*
X182070836Y-84801657D01*
X182164773Y-84832179D01*
X182295459Y-84874642D01*
X182528731Y-84911589D01*
X182528736Y-84911589D01*
X182764925Y-84911589D01*
X182998196Y-84874642D01*
X183041720Y-84860500D01*
X183222820Y-84801657D01*
X183433261Y-84694432D01*
X183624338Y-84555606D01*
X183791345Y-84388599D01*
X183930171Y-84197522D01*
X184037396Y-83987081D01*
X184110381Y-83762457D01*
X184135354Y-83604784D01*
X184147328Y-83529186D01*
X184147328Y-83292991D01*
X184110381Y-83059720D01*
X184037394Y-82835092D01*
X183941526Y-82646942D01*
X183930171Y-82624656D01*
X183791345Y-82433579D01*
X183624338Y-82266572D01*
X183433261Y-82127746D01*
X183427834Y-82124981D01*
X183222824Y-82020522D01*
X182998196Y-81947535D01*
X182764925Y-81910589D01*
X182764920Y-81910589D01*
X182528736Y-81910589D01*
X182528731Y-81910589D01*
X182295459Y-81947535D01*
X182070831Y-82020522D01*
X181860394Y-82127746D01*
X181757573Y-82202451D01*
X181669318Y-82266572D01*
X181669316Y-82266574D01*
X181669315Y-82266574D01*
X181502313Y-82433576D01*
X181502313Y-82433577D01*
X181502311Y-82433579D01*
X181445250Y-82512116D01*
X181363485Y-82624655D01*
X181256261Y-82835092D01*
X181183274Y-83059720D01*
X181146328Y-83292991D01*
X172940499Y-83292991D01*
X172940499Y-83124000D01*
X172940499Y-82247129D01*
X172940498Y-82247123D01*
X172940497Y-82247116D01*
X172934091Y-82187517D01*
X172929242Y-82174517D01*
X172883797Y-82052671D01*
X172883793Y-82052664D01*
X172797547Y-81937455D01*
X172797544Y-81937452D01*
X172682335Y-81851206D01*
X172682328Y-81851202D01*
X172547482Y-81800908D01*
X172547483Y-81800908D01*
X172487883Y-81794501D01*
X172487881Y-81794500D01*
X172487873Y-81794500D01*
X172487864Y-81794500D01*
X170692129Y-81794500D01*
X170692123Y-81794501D01*
X170632516Y-81800908D01*
X170497671Y-81851202D01*
X170497664Y-81851206D01*
X170382455Y-81937452D01*
X170382452Y-81937455D01*
X170296206Y-82052664D01*
X170296202Y-82052671D01*
X170245908Y-82187517D01*
X170239501Y-82247116D01*
X170239501Y-82247123D01*
X170239500Y-82247135D01*
X147943259Y-82247135D01*
X147943259Y-82102128D01*
X147936851Y-82042517D01*
X147929274Y-82022203D01*
X147886557Y-81907671D01*
X147886553Y-81907664D01*
X147800307Y-81792455D01*
X147800304Y-81792452D01*
X147685095Y-81706206D01*
X147685088Y-81706202D01*
X147550242Y-81655908D01*
X147550243Y-81655908D01*
X147490643Y-81649501D01*
X147490641Y-81649500D01*
X147490633Y-81649500D01*
X147490624Y-81649500D01*
X145694889Y-81649500D01*
X145694883Y-81649501D01*
X145635276Y-81655908D01*
X145500431Y-81706202D01*
X145500424Y-81706206D01*
X145385215Y-81792452D01*
X145385212Y-81792455D01*
X145298966Y-81907664D01*
X145298962Y-81907671D01*
X145248668Y-82042517D01*
X145244940Y-82077199D01*
X145242261Y-82102123D01*
X145242260Y-82102135D01*
X139894469Y-82102135D01*
X139876353Y-82077200D01*
X139876352Y-82077199D01*
X139144200Y-82809352D01*
X139135815Y-82778058D01*
X139060115Y-82646942D01*
X138953058Y-82539885D01*
X138821942Y-82464185D01*
X138790647Y-82455799D01*
X139522799Y-81723647D01*
X139522798Y-81723646D01*
X139425480Y-81652939D01*
X139204590Y-81540389D01*
X139204587Y-81540388D01*
X138968814Y-81463782D01*
X138723954Y-81425000D01*
X138476046Y-81425000D01*
X138231185Y-81463782D01*
X137995412Y-81540388D01*
X137995409Y-81540389D01*
X137774516Y-81652941D01*
X137677200Y-81723644D01*
X137677199Y-81723646D01*
X138409353Y-82455799D01*
X138378058Y-82464185D01*
X138246942Y-82539885D01*
X138139885Y-82646942D01*
X138064185Y-82778058D01*
X138055799Y-82809352D01*
X137323646Y-82077199D01*
X137323644Y-82077200D01*
X137252941Y-82174516D01*
X137140389Y-82395409D01*
X137140388Y-82395412D01*
X137063782Y-82631185D01*
X137025000Y-82876045D01*
X135575500Y-82876045D01*
X135575500Y-82875999D01*
X135536706Y-82631072D01*
X135536706Y-82631069D01*
X135460073Y-82395218D01*
X135347489Y-82174258D01*
X135201724Y-81973630D01*
X135026370Y-81798276D01*
X134825742Y-81652511D01*
X134604782Y-81539927D01*
X134368931Y-81463294D01*
X134368929Y-81463293D01*
X134368927Y-81463293D01*
X134124000Y-81424500D01*
X134123995Y-81424500D01*
X133876005Y-81424500D01*
X133876000Y-81424500D01*
X133631072Y-81463293D01*
X133395215Y-81539928D01*
X133174257Y-81652511D01*
X133100356Y-81706204D01*
X132973630Y-81798276D01*
X132973628Y-81798278D01*
X132973627Y-81798278D01*
X132798278Y-81973627D01*
X132798278Y-81973628D01*
X132798276Y-81973630D01*
X132764208Y-82020521D01*
X132652511Y-82174257D01*
X132539928Y-82395215D01*
X132463293Y-82631072D01*
X132424500Y-82875999D01*
X130975499Y-82875999D01*
X130975499Y-82124992D01*
X130973163Y-82102128D01*
X130964999Y-82022203D01*
X130964998Y-82022200D01*
X130948902Y-81973627D01*
X130909814Y-81855666D01*
X130817712Y-81706344D01*
X130693656Y-81582288D01*
X130544334Y-81490186D01*
X130377797Y-81435001D01*
X130377795Y-81435000D01*
X130275010Y-81424500D01*
X128524998Y-81424500D01*
X128524981Y-81424501D01*
X128422203Y-81435000D01*
X128422200Y-81435001D01*
X128255668Y-81490185D01*
X128255663Y-81490187D01*
X128106342Y-81582289D01*
X127982289Y-81706342D01*
X127890187Y-81855663D01*
X127890185Y-81855668D01*
X127872954Y-81907669D01*
X127835001Y-82022203D01*
X127835001Y-82022204D01*
X127835000Y-82022204D01*
X127824500Y-82124983D01*
X121496820Y-82124983D01*
X121485095Y-82116206D01*
X121485088Y-82116202D01*
X121350242Y-82065908D01*
X121350243Y-82065908D01*
X121290643Y-82059501D01*
X121290641Y-82059500D01*
X121290633Y-82059500D01*
X121290624Y-82059500D01*
X119394889Y-82059500D01*
X119394883Y-82059501D01*
X119335276Y-82065908D01*
X119200431Y-82116202D01*
X119200424Y-82116206D01*
X119085215Y-82202452D01*
X119085212Y-82202455D01*
X118998966Y-82317664D01*
X118998962Y-82317671D01*
X118948668Y-82452517D01*
X118942261Y-82512116D01*
X118942261Y-82512123D01*
X118942260Y-82512135D01*
X109843260Y-82512135D01*
X109843260Y-80124500D01*
X109862945Y-80057461D01*
X109915749Y-80011706D01*
X109967260Y-80000500D01*
X189718260Y-80000500D01*
X189785299Y-80020185D01*
G37*
%TD.AperFunction*%
%TD*%
M02*
